<?xml version="1.0" encoding="UTF-8" standalone="no"?>
<!-- Created with Inkscape (http://www.inkscape.org/) -->

<svg
   width="13.229167mm"
   height="13.229166mm"
   viewBox="0 0 13.229167 13.229166"
   version="1.1"
   id="svg20458"
   xml:space="preserve"
   inkscape:version="1.2.2 (732a01da63, 2022-12-09)"
   sodipodi:docname="stage.svg"
   inkscape:export-filename="sell.svg"
   inkscape:export-xdpi="1536"
   inkscape:export-ydpi="1536"
   xmlns:inkscape="http://www.inkscape.org/namespaces/inkscape"
   xmlns:sodipodi="http://sodipodi.sourceforge.net/DTD/sodipodi-0.dtd"
   xmlns="http://www.w3.org/2000/svg"
   xmlns:svg="http://www.w3.org/2000/svg"><sodipodi:namedview
     id="namedview20460"
     pagecolor="#ffffff"
     bordercolor="#000000"
     borderopacity="0.25"
     inkscape:showpageshadow="2"
     inkscape:pageopacity="0.0"
     inkscape:pagecheckerboard="0"
     inkscape:deskcolor="#d1d1d1"
     inkscape:document-units="mm"
     showgrid="false"
     inkscape:zoom="0.35355339"
     inkscape:cx="14297.699"
     inkscape:cy="-14678.123"
     inkscape:window-width="1920"
     inkscape:window-height="991"
     inkscape:window-x="-9"
     inkscape:window-y="-9"
     inkscape:window-maximized="1"
     inkscape:current-layer="layer1"
     showguides="false" /><defs
     id="defs20455" /><g
     inkscape:label="Vrstva 1"
     inkscape:groupmode="layer"
     id="layer1"
     transform="translate(-6.6145832,-6.6145833)"><path
       fill="#000000"
       d="m 9.1637495,6.6146344 c -0.234606,0.0026 -0.468127,0.02328 -0.698738,0.06784 2.9766695,1.791759 5.1993815,4.1868206 6.9535435,6.9569826 0.07035,-1.49696 -0.530993,-3.038741 -1.490637,-4.2951146 -0.392536,0.147505 -0.876485,0.02064 -1.21039,-0.313267 -0.333586,-0.333586 -0.461063,-0.817192 -0.314139,-1.209569 -0.994834,-0.750623 -2.130373,-1.212427 -3.2396395,-1.206872 z m 10.5969095,0.568193 -1.975221,2.161514 0.837009,3.4963366 -1.534054,0.244476 -0.540385,2.245043 2.046632,1.089422 -1.148636,1.557602 0.825844,1.226106 -2.472161,-0.769223 0.459449,-1.220841 -2.135373,-0.942393 0.365442,-2.354713 -3.101287,1.61851 -0.117502,2.178923 -3.1248095,-0.770096 -0.925857,2.900257 H 19.760632 V 7.1828274 Z m -6.49494,0.573485 c -0.01085,0 -0.0217,0 -0.03217,0.0026 -0.101467,0.009 -0.191637,0.04723 -0.255852,0.11139 -0.171159,0.171238 -0.159993,0.525701 0.107897,0.793591 0.267944,0.267944 0.622433,0.279109 0.793592,0.107924 0.171185,-0.171212 0.16002,-0.525674 -0.107897,-0.793591 -0.156951,-0.156978 -0.343482,-0.225452 -0.505566,-0.221007 z m -1.800358,1.917779 -4.7676875,4.7693806 c 0.118983,0.332078 0.307049,0.586158 0.703077,0.713555 L 12.174577,10.381561 C 11.957486,10.134017 11.720472,9.8989344 11.465361,9.6741184 Z m 4.421294,0.323718 0.259345,2.3580996 0.763984,-2.3581256 h -1.023302 z m -3.676439,2.0874836 -0.561261,1.000681 2.580932,0.205369 -2.019644,-1.206077 z"
       id="path84002"
       style="stroke-width:0.0278453"
       inkscape:export-filename=".\path84002.svg"
       inkscape:export-xdpi="25.40155"
       inkscape:export-ydpi="25.40155" /><rect
       style="fill:none;fill-opacity:1;stroke:#454545;stroke-width:0.189362;stroke-linecap:round;stroke-linejoin:bevel;stroke-miterlimit:7.9;stroke-dasharray:none;stroke-dashoffset:0;stroke-opacity:1"
       id="rect153114"
       width="26.26897"
       height="26.268974"
       x="0.094681002"
       y="0.094681002"
       sodipodi:insensitive="true" /></g><style
     type="text/css"
     id="style13890">
	.st0{fill:none;stroke:#000000;stroke-width:2;stroke-linecap:round;stroke-linejoin:round;stroke-miterlimit:10;}
</style></svg>
