<?xml version="1.0" encoding="UTF-8" standalone="no"?>
<!-- Created with Inkscape (http://www.inkscape.org/) -->

<svg
   width="15.345947mm"
   height="15.345947mm"
   viewBox="0 0 15.345947 15.345947"
   version="1.1"
   id="svg20458"
   xml:space="preserve"
   inkscape:version="1.2.2 (732a01da63, 2022-12-09)"
   sodipodi:docname="stage.svg"
   inkscape:export-filename="upgrade-S.svg"
   inkscape:export-xdpi="192"
   inkscape:export-ydpi="192"
   xmlns:inkscape="http://www.inkscape.org/namespaces/inkscape"
   xmlns:sodipodi="http://sodipodi.sourceforge.net/DTD/sodipodi-0.dtd"
   xmlns="http://www.w3.org/2000/svg"
   xmlns:svg="http://www.w3.org/2000/svg"><sodipodi:namedview
     id="namedview20460"
     pagecolor="#ffffff"
     bordercolor="#000000"
     borderopacity="0.25"
     inkscape:showpageshadow="2"
     inkscape:pageopacity="0.0"
     inkscape:pagecheckerboard="0"
     inkscape:deskcolor="#d1d1d1"
     inkscape:document-units="mm"
     showgrid="false"
     inkscape:zoom="0.056568542"
     inkscape:cx="9722.7183"
     inkscape:cy="-14451.495"
     inkscape:window-width="1920"
     inkscape:window-height="991"
     inkscape:window-x="-9"
     inkscape:window-y="-9"
     inkscape:window-maximized="1"
     inkscape:current-layer="layer1"
     showguides="false" /><defs
     id="defs20455" /><g
     inkscape:label="Vrstva 1"
     inkscape:groupmode="layer"
     id="layer1"
     transform="translate(-3074.4302,3507.6562)"><g
       id="g82342"
       transform="matrix(0.26458333,0,0,0.26458333,3074.4302,-3507.6561)"
       inkscape:export-filename=".\g82342.svg"
       inkscape:export-xdpi="82.758621"
       inkscape:export-ydpi="82.758621"><circle
         style="fill:#e7eced"
         cx="29"
         cy="29"
         r="29"
         id="circle82295" /><path
         style="fill:#424a60"
         d="M 29,4 C 42.785,4 54,15.215 54,29 54,42.785 42.785,54 29,54 15.215,54 4,42.785 4,29 4,15.215 15.215,4 29,4 M 29,0 C 12.984,0 0,12.984 0,29 0,45.016 12.984,58 29,58 45.016,58 58,45.016 58,29 58,12.984 45.016,0 29,0 Z"
         id="path82297" /><g
         id="g82315">
	<path
   style="fill:#7383bf"
   d="m 29,5.879 c -0.552,0 -1,0.447 -1,1 v 1 c 0,0.553 0.448,1 1,1 0.552,0 1,-0.447 1,-1 v -1 c 0,-0.553 -0.448,-1 -1,-1 z"
   id="path82299" />
	<path
   style="fill:#7383bf"
   d="m 29,48.879 c -0.552,0 -1,0.447 -1,1 v 1 c 0,0.553 0.448,1 1,1 0.552,0 1,-0.447 1,-1 v -1 c 0,-0.553 -0.448,-1 -1,-1 z"
   id="path82301" />
	<path
   style="fill:#7383bf"
   d="m 51,27.879 h -1 c -0.552,0 -1,0.447 -1,1 0,0.553 0.448,1 1,1 h 1 c 0.552,0 1,-0.447 1,-1 0,-0.553 -0.448,-1 -1,-1 z"
   id="path82303" />
	<path
   style="fill:#7383bf"
   d="M 8,27.879 H 7 c -0.552,0 -1,0.447 -1,1 0,0.553 0.448,1 1,1 h 1 c 0.552,0 1,-0.447 1,-1 0,-0.553 -0.448,-1 -1,-1 z"
   id="path82305" />
	<path
   style="fill:#7383bf"
   d="m 43.849,12.615 -0.707,0.707 c -0.391,0.391 -0.391,1.023 0,1.414 0.195,0.195 0.451,0.293 0.707,0.293 0.256,0 0.512,-0.098 0.707,-0.293 l 0.707,-0.707 c 0.391,-0.391 0.391,-1.023 0,-1.414 -0.391,-0.391 -1.023,-0.391 -1.414,0 z"
   id="path82307" />
	<path
   style="fill:#7383bf"
   d="m 13.444,43.021 -0.707,0.707 c -0.391,0.391 -0.391,1.023 0,1.414 0.195,0.195 0.451,0.293 0.707,0.293 0.256,0 0.512,-0.098 0.707,-0.293 l 0.707,-0.707 c 0.391,-0.391 0.391,-1.023 0,-1.414 -0.391,-0.391 -1.024,-0.39 -1.414,0 z"
   id="path82309" />
	<path
   style="fill:#7383bf"
   d="m 44.556,43.021 c -0.391,-0.391 -1.023,-0.391 -1.414,0 -0.391,0.391 -0.391,1.023 0,1.414 l 0.707,0.707 c 0.195,0.195 0.451,0.293 0.707,0.293 0.256,0 0.512,-0.098 0.707,-0.293 0.391,-0.391 0.391,-1.023 0,-1.414 z"
   id="path82311" />
	<path
   style="fill:#7383bf"
   d="m 14.151,12.615 c -0.391,-0.391 -1.023,-0.391 -1.414,0 -0.391,0.391 -0.391,1.023 0,1.414 l 0.707,0.707 c 0.195,0.195 0.451,0.293 0.707,0.293 0.256,0 0.512,-0.098 0.707,-0.293 0.391,-0.391 0.391,-1.023 0,-1.414 z"
   id="path82313" />
</g><line
         style="fill:none;stroke:#424a60;stroke-width:2;stroke-linecap:round;stroke-linejoin:round;stroke-miterlimit:10"
         x1="26"
         y1="28.879"
         x2="18"
         y2="28.879"
         id="line82317" /><line
         style="fill:none;stroke:#424a60;stroke-width:2;stroke-linecap:round;stroke-linejoin:round;stroke-miterlimit:10"
         x1="29"
         y1="25.879"
         x2="29"
         y2="14.879"
         id="line82319" /><circle
         style="fill:none;stroke:#424a60;stroke-width:2;stroke-linecap:round;stroke-linejoin:round;stroke-miterlimit:10"
         cx="29"
         cy="28.879"
         r="3"
         id="circle82321" /></g></g><style
     type="text/css"
     id="style13890">
	.st0{fill:none;stroke:#000000;stroke-width:2;stroke-linecap:round;stroke-linejoin:round;stroke-miterlimit:10;}
</style></svg>
