<?xml version="1.0" encoding="UTF-8" standalone="no"?>
<!-- Created with Inkscape (http://www.inkscape.org/) -->

<svg
   width="50mm"
   height="50.000004mm"
   viewBox="0 0 50 50.000004"
   version="1.1"
   id="svg20458"
   xml:space="preserve"
   inkscape:version="1.2.2 (732a01da63, 2022-12-09)"
   sodipodi:docname="stage.svg"
   inkscape:export-filename="upgrade-S.svg"
   inkscape:export-xdpi="1536"
   inkscape:export-ydpi="1536"
   xmlns:inkscape="http://www.inkscape.org/namespaces/inkscape"
   xmlns:sodipodi="http://sodipodi.sourceforge.net/DTD/sodipodi-0.dtd"
   xmlns="http://www.w3.org/2000/svg"
   xmlns:svg="http://www.w3.org/2000/svg"><sodipodi:namedview
     id="namedview20460"
     pagecolor="#ffffff"
     bordercolor="#000000"
     borderopacity="0.25"
     inkscape:showpageshadow="2"
     inkscape:pageopacity="0.0"
     inkscape:pagecheckerboard="0"
     inkscape:deskcolor="#d1d1d1"
     inkscape:document-units="mm"
     showgrid="false"
     inkscape:zoom="0.04"
     inkscape:cx="2425"
     inkscape:cy="-4712.5"
     inkscape:window-width="1920"
     inkscape:window-height="991"
     inkscape:window-x="-9"
     inkscape:window-y="-9"
     inkscape:window-maximized="1"
     inkscape:current-layer="layer1"
     showguides="false" /><defs
     id="defs20455" /><g
     inkscape:label="Vrstva 1"
     inkscape:groupmode="layer"
     id="layer1"
     transform="translate(-458.79481,50.000037)"><g
       id="g75635"
       transform="matrix(1.6666667,0,0,1.6666667,-3889.5588,6776.6731)"
       inkscape:export-filename=".\g75635.svg"
       inkscape:export-xdpi="50.79995"
       inkscape:export-ydpi="50.79995"><path
         d="m 2638.2609,-4091.0212 -4.2313,-4.2313 -10.0174,10.0175 -10.0204,-10.0175 -4.2312,4.2313 10.0203,10.0174 -10.0203,10.0204 4.2312,4.2313 10.0204,-10.0204 10.0174,10.0204 4.2313,-4.2313 -10.0175,-10.0204 10.0175,-10.0174"
         style="fill:#d00c10;fill-opacity:1;fill-rule:nonzero;stroke:none;stroke-width:0.0291205"
         id="path3488-5-3-9" /><path
         d="m 2610.5118,-4070.9834 3.4799,3.4798 10.0204,-10.0174 10.0174,10.0174 3.4829,-3.4798 -10.0204,-10.0204 10.0204,-10.0174 -3.4829,-3.4829 -10.0174,10.0204 -10.0204,-10.0204 -3.4799,3.4829 10.0175,10.0174 z m 23.5177,4.9796 -10.0174,-10.0174 -10.0204,10.0174 -4.9796,-4.9796 10.0175,-10.0204 -10.0175,-10.0174 4.9796,-4.9826 10.0204,10.0203 10.0174,-10.0203 4.9826,4.9825 -10.0204,10.0174 10.0204,10.0204 -4.9826,4.9796"
         style="fill:#443f35;fill-opacity:1;fill-rule:nonzero;stroke:none;stroke-width:0.0291205"
         id="path3490-6-8-6" /></g></g><style
     type="text/css"
     id="style13890">
	.st0{fill:none;stroke:#000000;stroke-width:2;stroke-linecap:round;stroke-linejoin:round;stroke-miterlimit:10;}
</style></svg>
