<?xml version="1.0" encoding="UTF-8" standalone="no"?>
<!-- Created with Inkscape (http://www.inkscape.org/) -->

<svg
   width="13.229167mm"
   height="13.229166mm"
   viewBox="0 0 13.229167 13.229166"
   version="1.1"
   id="svg20458"
   xml:space="preserve"
   inkscape:version="1.2.2 (732a01da63, 2022-12-09)"
   sodipodi:docname="stage.svg"
   inkscape:export-filename="info.svg"
   inkscape:export-xdpi="25.4"
   inkscape:export-ydpi="25.4"
   xmlns:inkscape="http://www.inkscape.org/namespaces/inkscape"
   xmlns:sodipodi="http://sodipodi.sourceforge.net/DTD/sodipodi-0.dtd"
   xmlns="http://www.w3.org/2000/svg"
   xmlns:svg="http://www.w3.org/2000/svg"><sodipodi:namedview
     id="namedview20460"
     pagecolor="#ffffff"
     bordercolor="#000000"
     borderopacity="0.25"
     inkscape:showpageshadow="2"
     inkscape:pageopacity="0.0"
     inkscape:pagecheckerboard="0"
     inkscape:deskcolor="#d1d1d1"
     inkscape:document-units="mm"
     showgrid="false"
     inkscape:zoom="0.35355339"
     inkscape:cx="14297.699"
     inkscape:cy="-14678.123"
     inkscape:window-width="1920"
     inkscape:window-height="991"
     inkscape:window-x="-9"
     inkscape:window-y="-9"
     inkscape:window-maximized="1"
     inkscape:current-layer="layer1"
     showguides="false" /><defs
     id="defs20455" /><g
     inkscape:label="Vrstva 1"
     inkscape:groupmode="layer"
     id="layer1"
     transform="translate(-6.6145832,-6.6145833)"><path
       d="m 15.088996,10.712615 c 0.25249,0.261645 0.344618,0.629256 0.301226,0.984669 -0.06289,0.515909 -0.211771,0.998955 -0.386475,1.485892 -0.186927,0.521068 -0.376632,1.04105 -0.56729,1.560716 -0.304983,0.831528 -0.612349,1.662156 -0.913971,2.494928 -0.07496,0.206824 -0.128402,0.427697 -0.149754,0.646188 -0.02328,0.23794 0.147902,0.355018 0.362768,0.249448 0.172084,-0.08461 0.339591,-0.199758 0.474343,-0.336019 0.220158,-0.222619 0.439365,-0.446323 0.653226,-0.675107 0.10689,-0.114405 0.212645,-0.230107 0.316335,-0.347527 0.08265,-0.09358 0.167559,-0.234395 0.280986,-0.291306 0.214761,-0.10779 0.380521,0.1574 0.341628,0.343083 -0.03715,0.177588 -0.159411,0.333374 -0.271911,0.475138 l -0.0077,0.0098 a 10.745408,10.745408 0 0 0 -0.03053,0.0386 c -0.378063,0.480903 -0.792663,0.944556 -1.26301,1.336535 -0.462357,0.384252 -0.975698,0.711169 -1.539444,0.923126 -0.183619,0.06903 -0.37179,0.125782 -0.56303,0.169252 -0.369197,0.08401 -0.777182,0.07773 -1.154504,0.02302 -0.276646,-0.04016 -0.525353,-0.216641 -0.642615,-0.473417 -0.20357,-0.445768 -0.06186,-0.996284 0.04339,-1.450015 0.128931,-0.555543 0.322446,-1.084442 0.520141,-1.616569 l 0.01508,-0.04043 0.0074,-0.02011 0.01508,-0.04045 0.01508,-0.04046 c 0.229126,-0.616794 0.464631,-1.231099 0.700903,-1.845168 0.215635,-0.560147 0.432142,-1.119896 0.645553,-1.680862 0.0164,-0.04281 0.03448,-0.08535 0.05284,-0.127847 l 0.0069,-0.01587 c 0.0471,-0.108902 0.09393,-0.217831 0.111469,-0.331363 0.04207,-0.272413 -0.154383,-0.514956 -0.427089,-0.357926 -0.471431,0.271487 -0.824463,0.675185 -1.174345,1.081372 l -0.04255,0.0494 c -0.108717,0.126259 -0.217591,0.252254 -0.330092,0.374066 -0.110861,0.120068 -0.242833,0.268974 -0.433437,0.131392 -0.2034117,-0.146817 -0.1430866,-0.335119 -0.02746,-0.494609 0.642009,-0.885952 1.412869,-1.714703 2.417459,-2.182695 0.419838,-0.19558 1.006761,-0.394703 1.556377,-0.401238 0.412033,-0.0048 0.803111,0.09848 1.087088,0.392664 z m 0.63415,-3.9958744 c 0.528502,0.2056333 0.813325,0.6651327 0.813273,1.312009 0,1.165722 -1.259252,1.9630655 -2.311865,1.4638256 -0.544008,-0.2579939 -0.808616,-0.8695488 -0.676748,-1.5640764 0.182562,-0.9618342 1.266289,-1.5654511 2.17534,-1.2117582 z"
       fill-rule="evenodd"
       id="path47163"
       style="fill:#000000;stroke-width:0.00689018"
       inkscape:export-filename=".\info.svg"
       inkscape:export-xdpi="25.399975"
       inkscape:export-ydpi="25.399975" /><rect
       style="fill:none;fill-opacity:1;stroke:#454545;stroke-width:0.189362;stroke-linecap:round;stroke-linejoin:bevel;stroke-miterlimit:7.9;stroke-dasharray:none;stroke-dashoffset:0;stroke-opacity:1"
       id="rect153114"
       width="26.26897"
       height="26.268974"
       x="0.094681002"
       y="0.094681002" /></g><style
     type="text/css"
     id="style13890">
	.st0{fill:none;stroke:#000000;stroke-width:2;stroke-linecap:round;stroke-linejoin:round;stroke-miterlimit:10;}
</style></svg>
