<?xml version="1.0" encoding="UTF-8" standalone="no"?>
<!-- Created with Inkscape (http://www.inkscape.org/) -->

<svg
   width="13.229167mm"
   height="13.229166mm"
   viewBox="0 0 13.229167 13.229166"
   version="1.1"
   id="svg20458"
   xml:space="preserve"
   inkscape:version="1.2.2 (732a01da63, 2022-12-09)"
   sodipodi:docname="stage.svg"
   inkscape:export-filename="info-S.svg"
   inkscape:export-xdpi="96"
   inkscape:export-ydpi="96"
   xmlns:inkscape="http://www.inkscape.org/namespaces/inkscape"
   xmlns:sodipodi="http://sodipodi.sourceforge.net/DTD/sodipodi-0.dtd"
   xmlns="http://www.w3.org/2000/svg"
   xmlns:svg="http://www.w3.org/2000/svg"><sodipodi:namedview
     id="namedview20460"
     pagecolor="#ffffff"
     bordercolor="#000000"
     borderopacity="0.25"
     inkscape:showpageshadow="2"
     inkscape:pageopacity="0.0"
     inkscape:pagecheckerboard="0"
     inkscape:deskcolor="#d1d1d1"
     inkscape:document-units="mm"
     showgrid="false"
     inkscape:zoom="0.35355339"
     inkscape:cx="14297.699"
     inkscape:cy="-14678.123"
     inkscape:window-width="1920"
     inkscape:window-height="991"
     inkscape:window-x="-9"
     inkscape:window-y="-9"
     inkscape:window-maximized="1"
     inkscape:current-layer="layer1"
     showguides="false" /><defs
     id="defs20455" /><g
     inkscape:label="Vrstva 1"
     inkscape:groupmode="layer"
     id="layer1"
     transform="translate(-6.6145832,-6.6145833)"><path
       d="m 15.087583,10.712616 c 0.2525,0.261645 0.3446,0.629256 0.3012,0.984669 -0.063,0.515909 -0.2117,0.998956 -0.3864,1.485893 -0.187,0.521068 -0.3767,1.041051 -0.5673,1.560717 -0.305,0.831528 -0.6124,1.662157 -0.914,2.494929 -0.075,0.206824 -0.1284,0.427697 -0.1498,0.646189 -0.023,0.237939 0.1479,0.355016 0.3628,0.249448 0.1721,-0.08461 0.3396,-0.199759 0.4744,-0.336019 0.2201,-0.22262 0.4393,-0.446324 0.6532,-0.675108 0.1069,-0.114405 0.2126,-0.230107 0.3163,-0.347528 0.083,-0.09358 0.1676,-0.234394 0.281,-0.291305 0.2148,-0.107791 0.3805,0.1574 0.3416,0.343083 -0.037,0.177588 -0.1594,0.333374 -0.2719,0.475137 l -0.01,0.0098 a 10.745413,10.745413 0 0 0 -0.031,0.0386 c -0.3781,0.480904 -0.7927,0.944558 -1.263,1.336536 -0.4624,0.384253 -0.9757,0.71117 -1.5394,0.923127 -0.1837,0.06903 -0.3718,0.125782 -0.5631,0.169253 -0.3692,0.084 -0.7772,0.07773 -1.1545,0.02302 -0.2766,-0.04016 -0.5253,-0.21664 -0.6426,-0.473417 -0.2036,-0.445768 -0.062,-0.996284 0.043,-1.450015 0.1289,-0.555543 0.3224,-1.084443 0.5201,-1.61657 l 0.015,-0.04043 0.01,-0.02011 0.015,-0.04045 0.015,-0.04046 c 0.2291,-0.616794 0.4646,-1.2311 0.7009,-1.845169 0.2156,-0.560147 0.4321,-1.119897 0.6455,-1.680863 0.017,-0.04281 0.034,-0.08535 0.053,-0.127847 l 0.01,-0.01587 c 0.047,-0.108902 0.094,-0.217831 0.1114,-0.331363 0.042,-0.272414 -0.1544,-0.514956 -0.4271,-0.357927 -0.4714,0.271488 -0.8244,0.675187 -1.1743,1.081374 l -0.042,0.0494 c -0.1088,0.126259 -0.2176,0.252253 -0.3301,0.374066 -0.1109,0.120068 -0.2429,0.268974 -0.4335,0.131392 -0.2033996,-0.146817 -0.1430996,-0.33512 -0.027,-0.49461 0.642,-0.885953 1.4128,-1.714703 2.4174,-2.182696 0.4199,-0.195579 1.0068,-0.394704 1.5564,-0.401239 0.412,-0.0048 0.8031,0.09848 1.0871,0.392666 z m 0.6342,-3.9958773 c 0.5285,0.205633 0.8133,0.665133 0.8132,1.31201 0,1.165722 -1.2592,1.963066 -2.3118,1.463826 -0.544,-0.257994 -0.8087,-0.869549 -0.6768,-1.564077 0.1826,-0.961835 1.2663,-1.565452 2.1754,-1.211759 z"
       fill-rule="evenodd"
       id="path47163-6"
       style="fill:#aae81e;fill-opacity:1;stroke-width:0.00689017"
       inkscape:export-filename=".\infoS.svg"
       inkscape:export-xdpi="25.399975"
       inkscape:export-ydpi="25.399975" /><rect
       style="fill:none;fill-opacity:1;stroke:#454545;stroke-width:0.189362;stroke-linecap:round;stroke-linejoin:bevel;stroke-miterlimit:7.9;stroke-dasharray:none;stroke-dashoffset:0;stroke-opacity:1"
       id="rect153114"
       width="26.26897"
       height="26.268974"
       x="0.094681002"
       y="0.094681002" /></g><style
     type="text/css"
     id="style13890">
	.st0{fill:none;stroke:#000000;stroke-width:2;stroke-linecap:round;stroke-linejoin:round;stroke-miterlimit:10;}
</style></svg>
