<?xml version="1.0" encoding="UTF-8" standalone="no"?>
<!-- Created with Inkscape (http://www.inkscape.org/) -->

<svg
   width="13.229167mm"
   height="13.229166mm"
   viewBox="0 0 13.229167 13.229166"
   version="1.1"
   id="svg20458"
   xml:space="preserve"
   inkscape:version="1.2.2 (732a01da63, 2022-12-09)"
   sodipodi:docname="stage.svg"
   inkscape:export-filename="level_speed-2S.svg"
   inkscape:export-xdpi="1536"
   inkscape:export-ydpi="1536"
   xmlns:inkscape="http://www.inkscape.org/namespaces/inkscape"
   xmlns:sodipodi="http://sodipodi.sourceforge.net/DTD/sodipodi-0.dtd"
   xmlns="http://www.w3.org/2000/svg"
   xmlns:svg="http://www.w3.org/2000/svg"><sodipodi:namedview
     id="namedview20460"
     pagecolor="#ffffff"
     bordercolor="#000000"
     borderopacity="0.25"
     inkscape:showpageshadow="2"
     inkscape:pageopacity="0.0"
     inkscape:pagecheckerboard="0"
     inkscape:deskcolor="#d1d1d1"
     inkscape:document-units="mm"
     showgrid="false"
     inkscape:zoom="0.16"
     inkscape:cx="1325"
     inkscape:cy="-171.875"
     inkscape:window-width="1920"
     inkscape:window-height="991"
     inkscape:window-x="-9"
     inkscape:window-y="-9"
     inkscape:window-maximized="1"
     inkscape:current-layer="layer1"
     showguides="false" /><defs
     id="defs20455" /><g
     inkscape:label="Vrstva 1"
     inkscape:groupmode="layer"
     id="layer1"
     transform="translate(-6.6145832,-6.6145833)"><g
       style="fill:#000000;stroke:none;stroke-opacity:0.599089"
       id="g17711"
       transform="matrix(0.5490192,0,0,0.5490192,4.4360747,4.4360766)"
       inkscape:export-filename=".\g17711.svg"
       inkscape:export-xdpi="50.79995"
       inkscape:export-ydpi="50.79995"><path
         d="m 3.968,24.032 q 0,0.544 0.288,1.056 0.288,0.512 0.768,0.736 0.48,0.256 1.056,0.224 0.576,-0.032 0.992,-0.32 l 12.064,-8.032 q 0.896,-0.608 0.896,-1.696 0,-1.088 -0.896,-1.664 L 7.072,6.304 Q 6.624,6.016 6.08,5.984 5.536,5.952 5.024,6.208 4.544,6.464 4.256,6.944 3.968,7.424 3.968,7.968 Z m 16.064,0 q 0,0.832 0.576,1.44 0.576,0.608 1.408,0.576 h 4.032 q 0.8,0 1.408,-0.576 0.608,-0.576 0.608,-1.44 V 7.968 q 0,-0.8 -0.608,-1.408 -0.608,-0.608 -1.408,-0.576 h -4.032 q -0.832,0 -1.408,0.576 -0.576,0.576 -0.576,1.408 z"
         id="path17702"
         style="stroke:none;stroke-opacity:0.599089" /></g><rect
       style="fill:none;fill-opacity:1;stroke:#454545;stroke-width:0.189362;stroke-linecap:round;stroke-linejoin:bevel;stroke-miterlimit:7.9;stroke-dasharray:none;stroke-dashoffset:0;stroke-opacity:1"
       id="rect153114"
       width="26.26897"
       height="26.268974"
       x="0.094681002"
       y="0.094681002"
       sodipodi:insensitive="true" /></g><style
     type="text/css"
     id="style13890">
	.st0{fill:none;stroke:#000000;stroke-width:2;stroke-linecap:round;stroke-linejoin:round;stroke-miterlimit:10;}
</style></svg>
