<?xml version="1.0" encoding="UTF-8" standalone="no"?>
<!-- Created with Inkscape (http://www.inkscape.org/) -->

<svg
   width="13.229167mm"
   height="13.229166mm"
   viewBox="0 0 13.229167 13.229166"
   version="1.1"
   id="svg20458"
   xml:space="preserve"
   inkscape:version="1.2.2 (732a01da63, 2022-12-09)"
   sodipodi:docname="stage.svg"
   inkscape:export-filename="sight.svg"
   inkscape:export-xdpi="1536"
   inkscape:export-ydpi="1536"
   xmlns:inkscape="http://www.inkscape.org/namespaces/inkscape"
   xmlns:sodipodi="http://sodipodi.sourceforge.net/DTD/sodipodi-0.dtd"
   xmlns="http://www.w3.org/2000/svg"
   xmlns:svg="http://www.w3.org/2000/svg"><sodipodi:namedview
     id="namedview20460"
     pagecolor="#ffffff"
     bordercolor="#000000"
     borderopacity="0.25"
     inkscape:showpageshadow="2"
     inkscape:pageopacity="0.0"
     inkscape:pagecheckerboard="0"
     inkscape:deskcolor="#d1d1d1"
     inkscape:document-units="mm"
     showgrid="false"
     inkscape:zoom="0.16"
     inkscape:cx="1325"
     inkscape:cy="-171.875"
     inkscape:window-width="1920"
     inkscape:window-height="991"
     inkscape:window-x="-9"
     inkscape:window-y="-9"
     inkscape:window-maximized="1"
     inkscape:current-layer="layer1"
     showguides="false" /><defs
     id="defs20455" /><g
     inkscape:label="Vrstva 1"
     inkscape:groupmode="layer"
     id="layer1"
     transform="translate(-6.6145832,-6.6145833)"><g
       style="fill:#000000"
       id="g13047"
       transform="matrix(0.6551168,0,0,0.6551168,2.7472974,2.7373416)"
       inkscape:export-filename=".\g13047.svg"
       inkscape:export-xdpi="50.876194"
       inkscape:export-ydpi="50.876194"><path
         d="m 5.92,24.096 q 0,0.832 0.576,1.408 0.576,0.576 1.44,0.608 h 4.032 q 0.832,0 1.44,-0.608 0.608,-0.608 0.576,-1.408 V 7.936 q 0,-0.832 -0.576,-1.44 Q 12.832,5.888 11.968,5.92 H 7.936 q -0.832,0 -1.44,0.576 -0.608,0.576 -0.576,1.44 z m 12.096,0 q 0,0.832 0.608,1.408 0.608,0.576 1.408,0.608 h 4.032 q 0.832,0 1.44,-0.608 0.608,-0.608 0.576,-1.408 V 7.936 q 0,-0.832 -0.576,-1.44 -0.576,-0.608 -1.44,-0.576 h -4.032 q -0.832,0 -1.408,0.576 -0.576,0.576 -0.608,1.44 z"
         id="path13038" /></g><rect
       style="fill:none;fill-opacity:1;stroke:#454545;stroke-width:0.189362;stroke-linecap:round;stroke-linejoin:bevel;stroke-miterlimit:7.9;stroke-dasharray:none;stroke-dashoffset:0;stroke-opacity:1"
       id="rect153114"
       width="26.26897"
       height="26.268974"
       x="0.094681002"
       y="0.094681002"
       sodipodi:insensitive="true" /></g><style
     type="text/css"
     id="style13890">
	.st0{fill:none;stroke:#000000;stroke-width:2;stroke-linecap:round;stroke-linejoin:round;stroke-miterlimit:10;}
</style></svg>
