<?xml version="1.0" encoding="UTF-8" standalone="no"?>
<!-- Created with Inkscape (http://www.inkscape.org/) -->

<svg
   width="13.229167mm"
   height="13.229166mm"
   viewBox="0 0 13.229167 13.229166"
   version="1.1"
   id="svg20458"
   xml:space="preserve"
   inkscape:version="1.2.2 (732a01da63, 2022-12-09)"
   sodipodi:docname="stage.svg"
   inkscape:export-filename="speed-0.svg"
   inkscape:export-xdpi="1536"
   inkscape:export-ydpi="1536"
   xmlns:inkscape="http://www.inkscape.org/namespaces/inkscape"
   xmlns:sodipodi="http://sodipodi.sourceforge.net/DTD/sodipodi-0.dtd"
   xmlns="http://www.w3.org/2000/svg"
   xmlns:svg="http://www.w3.org/2000/svg"><sodipodi:namedview
     id="namedview20460"
     pagecolor="#ffffff"
     bordercolor="#000000"
     borderopacity="0.25"
     inkscape:showpageshadow="2"
     inkscape:pageopacity="0.0"
     inkscape:pagecheckerboard="0"
     inkscape:deskcolor="#d1d1d1"
     inkscape:document-units="mm"
     showgrid="false"
     inkscape:zoom="0.16"
     inkscape:cx="1325"
     inkscape:cy="-171.875"
     inkscape:window-width="1920"
     inkscape:window-height="991"
     inkscape:window-x="-9"
     inkscape:window-y="-9"
     inkscape:window-maximized="1"
     inkscape:current-layer="layer1"
     showguides="false" /><defs
     id="defs20455" /><g
     inkscape:label="Vrstva 1"
     inkscape:groupmode="layer"
     id="layer1"
     transform="translate(-6.6145832,-6.6145833)"><path
       d="m 6.9371162,18.273207 q 0,0.519377 0.3595424,0.878919 0.3594894,0.359543 0.8988427,0.379519 h 2.5168237 q 0.51935,0 0.898842,-0.379519 0.379519,-0.379544 0.359569,-0.878919 V 8.1859644 q 0,-0.5193243 -0.359569,-0.8988427 Q 11.251625,6.9075778 10.712325,6.9275803 H 8.1955013 q -0.5193243,0 -0.8988427,0.3595414 -0.3795449,0.3594895 -0.3595424,0.8988427 z m 7.5504428,0 q 0,0.519377 0.379519,0.878919 0.379518,0.359543 0.878867,0.379519 h 2.516823 q 0.519351,0 0.898895,-0.379519 0.379519,-0.379544 0.359543,-0.878919 V 8.1859644 q 0,-0.5193243 -0.359543,-0.8988427 -0.359542,-0.3795439 -0.898895,-0.3595414 h -2.516823 q -0.519325,0 -0.878867,0.3595414 -0.359543,0.3594895 -0.379519,0.8988427 z"
       id="path13038-3"
       style="fill:#f5b337;fill-opacity:1;stroke:#28170a;stroke-width:0.624213;stroke-opacity:0.6"
       inkscape:export-filename=".\path13038-3.svg"
       inkscape:export-xdpi="48.472897"
       inkscape:export-ydpi="48.472897" /><rect
       style="fill:none;fill-opacity:1;stroke:#454545;stroke-width:0.189362;stroke-linecap:round;stroke-linejoin:bevel;stroke-miterlimit:7.9;stroke-dasharray:none;stroke-dashoffset:0;stroke-opacity:1"
       id="rect153114"
       width="26.26897"
       height="26.268974"
       x="0.094681002"
       y="0.094681002"
       sodipodi:insensitive="true" /></g><style
     type="text/css"
     id="style13890">
	.st0{fill:none;stroke:#000000;stroke-width:2;stroke-linecap:round;stroke-linejoin:round;stroke-miterlimit:10;}
</style></svg>
