<?xml version="1.0" encoding="UTF-8" standalone="no"?>
<!-- Created with Inkscape (http://www.inkscape.org/) -->

<svg
   width="50mm"
   height="27.815186mm"
   viewBox="0 0 50 27.815186"
   version="1.1"
   id="svg20458"
   xml:space="preserve"
   inkscape:version="1.2.2 (732a01da63, 2022-12-09)"
   sodipodi:docname="stage.svg"
   inkscape:export-filename="panel2.svg"
   inkscape:export-xdpi="23.161549"
   inkscape:export-ydpi="23.161549"
   xmlns:inkscape="http://www.inkscape.org/namespaces/inkscape"
   xmlns:sodipodi="http://sodipodi.sourceforge.net/DTD/sodipodi-0.dtd"
   xmlns="http://www.w3.org/2000/svg"
   xmlns:svg="http://www.w3.org/2000/svg"><sodipodi:namedview
     id="namedview20460"
     pagecolor="#ffffff"
     bordercolor="#000000"
     borderopacity="0.25"
     inkscape:showpageshadow="2"
     inkscape:pageopacity="0.0"
     inkscape:pagecheckerboard="0"
     inkscape:deskcolor="#d1d1d1"
     inkscape:document-units="mm"
     showgrid="false"
     inkscape:zoom="0.16"
     inkscape:cx="13853.125"
     inkscape:cy="-14984.375"
     inkscape:window-width="1920"
     inkscape:window-height="991"
     inkscape:window-x="-9"
     inkscape:window-y="-9"
     inkscape:window-maximized="1"
     inkscape:current-layer="layer1" /><defs
     id="defs20455" /><g
     inkscape:label="Vrstva 1"
     inkscape:groupmode="layer"
     id="layer1"
     transform="translate(-3947.304,4045.6432)"><g
       id="g485297"
       transform="matrix(0.1683496,0,0,0.1683496,3947.3041,-4056.7357)"
       style="stroke:none;stroke-opacity:1">
	<path
   style="fill:#17ab93;stroke:none;stroke-opacity:1"
   d="M 288.514,65.889 H 8.486 C 3.799,65.889 0,69.688 0,74.375 v 148.25 c 0,4.686 3.799,8.486 8.486,8.486 h 280.029 c 4.686,0 8.486,-3.799 8.486,-8.486 V 74.375 c -10e-4,-4.687 -3.8,-8.486 -8.487,-8.486 z"
   id="path485281" />
	<path
   style="fill:#129179;stroke:none;stroke-opacity:1"
   d="M 288.514,65.889 H 149.166 v 165.222 h 139.348 c 4.686,0 8.486,-3.799 8.486,-8.486 V 74.375 c 0,-4.687 -3.799,-8.486 -8.486,-8.486 z"
   id="path485283" />
	<polygon
   style="fill:#82d9c8;stroke:none;stroke-opacity:1"
   points="12.479,126.796 60.907,78.368 12.479,78.368 "
   id="polygon485285" />
	<polygon
   style="fill:#82d9c8;stroke:none;stroke-opacity:1"
   points="284.521,218.632 284.521,170.204 236.093,218.632 "
   id="polygon485287" />
	<polygon
   style="fill:#82d9c8;stroke:none;stroke-opacity:1"
   points="12.479,218.632 60.907,218.632 12.479,170.204 "
   id="polygon485289" />
	<polygon
   style="fill:#82d9c8;stroke:none;stroke-opacity:1"
   points="284.521,126.796 284.521,78.368 236.093,78.368 "
   id="polygon485291" />
	<path
   style="fill:#d5f5e6;stroke:none;stroke-opacity:1"
   d="m 148.5,94.092 c -30.001,0 -54.408,24.407 -54.408,54.408 0,30.001 24.407,54.408 54.408,54.408 30.001,0 54.408,-24.407 54.408,-54.408 0,-30.001 -24.407,-54.408 -54.408,-54.408 z"
   id="path485293" />
	<path
   style="fill:#c6e5d5;stroke:none;stroke-opacity:1"
   d="m 202.908,148.5 c 0,-29.778 -24.048,-54.032 -53.743,-54.392 v 108.783 c 29.695,-0.359 53.743,-24.613 53.743,-54.391 z"
   id="path485295" />
</g></g></svg>
