<?xml version="1.0" encoding="UTF-8" standalone="no"?>
<!-- Created with Inkscape (http://www.inkscape.org/) -->

<svg
   width="13.229167mm"
   height="13.229166mm"
   viewBox="0 0 13.229167 13.229166"
   version="1.1"
   id="svg20458"
   xml:space="preserve"
   inkscape:version="1.2.2 (732a01da63, 2022-12-09)"
   sodipodi:docname="stage.svg"
   inkscape:export-filename="options.svg"
   inkscape:export-xdpi="1536"
   inkscape:export-ydpi="1536"
   xmlns:inkscape="http://www.inkscape.org/namespaces/inkscape"
   xmlns:sodipodi="http://sodipodi.sourceforge.net/DTD/sodipodi-0.dtd"
   xmlns="http://www.w3.org/2000/svg"
   xmlns:svg="http://www.w3.org/2000/svg"><sodipodi:namedview
     id="namedview20460"
     pagecolor="#ffffff"
     bordercolor="#000000"
     borderopacity="0.25"
     inkscape:showpageshadow="2"
     inkscape:pageopacity="0.0"
     inkscape:pagecheckerboard="0"
     inkscape:deskcolor="#d1d1d1"
     inkscape:document-units="mm"
     showgrid="false"
     inkscape:zoom="0.35355339"
     inkscape:cx="14297.699"
     inkscape:cy="-14678.123"
     inkscape:window-width="1920"
     inkscape:window-height="991"
     inkscape:window-x="-9"
     inkscape:window-y="-9"
     inkscape:window-maximized="1"
     inkscape:current-layer="layer1"
     showguides="false" /><defs
     id="defs20455" /><g
     inkscape:label="Vrstva 1"
     inkscape:groupmode="layer"
     id="layer1"
     transform="translate(-6.6145832,-6.6145833)"><g
       style="fill:#000000"
       id="g55981"
       transform="matrix(0.02875568,0,0,0.02875568,6.6145834,6.6145854)"
       inkscape:export-filename=".\options.svg"
       inkscape:export-xdpi="25.399975"
       inkscape:export-ydpi="25.399975"><g
         id="g55961">
	<g
   id="g55939">
		<path
   d="M 40.003,69.679 C 17.914,69.679 0,87.592 0,109.697 c 0,22.089 17.914,39.987 40.003,39.987 22.089,0 40.003,-17.898 40.003,-39.987 0,-22.105 -17.914,-40.018 -40.003,-40.018 z"
   id="path55937" />
	</g>
	<g
   id="g55943">
		<path
   d="M 40.003,190.032 C 17.914,190.032 0,207.93 0,230.035 c 0,22.089 17.914,40.002 40.003,40.002 22.089,0 40.003,-17.913 40.003,-40.002 0,-22.105 -17.914,-40.003 -40.003,-40.003 z"
   id="path55941" />
	</g>
	<g
   id="g55947">
		<path
   d="M 40.003,310.37 C 17.914,310.37 0,328.283 0,350.372 c 0,22.089 17.914,40.003 40.003,40.003 22.089,0 40.003,-17.914 40.003,-40.003 0,-22.089 -17.914,-40.002 -40.003,-40.002 z"
   id="path55945" />
	</g>
	<g
   id="g55951">
		<path
   d="M 429.973,79.601 H 145.419 c -16.611,0 -30.081,13.47 -30.081,30.096 0,16.612 13.469,30.081 30.081,30.081 h 284.554 c 16.61,0 30.081,-13.469 30.081,-30.081 0,-16.626 -13.471,-30.096 -30.081,-30.096 z"
   id="path55949" />
	</g>
	<g
   id="g55955">
		<path
   d="M 429.973,199.939 H 145.419 c -16.611,0 -30.081,13.469 -30.081,30.096 0,16.612 13.469,30.081 30.081,30.081 h 284.554 c 16.61,0 30.081,-13.469 30.081,-30.081 0,-16.627 -13.471,-30.096 -30.081,-30.096 z"
   id="path55953" />
	</g>
	<g
   id="g55959">
		<path
   d="M 429.973,320.291 H 145.419 c -16.611,0 -30.081,13.469 -30.081,30.081 0,16.611 13.469,30.08 30.081,30.08 h 284.554 c 16.61,0 30.081,-13.469 30.081,-30.08 0,-16.613 -13.471,-30.081 -30.081,-30.081 z"
   id="path55957" />
	</g>
</g></g><rect
       style="fill:none;fill-opacity:1;stroke:#454545;stroke-width:0.189362;stroke-linecap:round;stroke-linejoin:bevel;stroke-miterlimit:7.9;stroke-dasharray:none;stroke-dashoffset:0;stroke-opacity:1"
       id="rect153114"
       width="26.26897"
       height="26.268974"
       x="0.094681002"
       y="0.094681002"
       sodipodi:insensitive="true" /></g><style
     type="text/css"
     id="style13890">
	.st0{fill:none;stroke:#000000;stroke-width:2;stroke-linecap:round;stroke-linejoin:round;stroke-miterlimit:10;}
</style></svg>
