<?xml version="1.0" encoding="UTF-8" standalone="no"?>
<!-- Created with Inkscape (http://www.inkscape.org/) -->

<svg
   width="13.229167mm"
   height="13.229166mm"
   viewBox="0 0 13.229167 13.229166"
   version="1.1"
   id="svg20458"
   xml:space="preserve"
   inkscape:version="1.2.2 (732a01da63, 2022-12-09)"
   sodipodi:docname="stage.svg"
   inkscape:export-filename="home.svg"
   inkscape:export-xdpi="1536"
   inkscape:export-ydpi="1536"
   xmlns:inkscape="http://www.inkscape.org/namespaces/inkscape"
   xmlns:sodipodi="http://sodipodi.sourceforge.net/DTD/sodipodi-0.dtd"
   xmlns="http://www.w3.org/2000/svg"
   xmlns:svg="http://www.w3.org/2000/svg"><sodipodi:namedview
     id="namedview20460"
     pagecolor="#ffffff"
     bordercolor="#000000"
     borderopacity="0.25"
     inkscape:showpageshadow="2"
     inkscape:pageopacity="0.0"
     inkscape:pagecheckerboard="0"
     inkscape:deskcolor="#d1d1d1"
     inkscape:document-units="mm"
     showgrid="false"
     inkscape:zoom="0.35355339"
     inkscape:cx="14297.699"
     inkscape:cy="-14678.123"
     inkscape:window-width="1920"
     inkscape:window-height="991"
     inkscape:window-x="-9"
     inkscape:window-y="-9"
     inkscape:window-maximized="1"
     inkscape:current-layer="layer1"
     showguides="false" /><defs
     id="defs20455" /><g
     inkscape:label="Vrstva 1"
     inkscape:groupmode="layer"
     id="layer1"
     transform="translate(-6.6145832,-6.6145833)"><path
       d="m 19.429581,15.140319 -4.290829,4.289823 a 1.0871262,1.0871262 0 0 1 -1.531964,0 L 7.4673151,13.29067 a 2.9592907,2.9592907 0 0 1 -0.753798,-1.849676 l 0.04223,-3.5987051 a 1.1154775,1.1154775 0 0 1 1.096883,-1.094899 l 3.5879889,-0.03426 a 2.9719997,2.9719997 0 0 1 1.849623,0.755729 l 6.139526,6.1395261 a 1.0871262,1.0871262 0 0 1 0,1.531937 z M 9.6376131,8.8962039 a 0.77428416,0.77428416 0 1 0 -0.774276,0.774304 0.77428416,0.77428416 0 0 0 0.774276,-0.774304 z m 6.4464959,7.1835981 a 0.54160788,0.54160788 0 0 0 0,-0.766472 l -0.392033,-0.39198 a 2.4734078,2.4734078 0 0 0 0.342212,-0.811477 1.5299933,1.5299933 0 0 0 -0.388144,-1.469364 1.5544341,1.5544341 0 0 0 -0.994278,-0.449659 2.0921314,2.0921314 0 0 0 -0.733214,0.08311 h -0.0053 a 2.3893314,2.3893314 0 0 0 -0.576791,0.270775 h -0.0053 a 2.6171195,2.6171195 0 0 0 -0.428176,0.348985 1.9973011,1.9973011 0 0 1 -0.253179,0.21508 1.2611446,1.2611446 0 0 1 -0.321654,0.166238 h -0.0053 a 0.81632233,0.81632233 0 0 1 -0.330386,0.03686 h -0.0053 a 0.5181447,0.5181447 0 0 1 -0.307022,-0.132927 0.52694337,0.52694337 0 0 1 -0.103585,-0.522023 1.5055526,1.5055526 0 0 1 0.400765,-0.694161 1.5954946,1.5954946 0 0 1 0.224869,-0.161317 l 0.02942,-0.01826 a 1.743117,1.743117 0 0 1 0.314775,-0.151553 0.9209289,0.9209289 0 0 1 0.317738,-0.05861 0.5416155,0.5416155 0 0 0 0,-1.083231 v 0 a 2.0119657,2.0119657 0 0 0 -0.700987,0.129037 2.7823392,2.7823392 0 0 0 -0.517181,0.254212 l -0.0093,0.0061 -0.389044,-0.391054 a 0.5423204,0.5423204 0 1 0 -0.766472,0.767424 l 0.379334,0.378328 a 2.456788,2.456788 0 0 0 -0.339276,0.785019 1.6072262,1.6072262 0 0 0 0.39497,1.526116 1.5857183,1.5857183 0 0 0 0.961047,0.445797 1.8790078,1.8790078 0 0 0 0.786924,-0.08699 2.3189419,2.3189419 0 0 0 0.61005,-0.311891 3.0717183,3.0717183 0 0 0 0.389149,-0.331417 1.5339039,1.5339039 0 0 1 0.250243,-0.203332 1.3501091,1.3501091 0 0 1 0.31287,-0.147611 1.000117,1.000117 0 0 1 0.340175,-0.03688 0.47415125,0.47415125 0 0 1 0.301149,0.13589 c 0.049,0.04797 0.161263,0.161343 0.0948,0.477122 a 1.5231499,1.5231499 0 0 1 -0.403755,0.712709 2.4206156,2.4206156 0 0 1 -0.273738,0.214074 1.6883696,1.6883696 0 0 1 -0.299164,0.153511 0.67163289,0.67163289 0 0 1 -0.312844,0.0412 0.54204626,0.54204626 0 1 0 -0.07821,1.081247 c 0.05109,0.0053 0.100727,0.0053 0.148617,0.0053 a 1.6844591,1.6844591 0 0 0 0.669661,-0.130995 2.6180971,2.6180971 0 0 0 0.495697,-0.263975 l 0.0098,-0.0066 0.388091,0.389175 a 0.54258551,0.54258551 0 0 0 0.765492,0 z"
       id="path15831"
       style="fill:#cf2626;fill-opacity:1;stroke:#ffcd06;stroke-width:0.197045;stroke-dasharray:none;stroke-opacity:1"
       inkscape:export-filename=".\path15831.svg"
       inkscape:export-xdpi="25.40155"
       inkscape:export-ydpi="25.40155" /><rect
       style="fill:none;fill-opacity:1;stroke:#454545;stroke-width:0.189362;stroke-linecap:round;stroke-linejoin:bevel;stroke-miterlimit:7.9;stroke-dasharray:none;stroke-dashoffset:0;stroke-opacity:1"
       id="rect153114"
       width="26.26897"
       height="26.268974"
       x="0.094681002"
       y="0.094681002"
       sodipodi:insensitive="true" /></g><style
     type="text/css"
     id="style13890">
	.st0{fill:none;stroke:#000000;stroke-width:2;stroke-linecap:round;stroke-linejoin:round;stroke-miterlimit:10;}
</style></svg>
