<?xml version="1.0" encoding="UTF-8" standalone="no"?>
<!-- Created with Inkscape (http://www.inkscape.org/) -->

<svg
   width="13.229167mm"
   height="13.229166mm"
   viewBox="0 0 13.229167 13.229166"
   version="1.1"
   id="svg20458"
   xml:space="preserve"
   inkscape:version="1.2.2 (732a01da63, 2022-12-09)"
   sodipodi:docname="stage.svg"
   inkscape:export-filename="sell-S.svg"
   inkscape:export-xdpi="1536"
   inkscape:export-ydpi="1536"
   xmlns:inkscape="http://www.inkscape.org/namespaces/inkscape"
   xmlns:sodipodi="http://sodipodi.sourceforge.net/DTD/sodipodi-0.dtd"
   xmlns="http://www.w3.org/2000/svg"
   xmlns:svg="http://www.w3.org/2000/svg"><sodipodi:namedview
     id="namedview20460"
     pagecolor="#ffffff"
     bordercolor="#000000"
     borderopacity="0.25"
     inkscape:showpageshadow="2"
     inkscape:pageopacity="0.0"
     inkscape:pagecheckerboard="0"
     inkscape:deskcolor="#d1d1d1"
     inkscape:document-units="mm"
     showgrid="false"
     inkscape:zoom="0.35355339"
     inkscape:cx="14297.699"
     inkscape:cy="-14678.123"
     inkscape:window-width="1920"
     inkscape:window-height="991"
     inkscape:window-x="-9"
     inkscape:window-y="-9"
     inkscape:window-maximized="1"
     inkscape:current-layer="layer1"
     showguides="false" /><defs
     id="defs20455" /><g
     inkscape:label="Vrstva 1"
     inkscape:groupmode="layer"
     id="layer1"
     transform="translate(-6.6145832,-6.6145833)"><path
       d="m 19.522725,15.168818 -4.355522,4.354488 a 1.1035142,1.1035142 0 0 1 -1.555048,0 L 7.380134,13.291262 a 3.0039007,3.0039007 0 0 1 -0.7651557,-1.87753 l 0.04286,-3.6529629 a 1.1322929,1.1322929 0 0 1 1.1134325,-1.111422 l 3.6420632,-0.03476 a 3.0168013,3.0168013 0 0 1 1.877503,0.767114 l 6.232074,6.2320729 a 1.1035142,1.1035142 0 0 1 0,1.555048 z M 9.5831614,8.8305741 A 0.78595614,0.78595614 0 1 0 8.7972106,9.6165509 0.78595614,0.78595614 0 0 0 9.5831614,8.8305741 Z m 6.5436546,7.2918779 a 0.54977237,0.54977237 0 0 0 0,-0.778014 L 15.72888,14.946529 a 2.5106933,2.5106933 0 0 0 0.347377,-0.823705 1.5530573,1.5530573 0 0 0 -0.39402,-1.491499 1.5778665,1.5778665 0 0 0 -1.009246,-0.456459 2.1236694,2.1236694 0 0 0 -0.744281,0.08437 h -0.0053 a 2.4253496,2.4253496 0 0 0 -0.585488,0.274859 h -0.0053 a 2.6565715,2.6565715 0 0 0 -0.434632,0.354256 2.0274096,2.0274096 0 0 1 -0.257001,0.218321 1.2801559,1.2801559 0 0 1 -0.326503,0.168715 h -0.0053 a 0.82862803,0.82862803 0 0 1 -0.335365,0.03744 h -0.0053 a 0.5259555,0.5259555 0 0 1 -0.311661,-0.134956 0.53488683,0.53488683 0 0 1 -0.105139,-0.529876 1.5282481,1.5282481 0 0 1 0.406825,-0.704649 1.619546,1.619546 0 0 1 0.228243,-0.163741 l 0.02987,-0.01852 a 1.7693937,1.7693937 0 0 1 0.319518,-0.15382 0.93481149,0.93481149 0 0 1 0.322508,-0.0595 0.54977309,0.54977309 0 0 0 0,-1.099543 v 0 a 2.0422952,2.0422952 0 0 0 -0.711528,0.130961 2.8242819,2.8242819 0 0 0 -0.524982,0.258059 l -0.0095,0.0061 -0.394919,-0.396957 a 0.55049565,0.55049565 0 1 0 -0.778041,0.778993 l 0.385052,0.38402 a 2.493823,2.493823 0 0 0 -0.344388,0.796877 1.6314544,1.6314544 0 0 0 0.400926,1.549096 1.6096223,1.6096223 0 0 0 0.97554,0.452516 1.907333,1.907333 0 0 0 0.798782,-0.08829 2.353899,2.353899 0 0 0 0.619247,-0.316581 3.118023,3.118023 0 0 0 0.395026,-0.336425 1.5570268,1.5570268 0 0 1 0.254011,-0.206415 1.3704614,1.3704614 0 0 1 0.31756,-0.149825 1.0151933,1.0151933 0 0 1 0.34534,-0.03741 0.48129889,0.48129889 0 0 1 0.305682,0.137919 c 0.04974,0.04868 0.163688,0.163768 0.09622,0.484318 a 1.5461107,1.5461107 0 0 1 -0.409842,0.723433 2.4571054,2.4571054 0 0 1 -0.277849,0.217316 1.7138211,1.7138211 0 0 1 -0.30367,0.15583 0.68175746,0.68175746 0 0 1 -0.317587,0.0418 0.55021738,0.55021738 0 1 0 -0.07937,1.097559 c 0.05185,0.0053 0.102229,0.0053 0.150856,0.0053 a 1.7098516,1.7098516 0 0 0 0.679754,-0.132972 2.6575638,2.6575638 0 0 0 0.503154,-0.267954 l 0.0098,-0.0069 0.393915,0.395026 a 0.55076477,0.55076477 0 0 0 0.777061,0 z"
       id="path15831-3"
       style="fill:#000000;fill-opacity:1;stroke-width:0.992366"
       inkscape:export-filename=".\path15831-3.svg"
       inkscape:export-xdpi="25.40155"
       inkscape:export-ydpi="25.40155" /><rect
       style="fill:none;fill-opacity:1;stroke:#454545;stroke-width:0.189362;stroke-linecap:round;stroke-linejoin:bevel;stroke-miterlimit:7.9;stroke-dasharray:none;stroke-dashoffset:0;stroke-opacity:1"
       id="rect153114"
       width="26.26897"
       height="26.268974"
       x="0.094681002"
       y="0.094681002"
       sodipodi:insensitive="true" /></g><style
     type="text/css"
     id="style13890">
	.st0{fill:none;stroke:#000000;stroke-width:2;stroke-linecap:round;stroke-linejoin:round;stroke-miterlimit:10;}
</style></svg>
