<?xml version="1.0" encoding="UTF-8" standalone="no"?>
<!-- Created with Inkscape (http://www.inkscape.org/) -->

<svg
   width="41.658936mm"
   height="50.41748mm"
   viewBox="0 0 41.658936 50.41748"
   version="1.1"
   id="svg20458"
   xml:space="preserve"
   inkscape:version="1.2.2 (732a01da63, 2022-12-09)"
   sodipodi:docname="stage.svg"
   inkscape:export-filename="panel2.svg"
   inkscape:export-xdpi="23.161549"
   inkscape:export-ydpi="23.161549"
   xmlns:inkscape="http://www.inkscape.org/namespaces/inkscape"
   xmlns:sodipodi="http://sodipodi.sourceforge.net/DTD/sodipodi-0.dtd"
   xmlns="http://www.w3.org/2000/svg"
   xmlns:svg="http://www.w3.org/2000/svg"><sodipodi:namedview
     id="namedview20460"
     pagecolor="#ffffff"
     bordercolor="#000000"
     borderopacity="0.25"
     inkscape:showpageshadow="2"
     inkscape:pageopacity="0.0"
     inkscape:pagecheckerboard="0"
     inkscape:deskcolor="#d1d1d1"
     inkscape:document-units="mm"
     showgrid="false"
     inkscape:zoom="0.16"
     inkscape:cx="13853.125"
     inkscape:cy="-14984.375"
     inkscape:window-width="1920"
     inkscape:window-height="991"
     inkscape:window-x="-9"
     inkscape:window-y="-9"
     inkscape:window-maximized="1"
     inkscape:current-layer="layer1" /><defs
     id="defs20455" /><g
     inkscape:label="Vrstva 1"
     inkscape:groupmode="layer"
     id="layer1"
     transform="translate(-4042.5645,4048.8898)"><g
       id="g490159"
       transform="translate(-18.706869,10.025228)"><path
         d="m 4102.0114,-4032.213 c 0.2375,-1.4209 1.2209,-6.4796 0.325,-11.4467 -0.5708,-3.1627 -2.546,-7.2922 -4.7503,-9.3798 -4.2545,-4.0295 -10.1799,-5.6671 -15.6303,-5.6671 -5.4504,0 -11.08,1.6376 -15.3345,5.6671 -2.2043,2.0876 -4.1795,6.2213 -4.7503,9.3798 -0.896,4.9671 0.087,10.0258 0.325,11.4467 0.3208,1.9376 -0.5292,4.0795 -0.6959,6.0088 -0.1792,2.1001 0.8125,3.7294 2.5877,4.8837 1.4793,0.9625 3.2044,1.4709 4.8045,2.2168 1.9043,0.8876 0.175,4.092 0.8792,5.7088 0.3542,0.8167 1.1293,1.3792 1.9293,1.7751 1.0168,0.5084 2.1877,0.8251 3.292,0.5459 -0.1667,0.042 0.3166,1.0125 0.9542,1.4084 0.5834,0.3584 1.3042,0.7251 1.9751,0.8709 1.3335,0.2917 2.6544,-0.2 3.4794,-0.6251 a 1.5292794,1.5292794 0 0 1 1.421,0 c 0.8251,0.4251 2.146,0.9168 3.4794,0.6251 1.0043,-0.2209 1.9001,-0.8167 2.5419,-1.596 0.3,-0.3666 0.7667,-0.5667 1.2376,-0.5333 1.4001,0.092 3.5419,-0.4792 4.4711,-2.5919 0.5209,-1.1751 0,-2.5585 0.3417,-3.7878 0.5875,-2.0834 2.6377,-2.6001 4.2878,-3.5711 2.1877,-1.2834 3.4795,-2.721 3.5378,-4.7461 0.058,-2.1502 -0.9834,-4.9296 -0.7084,-6.5922 z"
         fill="url(#IconifyId17ecdb2904d178eab20356)"
         id="path485512"
         style="fill:#e9f2f5;fill-opacity:1;stroke:#8b8b8b;stroke-width:0.416698;stroke-opacity:1" /><ellipse
         transform="rotate(-75.001)"
         cx="4950.0659"
         cy="2889.3784"
         rx="5.7254224"
         ry="5.2045503"
         fill="#424242"
         id="ellipse485514"
         style="stroke-width:0.416698" /><ellipse
         transform="rotate(-14.999)"
         cx="4996.6772"
         cy="-2837.1519"
         rx="5.2045503"
         ry="5.7254224"
         fill="#424242"
         id="ellipse485516"
         style="stroke-width:0.416698" /><path
         d="m 4078.7555,-4024.2416 c 0,-1.8459 1.496,-6.4213 3.3461,-6.4213 1.8502,0 3.3461,4.5712 3.3461,6.4213 0,3.7545 -3.3461,1.196 -3.3461,1.196 0,0 -3.3461,2.7752 -3.3461,-1.196 z"
         fill="#424242"
         id="path485518"
         style="stroke-width:0.416698" /><path
         d="m 4073.1931,-4010.7858 c -0.5,-0.096 -0.9751,-0.25 -1.4001,-0.5626 0.3542,-0.083 0.7084,-0.175 1.0334,-0.3333 0.8084,-0.4042 0.7876,-1.0543 0.9668,-1.8543 0.1541,-0.7001 0.3041,-1.4001 0.4833,-2.096 0.1209,-0.4667 0.4292,-0.9126 0.9084,-0.8459 0.6001,0.083 0.6584,0.5083 0.5584,1.1542 -0.096,0.6001 -0.572,4.5317 -0.572,4.5359 -0.033,0.1792 -1.4865,0.081 -1.6032,0.065 -0.125,-0.017 -0.25,-0.037 -0.375,-0.062 z"
         fill="#8abfd1"
         id="path485520"
         style="stroke-width:0.416698"
         sodipodi:nodetypes="scccssccsss" /><path
         d="m 4091.2816,-4010.6884 c 0.5,-0.096 0.9751,-0.25 1.4001,-0.5626 -0.3542,-0.083 -0.7084,-0.175 -1.0334,-0.3333 -0.8084,-0.4042 -0.7876,-1.0543 -0.9668,-1.8543 -0.1541,-0.7001 -0.3041,-1.4001 -0.4833,-2.096 -0.1209,-0.4667 -0.4292,-0.9126 -0.9084,-0.8459 -0.6001,0.083 -0.6584,0.5083 -0.5584,1.1542 0.096,0.6001 0.572,4.5317 0.572,4.5359 0.033,0.1792 1.4865,0.081 1.6032,0.065 0.125,-0.017 0.25,-0.037 0.375,-0.062 z"
         fill="#8abfd1"
         id="path485520-3"
         style="stroke-width:0.416698"
         sodipodi:nodetypes="scccssccsss" /><path
         d="m 4080.21,-4008.7125 c 0,0 0.9459,-1.2751 0.9792,-2.146 0.062,-1.5543 0.15,-3.6544 0.15,-4.8712 0,-0.4834 0.2917,-0.8542 0.7793,-0.8542 0.4833,0 0.7542,0.325 0.7542,0.8084 0,0.021 0.1125,2.846 0.1125,4.8128 0,0.9084 1.0167,2.246 1.0167,2.246 -0.4167,-0.1875 -1.1459,-0.55 -1.8959,-0.5167 -0.9501,0.046 -1.896,0.5209 -1.896,0.5209 z"
         fill="#8abfd1"
         id="path485524"
         style="stroke-width:0.416698" /></g></g></svg>
