<?xml version="1.0" encoding="utf-8"?>
<!-- Generator: Adobe Illustrator 18.0.0, SVG Export Plug-In . SVG Version: 6.00 Build 0)  -->
<!DOCTYPE svg PUBLIC "-//W3C//DTD SVG 1.0//EN" "http://www.w3.org/TR/2001/REC-SVG-20010904/DTD/svg10.dtd">
<svg version="1.0" id="Layer_1" xmlns="http://www.w3.org/2000/svg" xmlns:xlink="http://www.w3.org/1999/xlink" x="0px" y="0px"
	 viewBox="0 0 1400 980" enable-background="new 0 0 1400 980" xml:space="preserve">
<g>
	<polygon fill="#CC5A5F" points="0,0 0,190.6 1239,0 	"/>
	<path fill="#BE5459" d="M1239,0L0,190.6v33.8c91.6-15.6,187.1-33.7,284.1-23.8c101.9,10.3,198.8,27.4,290.8,50
		c74.3-20.8,148.6-41.5,223.2-65.5c162-51,312-117,474-169c17.4-5.5,34.7-10.3,51.9-16H1239z"/>
</g>
<path fill="#BE5459" d="M1383.1,0h-31.3c-30,36.4-60.8,72.6-97.8,106c-76,68-145,135-218,207c-25.5,25.5-52.3,49.5-79.5,72.8
	c65.8,31,128.3,64.8,187.4,100.6c71.5-141,145.2-280.7,211.1-427.3C1364.1,39,1373.5,19.4,1383.1,0z"/>
<path fill="#CC5A5F" d="M1351.8,0h-27.9c-17.2,5.7-34.5,10.5-51.9,16c-162,52-312,118-474,169c-74.5,23.9-148.9,44.7-223.2,65.5
	c138.1,33.9,265.2,80.3,381.7,135.3c27.2-23.3,54-47.2,79.5-72.8c73-72,142-139,218-207C1291,72.6,1321.8,36.4,1351.8,0z"/>
<path fill="#CC5A5F" d="M1340,361c14-72,35-135,48-207c3.9-20.7,8.1-41,12-61V0h-16.9c-9.6,19.4-18.9,39-28.1,59
	c-65.9,146.7-139.5,286.4-211.1,427.3c55,33.3,107.2,68.3,156.6,104.5c1.2-10.6,1.1-21.2,3.4-31.8C1316,491,1326,430,1340,361z"/>
<path fill="#BE5459" d="M1400,93c-3.9,20.1-8.1,40.3-12,61c-13,72-34,135-48,207c-14,69-24,130-36,198c-2.3,10.6-2.3,21.2-3.4,31.8
	c34.5,25.2,67.6,51,99.4,77.2V93z"/>
<path fill="#E87564" d="M517.8,181.9c-0.2,0.7-0.4,1.1-0.4,1.1S517.6,182.6,517.8,181.9z"/>
<path fill="#E87564" d="M462.3,130.9c-8.3,3.4-14.2,7.9-14.2,7.9S454.6,135.7,462.3,130.9z"/>
<path fill="#E87564" d="M334,144c-18-35-65-46-102-42c4-15-4-23-19-19c1.2-5.8,1-11.7,0.8-17.5c-1.8-4.9-1.9-10.5-4.8-12.5
	c-6-6-20-9-26-1c2-5,2-11,0-16c-5-9-15-10-26-9c1-4-5-6-4-11c-3,0-5-3-5-4c-2.4-4.1-5-8.1-7.7-12H0l1.2,105.8
	c118.7,8.6,237,30,334.8,52C336.7,153,336.1,148.2,334,144z"/>
<path fill="#DB6F5F" d="M549.7,165c-18.7-17.9-29.8,10.8-31.9,16.9c-0.2,0.7-0.4,1.1-0.4,1.1s0.1-0.4,0.4-1.1
	c1.2-4.3,4.1-20.7-14.1-43.1c-12.5-15.4-29.5-12.7-41.4-7.9c-7.7,4.7-14.2,7.9-14.2,7.9s5.8-4.5,14.2-7.9
	c10.7-6.6,23.8-16.3,25.4-25.2C490.3,90.6,457,97,457,97s0,0,41.2-26S472.5,0,472.5,0H279.4c-14.1,12.3-30.1,27.3-27.4,48
	c-18-5-35-3-38,18c-0.1-0.2-0.1-0.3-0.2-0.5c0.2,5.8,0.4,11.7-0.8,17.5c15-4,23,4,19,19c37-4,84,7,102,42c2.1,4.2,2.7,9,2,13.8
	c137.9,31.1,235.1,63.6,235.1,63.6S570.6,185,549.7,165z"/>
<path fill="#00A8D7" d="M162,213c24-5,33-33,40-56c20-3,44-3,58,12c6,6,2,14-8,16c0,0,0,3,1,4c21,7,45,15,64,7c17-8,37-5,55-7
	c-3,18-40,11-52,25c-5,5,7,7,11,7c71,2,141-1,213,7c9,1,25,6,31,17c4,6,30-5,26,8c0,2-9,4-9,8c0,5,8,5,12,5c41,4,79,21,120,23
	c0-1,0-2,0-3c-4,0-7-3-7-7c23,2,46-4,70,6c2.6,1.1,5.7,1.3,8.9,1.2C555.3,192.8,278.1,127.4,1.2,105.8v95.9
	C53.7,214.7,107.5,223.7,162,213z"/>
<path fill="#00BFF3" d="M795.9,286.2c-3.2,0.1-6.2,0-8.9-1.2c-24-10-47-4-70-6c0,4,3,7,7,7c0,1,0,2,0,3c-41-2-79-19-120-23
	c-4,0-12,0-12-5c0-4,9-6,9-8c4-13-22-2-26-8c-6-11-22-16-31-17c-72-8-142-5-213-7c-4,0-16-2-11-7c12-14,49-7,52-25c-18,2-38-1-55,7
	c-19,8-43,0-64-7c-1-1-1-4-1-4c10-2,14-10,8-16c-14-15-38-15-58-12c-7,23-16,51-40,56c-54.5,10.7-108.3,1.7-160.8-11.3V980h1400V668
	C1273.6,521.2,1056.2,387.2,795.9,286.2z"/>
<path fill="#00A8D7" d="M1256.7,956.1l77.7,12c2.6,0.6,5.8-1.5,6.5-4.3l-6.9-118.4c0.3-1.2,0.1-2.4-0.6-3.2l0,0
	c-1.7-2.1-5.6-1.3-7.5,1.6l-70.9,106.5C1253.5,952.7,1254.3,955.5,1256.7,956.1z"/>
<path fill="#00A8D7" d="M1.2,427.3c0,0,252.8,186.9,244.7,240.2c-8.1,53.3-326.1,28.9-155.1,128.1s231.8,104.7,199.9,124.5
	S427.3,980,427.3,980H1.2V427.3z"/>
<path fill="#00A8D7" d="M347.1,574.7L347.1,574.7c7.5,4.1,9.5,14,4.1,20.6L321.1,632c-4.2,5.1-11.5,6.5-17.2,3.2l-27-15.3
	c-10.1-5.7-8.9-20.6,1.9-24.6l57.2-21.4C339.5,572.6,343.6,572.9,347.1,574.7z"/>
<path fill="#00A8D7" d="M496,842.6c39.5,19.4,61.5,38.6,127,52c49.2,10.1,130.9-9.1,165.2-45.8l0,0l90.2-105l394.8,66.2
	c22.1,3.4,42-13.7,42-36v-18.3L952.9,631.1l49.2-85.5l-39.3-9.3l-189,37.8L394.6,371.5l-18.3,9.5c-11,5.7-12.8,20.7-3.5,28.9
	l273.6,212.5l-151.9,79.1C437.1,731.4,437.8,814.1,496,842.6z"/>
<g>
	<path fill="#6D6F72" d="M462.7,404.6c0,0,34.4-23,62-29c28.4-6.2,72.8,36.2,72.8,36.2s-26.6,50.4-93.5,64.8L462.7,404.6z"/>
	<path fill="#6D6F72" d="M1137.4,699.1l49.6-80.5l86.1,22.7c0,0-15.3,86.1-27.1,100.2S1137.4,699.1,1137.4,699.1z"/>
	<g>
		<path fill="#BCBEC0" d="M723.9,317.7L357,149c0,0-61.7-14.1-42.2,58.5l295.3,159L723.9,317.7z"/>
		<path fill="#E76720" d="M314.8,207.5c1.2,4.5,2.7,9.2,4.5,14.4c5.9,16.4,20,33.6,39.1,50.9c21.4-2.6,42.9-4.4,64.2-7.2
			L314.8,207.5z"/>
		<path fill="#F47B20" d="M358.3,272.7c6.3,5.7,13.1,11.3,20.4,17c23.2-3.6,46.3-7.2,69.5-10.4l-25.6-13.8
			C401.3,268.3,379.8,270.2,358.3,272.7z"/>
		<path fill="#E76720" d="M448.2,279.3c-23.2,3.2-46.3,6.8-69.5,10.4c7.7,6,15.9,12,24.5,17.9c21.4-2.8,42.8-6.9,64.8-8.5
			c5.3-0.3,10.6-0.4,16-0.4L448.2,279.3z"/>
		<path fill="#F47B20" d="M484,298.6c-5.3,0-10.6,0.1-16,0.4c-22,1.6-43.4,5.7-64.8,8.5c13.5,9.3,28,18.5,42.7,27.3
			c35.8-0.5,71.8,0.8,107.5,1.1L484,298.6z"/>
		<path fill="#E76720" d="M755.3,332.1l-31.4-14.4l-113.8,48.8l-56.7-30.5c-35.8-0.3-71.7-1.6-107.5-1.1
			c84.1,50.3,178.1,89.5,178.1,89.5L755.3,332.1z"/>
	</g>
	<path fill="#F7951D" d="M1097,219.7l3.5-6.7l-37.1-10.7c-0.6-0.2-1.3-0.1-1.8,0.2l-3.5,1.7c-1.8,0.8-2,3.3-0.4,4.4l5.2,3.8
		C1072.2,206.5,1085.2,214.2,1097,219.7z"/>
	<path fill="#6D6F72" d="M1097,219.7c-11.8-5.6-24.8-13.2-34.2-7.4l27.7,20.2L1097,219.7z"/>
	<path fill="#AFB1B3" d="M1056,426c-57,61-98,127-159,184c-6,6-10,14-15,21c-18.9,23.5-41.2,40.1-65.5,54.4l27.1,43.8
		C982,657,1082.8,477.9,1098.4,366.5c-6.7,13.4-14.3,26.5-22.4,39.5C1071,414,1063,419,1056,426z"/>
	<path fill="#BCBEC0" d="M1062.7,272.8c-178.8-35.8-433.9,108.7-433.9,108.7l187.7,303.9c24.3-14.3,46.6-31,65.5-54.4
		c5-7,9-15,15-21c61-57,102-123,159-184c7-7,15-12,20-20c8.1-13,15.7-26.2,22.4-39.5C1105.5,315.9,1095.1,279.3,1062.7,272.8z"/>
	<path fill="#E76720" d="M932,632c-50,47-123,51-188,43c-46-5-86-28-119-62c-29-30-55-63-58-105c0-1-3-2-3-3
		c-0.6-12.1-0.5-24.1-0.3-36.2c-9,23.2-14,48.3-14,74.7c0,113.5,92,205.6,205.6,205.6c88.9,0,164.6-56.4,193.3-135.4
		C943.5,620.3,938.2,626.5,932,632z"/>
	<path fill="#F47B20" d="M564,505c0,1,3,2,3,3c3,42,29,75,58,105c33,34,73,57,119,62c65,8,138,4,188-43c6.2-5.5,11.5-11.7,16.6-18.3
		c8-21.9,12.3-45.5,12.3-70.2c0-113.5-92-205.6-205.6-205.6c-87.2,0-161.7,54.3-191.6,130.8C563.5,480.9,563.4,492.9,564,505z"/>
	<path fill="#E76720" d="M944.7,463.6l-117.2,95.7l-38.5,115.3L953.8,490C953.8,490,950.9,476.9,944.7,463.6z"/>
	<path fill="#FCB31A" d="M929.4,449.2l-101.8,94.3L805,504l117-67.1C927.5,438.9,931.7,441.8,929.4,449.2z"/>
	<path fill="#6D6F72" d="M972.1,390.7c0,0,97-73.1,57-103c-40-29.9-174.3,16-174.3,16L972.1,390.7z"/>
	<circle fill="#6D6F72" cx="714.6" cy="573.2" r="125.9"/>
	<g>
		<path fill="#BCBEC0" d="M677.3,541.5l63.9-95.3c10.3-15.3,28.3-23.6,46.6-21.4l36.5,4.3c11.5,1.4,16.5,15.4,8.4,23.7L729.2,559.3
			L677.3,541.5z"/>
		<path fill="#BCBEC0" d="M641.2,606l-57.8-99.1c-9.3-16-8.9-35.8,1.1-51.3l19.8-30.9c6.3-9.8,21.1-8.1,25,2.8l50.6,139.7L641.2,606
			z"/>
		<path fill="#BCBEC0" d="M707.8,577.8l114.4-9.7c18.4-1.6,36.1,7.3,45.9,23l19.4,31.2c6.1,9.9-1.7,22.5-13.3,21.4l-147.9-14.3
			L707.8,577.8z"/>
		<path fill="#BCBEC0" d="M710.5,606l43.1,106.4c6.9,17.1,3.7,36.7-8.4,50.7l-24,27.8c-7.6,8.8-22,5.1-24.4-6.3L666.6,639L710.5,606
			z"/>
		<path fill="#BCBEC0" d="M690.6,630.8l-107.3,40.7c-17.3,6.5-36.8,2.9-50.4-9.6l-27.2-24.7c-8.6-7.8-4.5-22.1,6.9-24.2l146.1-26.8
			L690.6,630.8z"/>
	</g>
	<circle fill="#F47B20" cx="687.2" cy="591.5" r="58.4"/>
	<path fill="#FCB31A" d="M727.1,570.8L667,620.5c-3.1,2.6-0.7,7.6,3.2,6.7l58.3-12.3c1.2-0.3,2.2-1.1,2.7-2.2
		c2.6-5.9,9.7-25.2,1.7-40.7C731.9,569.8,729,569.2,727.1,570.8z"/>
	<path fill="#E76720" d="M682.1,546.6l-22.8,59.4c-1,2.7-5,1.9-5-0.9v-52.1c0-0.8,0.4-1.6,1-2.1c3.1-2.4,12.9-8.9,24.6-7.8
		C681.7,543.2,682.8,545,682.1,546.6z"/>
	<circle fill="#F47B20" cx="1195.9" cy="711.6" r="58.4"/>
	<path fill="#FCB31A" d="M1225.1,677.5l-37,68.6c-1.9,3.5,2.2,7.3,5.5,5l49.5-33.3c1-0.7,1.7-1.8,1.7-3.1c0.2-6.5-0.5-27-13.7-38.3
		C1229.1,674.8,1226.2,675.3,1225.1,677.5z"/>
	<path fill="#E76720" d="M1174.3,671.9l1.2,63.6c0.1,2.9-3.9,3.7-5,1l-19.6-48.3c-0.3-0.8-0.2-1.6,0.2-2.3c2-3.3,8.6-13.1,19.9-16.5
		C1172.6,669,1174.3,670.2,1174.3,671.9z"/>
	<circle fill="#F47B20" cx="487.7" cy="438.1" r="41.8"/>
	<path fill="#FCB31A" d="M515.4,421.8l-41,37.9c-2.1,1.9-0.2,5.4,2.6,4.7l41.2-11.1c0.9-0.2,1.6-0.9,1.9-1.7
		c1.6-4.3,6-18.4-0.4-29.1C518.7,420.9,516.7,420.6,515.4,421.8z"/>
	<path fill="#E76720" d="M482.3,406.2l-14,43.3c-0.6,2-3.5,1.6-3.6-0.5l-2-37.2c0-0.6,0.2-1.1,0.7-1.5c2.1-1.8,8.9-6.9,17.3-6.5
		C481.8,403.9,482.7,405.1,482.3,406.2z"/>
	<g>
		<path fill="#F47B20" d="M1078,543.6l54.7-80.6l-56.4-13.3c-6.2-1.5-12.8,0.7-16.9,5.6l-72.2,85.6c-7.6,9-4,22.8,7,26.9l67.8,17.9
			c28.8-6.7,57.5-13.4,86.3-20.2L1078,543.6z"/>
		<path fill="#F7951D" d="M1062,585.7l37.6,9.9c32-5.4,64.1-10.4,96.2-15.3l-47.5-14.8C1119.6,572.3,1090.8,579,1062,585.7z"/>
		<path fill="#F47B20" d="M1099.6,595.6l53.3,14c30.9-4.7,61.9-9.3,93.1-13.7l-50.2-15.6C1163.7,585.1,1131.6,590.2,1099.6,595.6z"
			/>
		<path fill="#F7951D" d="M1246.1,595.9c-31.3,4.4-62.2,9.1-93.1,13.7l120.2,31.6c25.3-3.7,50.6-7.8,76.6-13.1L1246.1,595.9z"/>
		<path fill="#F47B20" d="M1400,643.8l-50.3-15.7c-25.9,5.3-51.3,9.4-76.6,13.1l126.9,33.4V643.8z"/>
		<polygon fill="#BCBEC0" points="1132.7,463 1078,543.6 1400,643.8 1400,526.1 		"/>
	</g>
	<path fill="#AFB1B3" d="M781.8,436.9l40.4,2.2c3,0.2,4.5,3.8,2.3,6l-69.6,70.3c-3,3-7.8-0.8-5.5-4.4l35.8-55.5
		c0.8-1.2,0.7-2.8-0.1-4l-6.4-9.1C777,440,778.8,436.7,781.8,436.9z"/>
	<path fill="#AFB1B3" d="M594,473.3l17.4-36.5c1.3-2.7,5.3-2.7,6.4,0.2l38.4,91.2c1.6,3.9-3.7,6.9-6.2,3.4l-37.6-54.3
		c-0.8-1.2-2.3-1.8-3.7-1.4l-10.9,2.5C595.1,478.9,592.7,475.9,594,473.3z"/>
	<path fill="#AFB1B3" d="M553.3,652.5l-32.6-23.9c-2.5-1.8-1.6-5.7,1.3-6.3l96.7-20.8c4.1-0.9,6.1,5,2.2,6.7L560.6,635
		c-1.3,0.6-2.1,1.9-2.1,3.4l0.4,11.1C559,652.5,555.7,654.2,553.3,652.5z"/>
	<path fill="#AFB1B3" d="M853.2,597l24.4,32.3c1.8,2.4-0.1,5.9-3.1,5.6l-98.6-7.8c-4.2-0.3-4.4-6.5-0.2-7l65.5-8.4
		c1.4-0.2,2.6-1.2,3-2.6l2.8-10.8C847.7,595.4,851.4,594.6,853.2,597z"/>
	<path fill="#AFB1B3" d="M737.7,751.6l-23.4,33c-1.8,2.5-5.6,1.7-6.3-1.2L685.6,687c-1-4.1,4.9-6.1,6.6-2.3l27.8,59.9
		c0.6,1.3,1.9,2.1,3.4,2l11.1-0.6C737.5,745.9,739.4,749.2,737.7,751.6z"/>
	<path fill="#DCDDDE" d="M930,345c3-2,6-1,9-1c6,2,0,6-1,10c11,1,19-8,26-15c21.6-21.6,23.9-53,15.4-80.7
		c-4.9-5.5-11.2-9.9-19.2-12.9c-57.9-21.9-110.5,42.2-125.4,62.5c-3,4.2-5.3,8.8-6.7,13.8c-3.3,12.1-3.7,22.5-1.9,31.3
		c0.9,0,1.9,0,2.8,0c-0.6,2.9-0.6,5.9,0,8.8c2.3,5.4,5.7,10.1,9.8,14.2c0.7,0.4,1.5,0.7,2.3,1C876,391,905,367,930,345z"/>
	<path fill="#CDCFD0" d="M979.4,258.3c8.5,27.8,6.3,59.1-15.4,80.7c-7,7-15,16-26,15c1-4,7-8,1-10c-3,0-6-1-9,1c-25,22-54,46-89,32
		c-0.8-0.3-1.5-0.6-2.3-1c23.6,23.8,72.6,27.2,104.5,26.7c18.4-0.3,34.6-12.5,40-30.2C993.2,339.4,1004,285.8,979.4,258.3z"/>
	<path fill="#DCDDDE" d="M829,353c-0.9,0-1.9,0-2.8,0c0.7,3.1,1.6,6,2.8,8.8C828.4,358.9,828.4,355.9,829,353z"/>
	<g>
		<path fill="#959799" d="M1392,609c-0.3,0-0.6,0-0.9-0.1L1144,529.8l26.7-50.8c0.8-1.5,2.6-2,4-1.3c1.5,0.8,2,2.6,1.3,4.1
			l-23.4,44.5l240.3,76.9c1.6,0.5,2.4,2.2,1.9,3.8C1394.4,608.2,1393.3,609,1392,609z"/>
	</g>
	<path fill="#F3F4F4" d="M853.6,355l-5.2-29.7c-2.9-16.5,7.2-32.5,23.3-37.1l38.4-10.9c3.1-0.9,5,3.2,2.5,5.1
		c-26.6,19.8-46,43.2-53.4,72.8C858.4,358.2,854.1,358,853.6,355z"/>
	<path fill="#F47B20" d="M980,533"/>
	<g>
		<path fill="#6D6F72" d="M922,406.7c-43.5,0-73.5-10.4-89.4-30.9c-22.1-28.5-8.2-64.8-7.6-66.3c1.5-3.9,5.9-5.8,9.7-4.2
			c3.9,1.5,5.8,5.9,4.3,9.7l0,0c-0.1,0.3-11.3,30.1,5.6,51.8c17.2,22,58.4,29.7,119.3,22.3c4.1-0.5,7.9,2.4,8.4,6.5
			s-2.4,7.9-6.5,8.4C949.9,405.8,935.3,406.7,922,406.7z"/>
	</g>
	<path fill="#BCBEC0" d="M1054.1,271.2c0,0,14.4-6.2,35.9-41.2s8.4-73,59-91c20.9-7.4-31,187.2-34,195.1c-3,7.9-21,58.4-37,65.1
		C1062,406,1054.1,271.2,1054.1,271.2z"/>
	<path fill="#6D6F72" d="M1128.6,227l-7,6.6c-2.8,2.7-1,7.4,2.8,7.6l62.4,2.6c3.1-2.8,6.1-5.8,9.1-8.8
		C1173.8,234,1151.7,227.5,1128.6,227z"/>
	<path fill="#F7951D" d="M1207.9,229l-70.4-8.2c-1.3-0.2-2.6,0.3-3.5,1.2l-5.4,5.1c23.1,0.5,45.2,7,67.4,8c-3,3-6.1,6-9.1,8.8
		l11.3,0.5c1,0,1.9-0.3,2.7-0.8l9.1-6.6C1213.2,234.5,1211.9,229.4,1207.9,229z"/>
	<ellipse fill="#F47B20" cx="1164.4" cy="524.4" rx="35.4" ry="23.5"/>
	<path fill="#E76720" d="M1319,887c-5.5,0.7-12.5,4.2-16.6,9.3c-0.2,6.2,0.5,12.4,2,18.5l10.3,41.6c1.3,5.4,8.1,7.1,11.8,3
		l28.4-30.8c5.5-6,9.8-12.8,12.9-20.2c-0.7-1.6-1.6-3.1-2.7-4.5C1354,889,1336,885,1319,887z"/>
	<path fill="#6D6F72" d="M1328.1,822.5l-20.5,49.7c-3.2,7.7-4.9,15.9-5.2,24.1c4.1-5.1,11-8.6,16.6-9.3c17-2,35,2,46,17
		c1.2,1.4,2.1,2.9,2.7,4.5c3.4-8.3,5.3-17.2,5.3-26.3v-48.4C1361.1,823.8,1344,819.5,1328.1,822.5z"/>
	<path fill="#E76720" d="M1367.1,804.2c-4.5-3.7-11.5-7.3-21.1-5.5c-5.5,1-10.1,4.8-12.2,10l-5.7,13.7c15.9-3,33,1.3,44.9,11.4
		v-16.9C1373,812,1370.9,807.4,1367.1,804.2z"/>
	<path fill="#F47B20" d="M290.7,521.5l-6,2.8l-37.1,47.3c-4.2,5.4-0.1,13.3,6.8,12.8l60.4-4l7.5-6.6c-0.4-13.3-5.9-26.8-14.3-37.9
		C303.6,530.1,297.5,524.2,290.7,521.5z"/>
	<path fill="#6D6F72" d="M367,508c-1.7-9.3-11.9-12.1-21.1-12.2l-55.3,25.8c6.9,2.7,12.9,8.6,17.3,14.5
		c8.3,11.1,13.9,24.6,14.3,37.9l46.3-40.6C369.9,525,369.2,516.4,367,508z"/>
	<path fill="#F47B20" d="M358.3,490l-12.4,5.8c9.2,0.1,19.4,3,21.1,12.2c2.2,8.4,2.9,17,1.5,25.3l10.2-8.9
		C378.7,524.4,390.1,492.9,358.3,490z"/>
	<path fill="#FCB31A" d="M302.8,553.3l-39.6,20.5c-2.3,1.2-1.3,4.7,1.3,4.5l43.7-3.7c1.5-0.1,2.5-1.5,2.1-3l-4.1-16.8
		C305.9,553.3,304.2,552.6,302.8,553.3z"/>
	<path fill="#FCB31A" d="M1337,899.7l-9.4,39.6c-0.7,2.9,2.9,4.8,4.9,2.6l24.7-27c0.8-0.9,1-2.2,0.5-3.2c-3.1-6.1-8.7-10.7-16.9-14
		C1339.2,897,1337.4,898,1337,899.7z"/>
	<g>
		<path fill="#959799" d="M624.9,337.4L379.3,214.7c-1.5-0.7-2.1-2.5-1.3-4c0.7-1.5,2.5-2.1,4-1.3l243.3,121.6l51.1-16.5
			c1.6-0.5,3.3,0.4,3.8,1.9c0.5,1.6-0.4,3.3-1.9,3.8L624.9,337.4z"/>
	</g>
	<path fill="#BCBEC0" d="M1355.1,836l-11.5,46.9c-0.4,1.8,0.9,3.6,2.8,3.6h8.8c1.5,0,2.8-1.2,2.9-2.7l2.7-46.9
		c0.1-1.7-1.2-3.1-2.9-3.1l0,0C1356.6,833.8,1355.4,834.7,1355.1,836z"/>
	<path fill="#BCBEC0" d="M359.1,525.8l-34.8,19.1c-1.2,0.7-1.8,2.1-1.3,3.4c0.8,2.4,2.1,6.4,3,10c0.5,2.1,3.1,2.8,4.6,1.4l31.8-29.3
		c0.6-0.5,0.9-1.3,0.9-2.1v0C363.3,526.1,361,524.8,359.1,525.8z"/>
	<g>
		<path fill="#959799" d="M972.8,493c-0.7,0-1.5-0.3-2.1-0.8c-1.2-1.1-1.2-3-0.1-4.2l125.6-131.3c1.1-1.2,3-1.2,4.2-0.1
			c1.2,1.1,1.2,3,0.1,4.2L975,492.1C974.4,492.7,973.6,493,972.8,493z"/>
	</g>
	<g>
		<g>
			<path fill="#959799" d="M967.7,468.8c-0.7,0-1.3-0.3-1.8-0.7c-0.5-0.5-0.7-1.1-0.7-1.8c0-0.7,0.3-1.3,0.7-1.8
				c0.9-0.9,2.6-0.9,3.5,0c0.5,0.5,0.7,1.1,0.7,1.8c0,0.7-0.3,1.3-0.7,1.8C969,468.6,968.3,468.8,967.7,468.8z"/>
		</g>
		<g>
			<path fill="#959799" d="M976.5,458.2c-0.9-1-0.9-2.6,0.1-3.5l0,0c1-0.9,2.6-0.9,3.5,0.1l0,0c0.9,1,0.9,2.6-0.1,3.5l0,0
				c-0.5,0.5-1.1,0.7-1.7,0.7l0,0C977.7,459,977,458.7,976.5,458.2z M987.2,448.3c-0.9-1-0.9-2.6,0.2-3.5l0,0c1-0.9,2.6-0.9,3.5,0.1
				l0,0c0.9,1,0.9,2.6-0.1,3.5l0,0c-0.5,0.5-1.1,0.7-1.7,0.7l0,0C988.4,449.1,987.7,448.8,987.2,448.3z M997.9,438.4
				c-0.9-1-0.9-2.6,0.1-3.5l0,0c1-0.9,2.6-0.9,3.5,0.1l0,0c0.9,1,0.9,2.6-0.1,3.5l0,0c-0.5,0.4-1.1,0.7-1.7,0.7l0,0
				C999.1,439.2,998.4,439,997.9,438.4z M1008.6,428.5c-0.9-1-0.9-2.6,0.1-3.5l0,0c1-0.9,2.6-0.9,3.5,0.1l0,0c0.9,1,0.9,2.6-0.1,3.5
				l0,0c-0.5,0.4-1.1,0.7-1.7,0.7l0,0C1009.8,429.4,1009.1,429.1,1008.6,428.5z M1019.3,418.7c-0.9-1-0.9-2.6,0.1-3.5l0,0
				c1-0.9,2.6-0.9,3.5,0.1l0,0c0.9,1,0.9,2.6-0.1,3.5l0,0c-0.5,0.5-1.1,0.7-1.7,0.7l0,0C1020.5,419.5,1019.8,419.2,1019.3,418.7z
				 M1030,408.8c-0.9-1-0.9-2.6,0.2-3.5l0,0c1-0.9,2.6-0.9,3.5,0.1l0,0c0.9,1,0.9,2.6-0.1,3.5l0,0c-0.5,0.4-1.1,0.7-1.7,0.7l0,0
				C1031.2,409.6,1030.5,409.3,1030,408.8z M1040.7,398.9c-0.9-1-0.9-2.6,0.1-3.5l0,0c1-0.9,2.6-0.9,3.5,0.1l0,0
				c0.9,1,0.9,2.6-0.1,3.5l0,0c-0.5,0.4-1.1,0.7-1.7,0.7l0,0C1041.9,399.8,1041.2,399.5,1040.7,398.9z M1051.4,389.1
				c-0.9-1-0.9-2.6,0.1-3.5l0,0c1-0.9,2.6-0.9,3.5,0.1l0,0c0.9,1,0.9,2.6-0.1,3.5l0,0c-0.5,0.4-1.1,0.7-1.7,0.7l0,0
				C1052.6,389.9,1051.9,389.6,1051.4,389.1z M1062.1,379.2c-0.9-1-0.9-2.6,0.1-3.5l0,0c1-0.9,2.6-0.9,3.5,0.1l0,0
				c0.9,1,0.9,2.6-0.1,3.5l0,0c-0.5,0.4-1.1,0.7-1.7,0.7l0,0C1063.3,380,1062.6,379.7,1062.1,379.2z M1072.8,369.3
				c-0.9-1-0.9-2.6,0.2-3.5l0,0c1-0.9,2.6-0.9,3.5,0.1l0,0c0.9,1,0.9,2.6-0.1,3.5l0,0c-0.5,0.4-1.1,0.7-1.7,0.7l0,0
				C1074,370.1,1073.3,369.9,1072.8,369.3z M1083.5,359.5c-0.9-1-0.9-2.6,0.1-3.5l0,0c1-0.9,2.6-0.9,3.5,0.1l0,0
				c0.9,1,0.9,2.6-0.1,3.5l0,0c-0.5,0.4-1.1,0.7-1.7,0.7l0,0C1084.7,360.3,1084,360,1083.5,359.5z"/>
		</g>
		<g>
			<path fill="#959799" d="M1096,350.4c-0.7,0-1.3-0.3-1.8-0.7c-0.5-0.5-0.7-1.1-0.7-1.8c0-0.7,0.3-1.3,0.7-1.8
				c0.9-0.9,2.6-0.9,3.5,0c0.5,0.5,0.7,1.1,0.7,1.8c0,0.7-0.3,1.3-0.7,1.8C1097.3,350.1,1096.7,350.4,1096,350.4z"/>
		</g>
	</g>
	<ellipse fill="#E76720" cx="623" cy="325.3" rx="29.3" ry="19.4"/>
	<g>
		<path fill="#959799" d="M1377.9,586.7c-1.3-0.4-2-1.8-1.6-3.1l0,0c0.4-1.3,1.8-2,3.1-1.6l0,0c1.3,0.4,2.1,1.8,1.6,3.1l0,0
			c-0.3,1.1-1.3,1.7-2.4,1.7l0,0C1378.4,586.8,1378.2,586.7,1377.9,586.7z M1364.6,582.4c-1.3-0.4-2-1.8-1.6-3.1l0,0
			c0.4-1.3,1.8-2,3.1-1.6l0,0c1.3,0.4,2,1.8,1.6,3.1l0,0c-0.3,1.1-1.3,1.8-2.4,1.8l0,0C1365.1,582.5,1364.8,582.5,1364.6,582.4z
			 M1351.3,578.1c-1.3-0.4-2-1.8-1.6-3.1l0,0c0.4-1.3,1.8-2,3.1-1.6l0,0c1.3,0.4,2,1.8,1.6,3.1l0,0c-0.3,1.1-1.3,1.7-2.4,1.7l0,0
			C1351.8,578.3,1351.5,578.2,1351.3,578.1z M1337.9,573.9c-1.3-0.4-2-1.8-1.6-3.1l0,0c0.4-1.3,1.8-2,3.1-1.6l0,0
			c1.3,0.4,2,1.8,1.6,3.1l0,0c-0.3,1.1-1.3,1.7-2.4,1.7l0,0C1338.4,574,1338.2,574,1337.9,573.9z M1324.6,569.6
			c-1.3-0.4-2-1.8-1.6-3.1l0,0c0.4-1.3,1.8-2,3.1-1.6l0,0c1.3,0.4,2,1.8,1.6,3.1l0,0c-0.3,1.1-1.3,1.7-2.4,1.7l0,0
			C1325.1,569.8,1324.8,569.7,1324.6,569.6z M1311.2,565.4c-1.3-0.4-2-1.8-1.6-3.1l0,0c0.4-1.3,1.8-2,3.1-1.6l0,0
			c1.3,0.4,2,1.8,1.6,3.1l0,0c-0.3,1.1-1.3,1.8-2.4,1.8l0,0C1311.7,565.5,1311.5,565.5,1311.2,565.4z M1297.9,561.1
			c-1.3-0.4-2-1.8-1.6-3.1l0,0c0.4-1.3,1.8-2,3.1-1.6l0,0c1.3,0.4,2,1.8,1.6,3.1l0,0c-0.3,1.1-1.3,1.8-2.4,1.8l0,0
			C1298.4,561.3,1298.1,561.2,1297.9,561.1z M1284.6,556.9c-1.3-0.4-2-1.8-1.6-3.1l0,0c0.4-1.3,1.8-2,3.1-1.6l0,0
			c1.3,0.4,2.1,1.8,1.6,3.1l0,0c-0.3,1.1-1.3,1.7-2.4,1.7l0,0C1285.1,557,1284.8,557,1284.6,556.9z M1271.2,552.6
			c-1.3-0.4-2-1.8-1.6-3.1l0,0c0.4-1.3,1.8-2,3.2-1.6l0,0c1.3,0.4,2,1.8,1.6,3.1l0,0c-0.3,1.1-1.3,1.7-2.4,1.7l0,0
			C1271.7,552.8,1271.5,552.7,1271.2,552.6z M1257.9,548.4c-1.3-0.4-2-1.8-1.6-3.1l0,0c0.4-1.3,1.8-2,3.1-1.6l0,0
			c1.3,0.4,2,1.8,1.6,3.1l0,0c-0.3,1.1-1.3,1.7-2.4,1.7l0,0C1258.4,548.5,1258.1,548.5,1257.9,548.4z M1244.5,544.1
			c-1.3-0.4-2-1.8-1.6-3.1l0,0c0.4-1.3,1.8-2,3.1-1.6l0,0c1.3,0.4,2,1.8,1.6,3.1l0,0c-0.3,1.1-1.3,1.8-2.4,1.8l0,0
			C1245,544.3,1244.8,544.2,1244.5,544.1z M1231.2,539.9c-1.3-0.4-2-1.8-1.6-3.1l0,0c0.4-1.3,1.8-2,3.1-1.6l0,0
			c1.3,0.4,2,1.8,1.6,3.1l0,0c-0.3,1.1-1.3,1.8-2.4,1.8l0,0C1231.7,540,1231.5,540,1231.2,539.9z M1217.9,535.6
			c-1.3-0.4-2-1.8-1.6-3.1l0,0c0.4-1.3,1.8-2,3.1-1.6l0,0c1.3,0.4,2,1.8,1.6,3.1l0,0c-0.3,1.1-1.3,1.7-2.4,1.7l0,0
			C1218.4,535.8,1218.1,535.7,1217.9,535.6z M1204.5,531.4c-1.3-0.4-2.1-1.8-1.6-3.1l0,0c0.4-1.3,1.8-2,3.1-1.6l0,0
			c1.3,0.4,2,1.8,1.6,3.1l0,0c-0.3,1.1-1.3,1.7-2.4,1.7l0,0C1205,531.5,1204.8,531.5,1204.5,531.4z"/>
	</g>
	<g>
		<path fill="#959799" d="M603,304.4c-1.2-0.6-1.7-2.1-1.1-3.3l0,0c0.6-1.2,2.1-1.8,3.4-1.1l0,0c1.2,0.6,1.7,2.1,1.1,3.4l0,0
			c-0.4,0.9-1.3,1.4-2.2,1.4l0,0C603.7,304.7,603.3,304.6,603,304.4z M590.4,298.2c-1.2-0.6-1.8-2.1-1.1-3.4l0,0
			c0.6-1.2,2.1-1.8,3.3-1.1l0,0c1.2,0.6,1.8,2.1,1.1,3.4l0,0c-0.4,0.9-1.3,1.4-2.2,1.4l0,0C591.2,298.5,590.8,298.4,590.4,298.2z
			 M577.9,292c-1.2-0.6-1.8-2.1-1.1-3.4l0,0c0.6-1.2,2.1-1.7,3.3-1.1l0,0c1.2,0.6,1.8,2.1,1.1,3.4l0,0c-0.4,0.9-1.3,1.4-2.3,1.4l0,0
			C578.6,292.3,578.2,292.2,577.9,292z M565.3,285.8c-1.2-0.6-1.7-2.1-1.1-3.4l0,0c0.6-1.2,2.1-1.7,3.4-1.1l0,0
			c1.2,0.6,1.7,2.1,1.1,3.4l0,0c-0.4,0.9-1.3,1.4-2.2,1.4l0,0C566.1,286.1,565.7,286,565.3,285.8z M552.8,279.6
			c-1.2-0.6-1.7-2.1-1.1-3.3l0,0c0.6-1.2,2.1-1.8,3.3-1.1l0,0c1.2,0.6,1.8,2.1,1.1,3.4l0,0c-0.4,0.9-1.3,1.4-2.2,1.4l0,0
			C553.5,279.9,553.1,279.8,552.8,279.6z M540.2,273.4c-1.2-0.6-1.8-2.1-1.1-3.4l0,0c0.6-1.2,2.1-1.8,3.4-1.1l0,0
			c1.2,0.6,1.8,2.1,1.1,3.4l0,0c-0.4,0.9-1.3,1.4-2.2,1.4l0,0C541,273.7,540.6,273.6,540.2,273.4z M527.7,267.2
			c-1.2-0.6-1.7-2.1-1.1-3.4l0,0c0.6-1.2,2.1-1.8,3.3-1.1l0,0c1.2,0.6,1.7,2.1,1.1,3.3l0,0c-0.4,0.9-1.3,1.4-2.2,1.4l0,0
			C528.4,267.5,528,267.4,527.7,267.2z M515.1,261c-1.2-0.6-1.8-2.1-1.1-3.4l0,0c0.6-1.2,2.1-1.7,3.3-1.1l0,0
			c1.2,0.6,1.8,2.1,1.1,3.3l0,0c-0.4,0.9-1.3,1.4-2.2,1.4l0,0C515.8,261.3,515.5,261.2,515.1,261z M502.6,254.8
			c-1.2-0.6-1.8-2.1-1.1-3.4l0,0c0.6-1.2,2.1-1.7,3.4-1.1l0,0c1.2,0.6,1.8,2.1,1.1,3.4l0,0c-0.4,0.9-1.3,1.4-2.3,1.4l0,0
			C503.3,255.1,502.9,255,502.6,254.8z M490,248.6c-1.2-0.6-1.7-2.1-1.1-3.4l0,0c0.6-1.2,2.1-1.8,3.4-1.1l0,0
			c1.2,0.6,1.7,2.1,1.1,3.4l0,0c-0.4,0.9-1.3,1.4-2.2,1.4l0,0C490.8,248.9,490.4,248.8,490,248.6z M477.5,242.4
			c-1.2-0.6-1.8-2.1-1.1-3.4l0,0c0.6-1.2,2.1-1.8,3.4-1.1l0,0c1.2,0.6,1.8,2.1,1.1,3.3l0,0c-0.4,0.9-1.3,1.4-2.2,1.4l0,0
			C478.2,242.7,477.8,242.6,477.5,242.4z M464.9,236.2c-1.2-0.6-1.8-2.1-1.1-3.4l0,0c0.6-1.2,2.1-1.7,3.3-1.1l0,0
			c1.2,0.6,1.8,2.1,1.1,3.3l0,0c-0.4,0.9-1.3,1.4-2.2,1.4l0,0C465.6,236.5,465.3,236.4,464.9,236.2z M452.3,230
			c-1.2-0.6-1.7-2.1-1.1-3.4l0,0c0.6-1.2,2.1-1.7,3.4-1.1l0,0c1.2,0.6,1.7,2.1,1.1,3.4l0,0c-0.4,0.9-1.3,1.4-2.2,1.4l0,0
			C453.1,230.3,452.7,230.2,452.3,230z M439.8,223.8c-1.2-0.6-1.8-2.1-1.1-3.3l0,0c0.6-1.2,2.1-1.8,3.3-1.1l0,0
			c1.2,0.6,1.8,2.1,1.1,3.4l0,0c-0.4,0.9-1.3,1.4-2.3,1.4l0,0C440.5,224.1,440.2,224,439.8,223.8z M427.3,217.6
			c-1.2-0.6-1.8-2.1-1.1-3.3l0,0c0.6-1.2,2.1-1.8,3.4-1.1l0,0c1.2,0.6,1.8,2.1,1.1,3.4l0,0c-0.4,0.9-1.3,1.4-2.2,1.4l0,0
			C428,217.9,427.6,217.8,427.3,217.6z M414.7,211.4c-1.2-0.6-1.7-2.1-1.1-3.4l0,0c0.6-1.2,2.1-1.7,3.3-1.1l0,0
			c1.2,0.6,1.7,2.1,1.1,3.3l0,0c-0.4,0.9-1.3,1.4-2.2,1.4l0,0C415.4,211.7,415,211.6,414.7,211.4z M402.1,205.2
			c-1.2-0.6-1.8-2.1-1.1-3.4l0,0c0.6-1.2,2.1-1.7,3.3-1.1l0,0c1.2,0.6,1.8,2.1,1.1,3.4l0,0c-0.4,0.9-1.3,1.4-2.3,1.4l0,0
			C402.9,205.5,402.5,205.4,402.1,205.2z"/>
	</g>
	<path fill="#FFDC8F" d="M368.7,487c0,0,10.5-55.3,32.1-62.6s10.3,31.3,10.3,31.3s10.5-32.6,16.3-31.3s-1.7,26.5-1.7,26.5l20.4-10.4
		l3.6,14.8L397,491.9l48.8-15.6L400.7,505c0,0,26.8-11.7,26.5,3.1c-0.3,14.9-35.2,4-35.2,4s13.1,7.3,8.7,9.4s-13.1-3.2-13.1-3.2
		S387,491.7,368.7,487z"/>
	<path fill="#FFDC8F" d="M1342.7,791.7c0,0-14.3,23.9-27.7,6.6c-13.4-17.3,0-17.3,0-17.3s-29.7-55.9-6-57.3
		c23.7-1.5,28.6,28.1,28.6,28.1s-0.1-25,7.9-22.6s6.5,8.9,6.5,8.9l20.8-70.6l11.4,3l-8.1,51.8l11.3-36.9l-10.7,72.2
		c0,0,8-11.3,10.7-8.7c2.7,2.7-9.3,16-9.3,16s20.5-14.7,21.7-2s-9,17.3-9,17.3s10.2-6.1,10.2,18c0,0-12.5,12.5-20,6.3
		c-7.5-6.2-13.4-6.3-13.4-6.3l-9.8-5.3l2.9-22.9l-8.7,21.6H1342.7z"/>
</g>
<path fill="#FFDC8F" d="M478.3,317.7l623.1-169.8L714.6,227c0,0,42.4-26,15.4-26.5S700,215,700,215s45.6-37,7.8-38s-42.2,20-42.2,20
	s45-53.2,2.7-49.1S640,223.5,623,226.2s-0.8-21.2-16.4-18.7s-13,9.8-13,9.8s41.6-45.3-5-38.3c-46.6,7-41.2,57.2-38.9,61.1
	s-22.7-24.5-20.7,0.7s20.7,26.2,20.7,26.2s-29.8-12.7-32.3,6.1S478.3,317.7,478.3,317.7z"/>
<path fill="#DB6F5F" d="M1144,457.2c0,0,4.9-13.8,31.5-8c26.5,5.8,27.3,9.7,27.3,9.7s-33.5-40,13.4-31c46.9,9,44.9,35.9,44.9,35.9
	s8-55.9,18-50.9s12,22.6,8,25.3s-0.2-22.6,15.4-13.9s20.6,22.9,20.6,22.9s27-81.3,77-67.3v146.1l-234.8-55.4L1144,457.2z"/>
<polygon fill="#FFDC8F" points="1302.4,366.5 1202.8,516.5 1216.1,546.6 "/>
<path fill="#FFDC8F" d="M1239,477.3c0,0,14.5-25.9-3.5-25.1s-19.4,16.6-19.4,16.6s6.9-14.4-4.6-9.9s0,22.6,0,22.6s-14.8-15.4-15.6,0
	c-0.9,15.4,6.9,34.9,6.9,34.9L1239,477.3z"/>
<polygon opacity="0.46" fill="#A8E0F9" points="1.2,480 422.6,344.7 48.8,542.9 211.3,500.8 1.2,668 168.1,618.6 0,770.1 "/>
<polygon opacity="0.46" fill="#A8E0F9" points="1164.4,980 1272,795.7 1269.5,860.2 1349.7,685.4 1263,980 "/>
<polygon opacity="0.46" fill="#A8E0F9" points="680.3,980 1170.2,355.7 745.7,980 "/>
<polygon opacity="0.46" fill="#A8E0F9" points="1.2,267.1 117.8,257.2 59.5,279.3 427.3,217.6 1.2,350.4 "/>
</svg>
