<?xml version="1.0" encoding="UTF-8" standalone="no"?>
<!-- Created with Inkscape (http://www.inkscape.org/) -->

<svg
   width="99.999756mm"
   height="100mm"
   viewBox="0 0 99.999756 100"
   version="1.1"
   id="svg20458"
   xml:space="preserve"
   inkscape:version="1.2.2 (732a01da63, 2022-12-09)"
   sodipodi:docname="stage.svg"
   inkscape:export-filename="panel2.svg"
   inkscape:export-xdpi="23.161549"
   inkscape:export-ydpi="23.161549"
   xmlns:inkscape="http://www.inkscape.org/namespaces/inkscape"
   xmlns:sodipodi="http://sodipodi.sourceforge.net/DTD/sodipodi-0.dtd"
   xmlns="http://www.w3.org/2000/svg"
   xmlns:svg="http://www.w3.org/2000/svg"><sodipodi:namedview
     id="namedview20460"
     pagecolor="#ffffff"
     bordercolor="#000000"
     borderopacity="0.25"
     inkscape:showpageshadow="2"
     inkscape:pageopacity="0.0"
     inkscape:pagecheckerboard="0"
     inkscape:deskcolor="#d1d1d1"
     inkscape:document-units="mm"
     showgrid="false"
     inkscape:zoom="1.8101934"
     inkscape:cx="-2540.3364"
     inkscape:cy="-6023.9421"
     inkscape:window-width="1920"
     inkscape:window-height="991"
     inkscape:window-x="-9"
     inkscape:window-y="-9"
     inkscape:window-maximized="1"
     inkscape:current-layer="layer1"
     showguides="false" /><defs
     id="defs20455" /><g
     inkscape:label="Vrstva 1"
     inkscape:groupmode="layer"
     id="layer1"
     transform="translate(-2477.7501,5424.2318)"><g
       id="g62911"><rect
         style="fill:#796853;fill-opacity:1;stroke:none;stroke-width:0.176667;stroke-linecap:round;stroke-linejoin:bevel;stroke-miterlimit:7.9;stroke-dasharray:none;stroke-opacity:1"
         id="rect200929-6"
         width="100"
         height="100"
         x="2477.75"
         y="-5424.2314"
         ry="21.256037" /><rect
         style="fill:#dcd1c9;fill-opacity:1;stroke:none;stroke-width:0.176389;stroke-linecap:round;stroke-linejoin:bevel;stroke-miterlimit:7.9;stroke-dasharray:none;stroke-opacity:1"
         id="rect200929-2-3"
         width="90"
         height="90"
         x="2482.75"
         y="-5419.2314"
         ry="19.130438" /><path
         d="m 2482.7966,-5369.2604 4.7545,6.6078 -4.8013,-4.5733 -4.2035,0.7412 4.2501,-2.7769"
         style="fill:#45352d;fill-opacity:1;fill-rule:nonzero;stroke:none;stroke-width:0.0399971"
         id="path4148-8-1-1" /><path
         d="m 2529.8439,-5407.4622 22.0005,-13.5984 c 0,0 -12.9829,10.6537 -22.0005,13.5984"
         style="fill:#45352d;fill-opacity:1;fill-rule:nonzero;stroke:none;stroke-width:0.0528544"
         id="path3736-4-1-9" /><path
         d="m 2575.5449,-5342.4082 c 0,0 -2.7144,9.1344 -8.3085,11.9735 3.3733,-3.5497 8.3085,-11.9735 8.3085,-11.9735"
         style="fill:#45352d;fill-opacity:1;fill-rule:nonzero;stroke:none;stroke-width:0.0281579"
         id="path4152-2-8-4" /><path
         d="m 2576.4455,-5391.1514 -3.6987,-4.3856 h -11.1453 l 11.1482,0.6876 3.6958,3.698"
         style="fill:#45352d;fill-opacity:1;fill-rule:nonzero;stroke:none;stroke-width:0.0619456"
         id="path3360-9-3-0" /><path
         d="m 2509.4106,-5329.2317 20.2955,-3.7487 -15.5267,3.7487 -1.8853,3.1284 0.1111,-3.1284 -11.5338,1.8008 8.5397,-1.8008"
         style="fill:#45352d;fill-opacity:1;fill-rule:nonzero;stroke:none;stroke-width:0.0544069"
         id="path3562-1-3-3" /><path
         d="m 2495.2301,-5397.5846 51.4116,35.8397 c 0,0 -50.1822,-33.4125 -51.4116,-35.8397"
         style="fill:#45352d;fill-opacity:1;fill-rule:nonzero;stroke:none;stroke-width:0.0357511"
         id="path3870-0-3-1" /><path
         d="m 2501.5348,-5419.2286 26.5919,0.072 c 0,0 -16.5547,1.2416 -26.5919,-0.072"
         style="fill:#c2a48d;fill-opacity:1;fill-rule:nonzero;stroke:none;stroke-width:0.0150381"
         id="path3532-2-2-9" /><path
         d="m 2572.7665,-5353.3149 -0.033,-28.6179 c 0,0 -2.3984,25.281 0.033,28.6179"
         style="fill:#c2a48d;fill-opacity:1;fill-rule:nonzero;stroke:none;stroke-width:0.0690793"
         id="path3558-3-1-4" /></g></g></svg>
