<?xml version="1.0" encoding="UTF-8" standalone="no"?>
<!-- Created with Inkscape (http://www.inkscape.org/) -->

<svg
   width="100mm"
   height="100mm"
   viewBox="0 0 100 100"
   version="1.1"
   id="svg20458"
   xml:space="preserve"
   inkscape:version="1.2.2 (732a01da63, 2022-12-09)"
   sodipodi:docname="stage.svg"
   inkscape:export-filename="panel2.svg"
   inkscape:export-xdpi="23.161549"
   inkscape:export-ydpi="23.161549"
   xmlns:inkscape="http://www.inkscape.org/namespaces/inkscape"
   xmlns:sodipodi="http://sodipodi.sourceforge.net/DTD/sodipodi-0.dtd"
   xmlns="http://www.w3.org/2000/svg"
   xmlns:svg="http://www.w3.org/2000/svg"><sodipodi:namedview
     id="namedview20460"
     pagecolor="#ffffff"
     bordercolor="#000000"
     borderopacity="0.25"
     inkscape:showpageshadow="2"
     inkscape:pageopacity="0.0"
     inkscape:pagecheckerboard="0"
     inkscape:deskcolor="#d1d1d1"
     inkscape:document-units="mm"
     showgrid="false"
     inkscape:zoom="1.8101934"
     inkscape:cx="-2540.3364"
     inkscape:cy="-6023.9421"
     inkscape:window-width="1920"
     inkscape:window-height="991"
     inkscape:window-x="-9"
     inkscape:window-y="-9"
     inkscape:window-maximized="1"
     inkscape:current-layer="layer1"
     showguides="false" /><defs
     id="defs20455" /><g
     inkscape:label="Vrstva 1"
     inkscape:groupmode="layer"
     id="layer1"
     transform="translate(-2648.273,5418.3866)"><g
       id="g62899"
       transform="translate(-13.229167,16.536458)"><rect
         style="fill:#634a31;fill-opacity:1;stroke:none;stroke-width:0.176389;stroke-linecap:round;stroke-linejoin:bevel;stroke-miterlimit:7.9;stroke-dasharray:none;stroke-opacity:1"
         id="rect200929-6-9-6"
         width="100"
         height="100"
         x="2661.5022"
         y="-5434.9229"
         ry="21.256037" /><rect
         style="fill:#b29374;fill-opacity:1;stroke:none;stroke-width:0.176389;stroke-linecap:round;stroke-linejoin:bevel;stroke-miterlimit:7.9;stroke-dasharray:none;stroke-opacity:1"
         id="rect200929-2-3-8-9"
         width="90"
         height="90"
         x="2666.5022"
         y="-5429.9229"
         ry="19.130438" /><path
         d="m 2666.5491,-5379.9524 4.7546,6.6077 -4.8014,-4.5732 -4.2035,0.7411 4.2502,-2.7768"
         style="fill:#241d18;fill-opacity:1;fill-rule:nonzero;stroke:none;stroke-width:0.0399971"
         id="path4148-8-1-1-3-6" /><path
         d="m 2713.5964,-5418.1542 22.0004,-13.5984 c 0,0 -12.9828,10.6536 -22.0004,13.5984"
         style="fill:#241d18;fill-opacity:1;fill-rule:nonzero;stroke:none;stroke-width:0.0528544"
         id="path3736-4-1-9-0-0" /><path
         d="m 2759.2974,-5353.1002 c 0,0 -2.7144,9.1344 -8.3085,11.9734 3.3733,-3.5497 8.3085,-11.9734 8.3085,-11.9734"
         style="fill:#241d18;fill-opacity:1;fill-rule:nonzero;stroke:none;stroke-width:0.0281579"
         id="path4152-2-8-4-3-3" /><path
         d="m 2760.198,-5401.8434 -3.6987,-4.3856 h -11.1453 l 11.1482,0.6876 3.6958,3.6979"
         style="fill:#241d18;fill-opacity:1;fill-rule:nonzero;stroke:none;stroke-width:0.0619456"
         id="path3360-9-3-0-2-2" /><path
         d="m 2693.1632,-5339.9238 20.2954,-3.7486 -15.5267,3.7486 -1.8853,3.1285 0.1112,-3.1285 -11.5338,1.8009 8.5396,-1.8009"
         style="fill:#241d18;fill-opacity:1;fill-rule:nonzero;stroke:none;stroke-width:0.0544069"
         id="path3562-1-3-3-4-5" /><path
         d="m 2678.9826,-5408.2766 51.4116,35.8397 c 0,0 -50.1822,-33.4125 -51.4115,-35.8397"
         style="fill:#241d18;fill-opacity:1;fill-rule:nonzero;stroke:none;stroke-width:0.0357511"
         id="path3870-0-3-1-7-8" /><path
         d="m 2685.2872,-5429.9206 26.592,0.072 c 0,0 -16.5547,1.2416 -26.592,-0.072"
         style="fill:#dacfc7;fill-opacity:1;fill-rule:nonzero;stroke:none;stroke-width:0.0150381"
         id="path3532-2-2-9-6-0" /><path
         d="m 2756.519,-5364.0069 -0.033,-28.618 c 0,0 -2.3985,25.2811 0.033,28.618"
         style="fill:#dacfc7;fill-opacity:1;fill-rule:nonzero;stroke:none;stroke-width:0.0690793"
         id="path3558-3-1-4-1-4" /></g></g></svg>
