<?xml version="1.0" encoding="UTF-8" standalone="no"?>
<!-- Created with Inkscape (http://www.inkscape.org/) -->

<svg
   width="100mm"
   height="91.688477mm"
   viewBox="0 0 100 91.688477"
   version="1.1"
   id="svg20458"
   xml:space="preserve"
   inkscape:version="1.2.2 (732a01da63, 2022-12-09)"
   sodipodi:docname="stage.svg"
   inkscape:export-filename="panel2.svg"
   inkscape:export-xdpi="23.161549"
   inkscape:export-ydpi="23.161549"
   xmlns:inkscape="http://www.inkscape.org/namespaces/inkscape"
   xmlns:sodipodi="http://sodipodi.sourceforge.net/DTD/sodipodi-0.dtd"
   xmlns="http://www.w3.org/2000/svg"
   xmlns:svg="http://www.w3.org/2000/svg"><sodipodi:namedview
     id="namedview20460"
     pagecolor="#ffffff"
     bordercolor="#000000"
     borderopacity="0.25"
     inkscape:showpageshadow="2"
     inkscape:pageopacity="0.0"
     inkscape:pagecheckerboard="0"
     inkscape:deskcolor="#d1d1d1"
     inkscape:document-units="mm"
     showgrid="false"
     inkscape:zoom="0.32"
     inkscape:cx="10354.688"
     inkscape:cy="-19710.938"
     inkscape:window-width="1920"
     inkscape:window-height="991"
     inkscape:window-x="-9"
     inkscape:window-y="-9"
     inkscape:window-maximized="1"
     inkscape:current-layer="layer1"
     showguides="false" /><defs
     id="defs20455" /><g
     inkscape:label="Vrstva 1"
     inkscape:groupmode="layer"
     id="layer1"
     transform="translate(-3433.3492,5221.0208)"><g
       id="g12123"
       transform="matrix(1.6666667,0,0,1.6666667,-996.73615,3350.1042)"><path
         d="m 2718.0511,-5087.6618 -60,-2.6284 1.8558,-49.6374 55.0267,-2.7472 3.1175,55.013"
         style="fill:#634a31;fill-opacity:1;fill-rule:nonzero;stroke:none;stroke-width:0.0457108"
         id="path4430-91-9" /><path
         d="m 2715.4227,-5090.2902 -55.0495,-3.5563 2.6283,-43.6081 49.0157,-2.473 3.4055,49.6374"
         style="fill:#9f8469;fill-opacity:1;fill-rule:nonzero;stroke:none;stroke-width:0.0457108"
         id="path4432-69-0" /><path
         d="m 2660.3732,-5093.8465 -2.3221,3.5563 60,2.6284 -2.6284,-2.6284 -55.0495,-3.5563"
         style="fill:#4b3725;fill-opacity:1;fill-rule:nonzero;stroke:none;stroke-width:0.0457108"
         id="path4434-4-0" /><path
         d="m 2663.0015,-5137.4546 -3.0946,-2.473 55.0267,-2.7472 -2.9164,2.7472 -49.0157,2.473"
         style="fill:#7f5f3f;fill-opacity:1;fill-rule:nonzero;stroke:none;stroke-width:0.0457108"
         id="path4436-55-3" /><path
         d="m 2713.6948,-5137.9849 -1.4444,1.4171 -4.6214,0.6902 h 4.6716 l 1.3942,-2.1073"
         style="fill:#241d18;fill-opacity:1;fill-rule:nonzero;stroke:none;stroke-width:0.0457108"
         id="path4438-1-1" /><path
         d="m 2716.858,-5091.8535 -1.6821,-1.993 h -5.0694 l 5.0694,0.3154 1.6821,1.6776"
         style="fill:#241d18;fill-opacity:1;fill-rule:nonzero;stroke:none;stroke-width:0.0457108"
         id="path4440-2-2" /><path
         d="m 2660.3732,-5124.0796 2.1164,-5.3848 3.25,-0.5119 -3.3094,1.5221 -2.057,4.3746"
         style="fill:#241d18;fill-opacity:1;fill-rule:nonzero;stroke:none;stroke-width:0.0457108"
         id="path4442-49-1" /><path
         d="m 2663.0564,-5096.6806 20.1219,2.0936 c 0,0 -17.6764,-1.0194 -20.1219,-2.0936"
         style="fill:#241d18;fill-opacity:1;fill-rule:nonzero;stroke:none;stroke-width:0.0457108"
         id="path4444-3-1" /><path
         d="m 2673.1173,-5139.1231 27.2437,-1.5998 c 0,0 -24.7387,1.7141 -27.2437,1.5998"
         style="fill:#241d18;fill-opacity:1;fill-rule:nonzero;stroke:none;stroke-width:0.0457108"
         id="path4446-2-0" /><path
         d="m 2663.0015,-5137.4546 11.7203,-0.5897 c 0,0 -10.2712,0.9782 -11.7203,0.5897"
         style="fill:#c8b09b;fill-opacity:1;fill-rule:nonzero;stroke:none;stroke-width:0.0457108"
         id="path4448-9-2" /><path
         d="m 2687.8956,-5092.0684 22.764,1.3119 c 0,0 -16.9907,-2.1301 -22.764,-1.3119"
         style="fill:#c8b09b;fill-opacity:1;fill-rule:nonzero;stroke:none;stroke-width:0.0457108"
         id="path4450-9-1" /><path
         d="m 2714.3805,-5120.8067 1.0422,19.2945 c 0,0 0.2103,-16.3371 -1.0422,-19.2945"
         style="fill:#241d18;fill-opacity:1;fill-rule:nonzero;stroke:none;stroke-width:0.0457108"
         id="path4452-6-2" /><path
         d="m 2701.842,-5099.9123 8.2645,-3.6523 c 0,0 -7.2406,1.7187 -8.2645,3.6523"
         style="fill:#241d18;fill-opacity:1;fill-rule:nonzero;stroke:none;stroke-width:0.0457108"
         id="path4454-0-0" /><path
         d="m 2659.9526,-5115.4174 -0.5119,17.8957 c 0,0 0.8548,-15.6148 0.5119,-17.8957"
         style="fill:#241d18;fill-opacity:1;fill-rule:nonzero;stroke:none;stroke-width:0.0457108"
         id="path4456-1-9" /></g></g><style
     type="text/css"
     id="style13890">
	.st0{fill:none;stroke:#000000;stroke-width:2;stroke-linecap:round;stroke-linejoin:round;stroke-miterlimit:10;}
</style></svg>
