<?xml version="1.0" encoding="UTF-8" standalone="no"?>
<!-- Created with Inkscape (http://www.inkscape.org/) -->

<svg
   width="50mm"
   height="49.998779mm"
   viewBox="0 0 50 49.998779"
   version="1.1"
   id="svg20458"
   xml:space="preserve"
   inkscape:version="1.2.2 (732a01da63, 2022-12-09)"
   sodipodi:docname="stage.svg"
   inkscape:export-filename="panel2.svg"
   inkscape:export-xdpi="23.161549"
   inkscape:export-ydpi="23.161549"
   xmlns:inkscape="http://www.inkscape.org/namespaces/inkscape"
   xmlns:sodipodi="http://sodipodi.sourceforge.net/DTD/sodipodi-0.dtd"
   xmlns="http://www.w3.org/2000/svg"
   xmlns:svg="http://www.w3.org/2000/svg"><sodipodi:namedview
     id="namedview20460"
     pagecolor="#ffffff"
     bordercolor="#000000"
     borderopacity="0.25"
     inkscape:showpageshadow="2"
     inkscape:pageopacity="0.0"
     inkscape:pagecheckerboard="0"
     inkscape:deskcolor="#d1d1d1"
     inkscape:document-units="mm"
     showgrid="false"
     inkscape:zoom="0.16"
     inkscape:cx="13853.125"
     inkscape:cy="-14984.375"
     inkscape:window-width="1920"
     inkscape:window-height="991"
     inkscape:window-x="-9"
     inkscape:window-y="-9"
     inkscape:window-maximized="1"
     inkscape:current-layer="layer1" /><defs
     id="defs20455" /><g
     inkscape:label="Vrstva 1"
     inkscape:groupmode="layer"
     id="layer1"
     transform="translate(-2654.9669,4054.7665)"><g
       id="g12918"
       transform="translate(1209.4239,-321.28484)"
       inkscape:export-filename=".\g12918.svg"
       inkscape:export-xdpi="25.400106"
       inkscape:export-ydpi="25.400106"><path
         d="m 1495.543,-3708.4811 c 0,13.8055 -11.1929,24.9982 -25,24.9982 -13.8071,0 -25,-11.1927 -25,-24.9982 0,-13.8077 11.1929,-25.0004 25,-25.0004 13.8071,0 25,11.1927 25,25.0004"
         style="fill:#755f50;fill-opacity:1;fill-rule:nonzero;stroke:none;stroke-width:0.0223318"
         id="path3898-9-1" /><path
         d="m 1491.5664,-3708.4811 c 0,11.6103 -9.4127,21.0232 -21.0234,21.0232 -11.611,0 -21.0234,-9.4129 -21.0234,-21.0232 0,-11.6125 9.4124,-21.0231 21.0234,-21.0231 11.6107,0 21.0234,9.4106 21.0234,21.0231"
         style="fill:#ad8663;fill-opacity:1;fill-rule:nonzero;stroke:none;stroke-width:0.0223318"
         id="path3900-2-8" /><path
         d="m 1476.9044,-3729.5042 -2.2566,0.2211 -0.6418,0.062 -3.0626,2.7512 4.3368,-2.4989 1.6242,-0.536"
         style="fill:#4d4237;fill-opacity:1;fill-rule:nonzero;stroke:none;stroke-width:0.0223318"
         id="path3902-4-6" /><path
         d="m 1450.7519,-3701.3751 -1.2323,4.3748 1.645,-3.3163 2.3479,-0.4131 -2.7606,-0.6454"
         style="fill:#4d4237;fill-opacity:1;fill-rule:nonzero;stroke:none;stroke-width:0.0223318"
         id="path3904-7-4" /><path
         d="m 1457.3056,-3690.4348 c 0,0 4.8773,4.7143 9.8445,6.378 -4.5157,-2.3136 -9.8445,-6.378 -9.8445,-6.378"
         style="fill:#4d4237;fill-opacity:1;fill-rule:nonzero;stroke:none;stroke-width:0.0223318"
         id="path3906-8-9" /><path
         d="m 1494.6966,-3704.6132 c 0,0 -2.2354,6.9764 -6.8413,9.1449 2.7772,-2.7111 6.8413,-9.1449 6.8413,-9.1449"
         style="fill:#4d4237;fill-opacity:1;fill-rule:nonzero;stroke:none;stroke-width:0.0223318"
         id="path3908-9-0" /><path
         d="m 1479.741,-3719.3031 9.0926,4.29 c 0,0 -4.8482,-1.6325 -9.0926,-4.29"
         style="fill:#4d4237;fill-opacity:1;fill-rule:nonzero;stroke:none;stroke-width:0.0223318"
         id="path3910-01-4" /><path
         d="m 1454.5407,-3725.2433 c 0,0 5.2035,-6.1949 18.0285,-6.4651 -8.1286,1.264 -12.6651,1.6414 -18.0285,6.4651"
         style="fill:#c4a895;fill-opacity:1;fill-rule:nonzero;stroke:none;stroke-width:0.0223318"
         id="path3914-1-7" /></g></g></svg>
