<?xml version="1.0" encoding="UTF-8" standalone="no"?>
<!-- Created with Inkscape (http://www.inkscape.org/) -->

<svg
   width="99.999756mm"
   height="91.688477mm"
   viewBox="0 0 99.999756 91.688477"
   version="1.1"
   id="svg20458"
   xml:space="preserve"
   inkscape:version="1.2.2 (732a01da63, 2022-12-09)"
   sodipodi:docname="stage.svg"
   inkscape:export-filename="panel2.svg"
   inkscape:export-xdpi="23.161549"
   inkscape:export-ydpi="23.161549"
   xmlns:inkscape="http://www.inkscape.org/namespaces/inkscape"
   xmlns:sodipodi="http://sodipodi.sourceforge.net/DTD/sodipodi-0.dtd"
   xmlns="http://www.w3.org/2000/svg"
   xmlns:svg="http://www.w3.org/2000/svg"><sodipodi:namedview
     id="namedview20460"
     pagecolor="#ffffff"
     bordercolor="#000000"
     borderopacity="0.25"
     inkscape:showpageshadow="2"
     inkscape:pageopacity="0.0"
     inkscape:pagecheckerboard="0"
     inkscape:deskcolor="#d1d1d1"
     inkscape:document-units="mm"
     showgrid="false"
     inkscape:zoom="0.32"
     inkscape:cx="10354.688"
     inkscape:cy="-19710.938"
     inkscape:window-width="1920"
     inkscape:window-height="991"
     inkscape:window-x="-9"
     inkscape:window-y="-9"
     inkscape:window-maximized="1"
     inkscape:current-layer="layer1"
     showguides="false" /><defs
     id="defs20455" /><g
     inkscape:label="Vrstva 1"
     inkscape:groupmode="layer"
     id="layer1"
     transform="translate(-3227.9512,5221.0208)"><g
       id="g12741"
       transform="matrix(1.6666667,0,0,1.6666667,-1046.68,4190.4546)"><path
         d="m 2624.7787,-5591.872 -60,-2.6296 1.8556,-49.6385 55.0302,-2.7452 3.1142,55.0132"
         style="fill:#665c50;fill-opacity:1;fill-rule:nonzero;stroke:none;stroke-width:0.0281845"
         id="path3350-3" /><path
         d="m 2622.1496,-5594.5016 -55.0514,-3.5541 2.6288,-43.6099 49.0207,-2.4745 3.4019,49.6385"
         style="fill:#c4b3a8;fill-opacity:1;fill-rule:nonzero;stroke:none;stroke-width:0.0281845"
         id="path3352-2" /><path
         d="m 2567.0982,-5598.0557 -2.3195,3.5541 59.9999,2.6296 -2.629,-2.6296 -55.0514,-3.5541"
         style="fill:#50473e;fill-opacity:1;fill-rule:nonzero;stroke:none;stroke-width:0.0281845"
         id="path3354-1" /><path
         d="m 2569.727,-5641.6655 -3.0927,-2.4746 55.0302,-2.7452 -2.9168,2.7452 -49.0207,2.4746"
         style="fill:#7d7164;fill-opacity:1;fill-rule:nonzero;stroke:none;stroke-width:0.0281845"
         id="path3356-2" /><path
         d="m 2620.4255,-5642.1954 -1.4475,1.4177 -4.6223,0.6905 h 4.6733 l 1.3965,-2.1082"
         style="fill:#423630;fill-opacity:1;fill-rule:nonzero;stroke:none;stroke-width:0.0281845"
         id="path3358-6" /><path
         d="m 2623.5887,-5596.0602 -1.6829,-1.9955 h -5.071 l 5.0724,0.3129 1.6815,1.6826"
         style="fill:#423630;fill-opacity:1;fill-rule:nonzero;stroke:none;stroke-width:0.0281845"
         id="path3360-4" /><path
         d="m 2567.0982,-5628.2892 2.119,-5.386 3.2485,-0.513 -3.3094,1.5248 -2.0581,4.3742"
         style="fill:#423630;fill-opacity:1;fill-rule:nonzero;stroke:none;stroke-width:0.0281845"
         id="path3362-5" /><path
         d="m 2569.782,-5600.8882 20.1237,2.0913 c 0,0 -17.6756,-1.0175 -20.1237,-2.0913"
         style="fill:#423630;fill-opacity:1;fill-rule:nonzero;stroke:none;stroke-width:0.0281845"
         id="path3364-8" /><path
         d="m 2579.8438,-5643.3369 27.2454,-1.5952 c 0,0 -24.7403,1.7108 -27.2454,1.5952"
         style="fill:#423630;fill-opacity:1;fill-rule:nonzero;stroke:none;stroke-width:0.0281845"
         id="path3366-1" /><path
         d="m 2569.727,-5641.6655 11.7222,-0.5919 c 0,0 -10.2718,0.9808 -11.7222,0.5919"
         style="fill:#dac6b8;fill-opacity:1;fill-rule:nonzero;stroke:none;stroke-width:0.0281845"
         id="path3368-32" /><path
         d="m 2594.6238,-5596.28 22.7668,1.3162 c 0,0 -16.9941,-2.1308 -22.7668,-1.3162"
         style="fill:#dac6b8;fill-opacity:1;fill-rule:nonzero;stroke:none;stroke-width:0.0281845"
         id="path3370-0" /><path
         d="m 2621.1093,-5625.0169 1.0403,19.2951 c 0,0 0.2136,-16.3386 -1.0403,-19.2951"
         style="fill:#423630;fill-opacity:1;fill-rule:nonzero;stroke:none;stroke-width:0.0281845"
         id="path3372-7" /><path
         d="m 2608.5709,-5604.1238 8.2639,-3.6499 c 0,0 -7.238,1.7165 -8.2639,3.6499"
         style="fill:#423630;fill-opacity:1;fill-rule:nonzero;stroke:none;stroke-width:0.0281845"
         id="path3374-1" /><path
         d="m 2566.6808,-5619.6281 -0.5126,17.8972 c 0,0 0.8548,-15.6171 0.5126,-17.8972"
         style="fill:#423630;fill-opacity:1;fill-rule:nonzero;stroke:none;stroke-width:0.0281845"
         id="path3376-05" /></g></g><style
     type="text/css"
     id="style13890">
	.st0{fill:none;stroke:#000000;stroke-width:2;stroke-linecap:round;stroke-linejoin:round;stroke-miterlimit:10;}
</style></svg>
