<?xml version="1.0" encoding="UTF-8" standalone="no"?>
<!-- Created with Inkscape (http://www.inkscape.org/) -->

<svg
   width="99.999756mm"
   height="91.688477mm"
   viewBox="0 0 99.999756 91.688477"
   version="1.1"
   id="svg20458"
   xml:space="preserve"
   inkscape:version="1.2.2 (732a01da63, 2022-12-09)"
   sodipodi:docname="stage.svg"
   inkscape:export-filename="panel2.svg"
   inkscape:export-xdpi="23.161549"
   inkscape:export-ydpi="23.161549"
   xmlns:inkscape="http://www.inkscape.org/namespaces/inkscape"
   xmlns:sodipodi="http://sodipodi.sourceforge.net/DTD/sodipodi-0.dtd"
   xmlns="http://www.w3.org/2000/svg"
   xmlns:svg="http://www.w3.org/2000/svg"><sodipodi:namedview
     id="namedview20460"
     pagecolor="#ffffff"
     bordercolor="#000000"
     borderopacity="0.25"
     inkscape:showpageshadow="2"
     inkscape:pageopacity="0.0"
     inkscape:pagecheckerboard="0"
     inkscape:deskcolor="#d1d1d1"
     inkscape:document-units="mm"
     showgrid="false"
     inkscape:zoom="0.32"
     inkscape:cx="10354.688"
     inkscape:cy="-19710.938"
     inkscape:window-width="1920"
     inkscape:window-height="991"
     inkscape:window-x="-9"
     inkscape:window-y="-9"
     inkscape:window-maximized="1"
     inkscape:current-layer="layer1"
     showguides="false" /><defs
     id="defs20455" /><g
     inkscape:label="Vrstva 1"
     inkscape:groupmode="layer"
     id="layer1"
     transform="translate(-3227.9512,5391.9945)"><g
       id="g12773"
       transform="matrix(1.6666667,0,0,1.6666667,-664.26399,4086.8589)"><path
         d="m 2395.3291,-5632.2989 -60,-2.6284 1.8558,-49.6374 55.0267,-2.7472 3.1175,55.013"
         style="fill:#796853;fill-opacity:1;fill-rule:nonzero;stroke:none;stroke-width:0.0457108"
         id="path4430-91" /><path
         d="m 2392.7007,-5634.9273 -55.0495,-3.5563 2.6283,-43.6081 49.0157,-2.473 3.4055,49.6374"
         style="fill:#dcd1c9;fill-opacity:1;fill-rule:nonzero;stroke:none;stroke-width:0.0457108"
         id="path4432-69" /><path
         d="m 2337.6512,-5638.4836 -2.3221,3.5563 60,2.6284 -2.6284,-2.6284 -55.0495,-3.5563"
         style="fill:#5f5241;fill-opacity:1;fill-rule:nonzero;stroke:none;stroke-width:0.0457108"
         id="path4434-4" /><path
         d="m 2340.2795,-5682.0917 -3.0946,-2.473 55.0267,-2.7472 -2.9164,2.7472 -49.0157,2.473"
         style="fill:#9c876f;fill-opacity:1;fill-rule:nonzero;stroke:none;stroke-width:0.0457108"
         id="path4436-55" /><path
         d="m 2390.9728,-5682.622 -1.4444,1.4171 -4.6214,0.6902 h 4.6716 l 1.3942,-2.1073"
         style="fill:#45352d;fill-opacity:1;fill-rule:nonzero;stroke:none;stroke-width:0.0457108"
         id="path4438-1" /><path
         d="m 2394.136,-5636.4906 -1.6821,-1.993 h -5.0694 l 5.0694,0.3154 1.6821,1.6776"
         style="fill:#45352d;fill-opacity:1;fill-rule:nonzero;stroke:none;stroke-width:0.0457108"
         id="path4440-2" /><path
         d="m 2337.6512,-5668.7167 2.1164,-5.3848 3.25,-0.5119 -3.3094,1.5221 -2.057,4.3746"
         style="fill:#45352d;fill-opacity:1;fill-rule:nonzero;stroke:none;stroke-width:0.0457108"
         id="path4442-49" /><path
         d="m 2340.3344,-5641.3177 20.1219,2.0936 c 0,0 -17.6764,-1.0194 -20.1219,-2.0936"
         style="fill:#45352d;fill-opacity:1;fill-rule:nonzero;stroke:none;stroke-width:0.0457108"
         id="path4444-3" /><path
         d="m 2350.3953,-5683.7602 27.2437,-1.5998 c 0,0 -24.7387,1.7141 -27.2437,1.5998"
         style="fill:#443f35;fill-opacity:1;fill-rule:nonzero;stroke:none;stroke-width:0.0457108"
         id="path4446-2" /><path
         d="m 2340.2795,-5682.0917 11.7203,-0.5897 c 0,0 -10.2712,0.9782 -11.7203,0.5897"
         style="fill:#b29c8a;fill-opacity:1;fill-rule:nonzero;stroke:none;stroke-width:0.0457108"
         id="path4448-9" /><path
         d="m 2365.1736,-5636.7055 22.764,1.3119 c 0,0 -16.9907,-2.1301 -22.764,-1.3119"
         style="fill:#b29c8a;fill-opacity:1;fill-rule:nonzero;stroke:none;stroke-width:0.0457108"
         id="path4450-9" /><path
         d="m 2391.6585,-5665.4438 1.0422,19.2945 c 0,0 0.2103,-16.3371 -1.0422,-19.2945"
         style="fill:#443f35;fill-opacity:1;fill-rule:nonzero;stroke:none;stroke-width:0.0457108"
         id="path4452-6" /><path
         d="m 2379.12,-5644.5494 8.2645,-3.6523 c 0,0 -7.2406,1.7187 -8.2645,3.6523"
         style="fill:#45352d;fill-opacity:1;fill-rule:nonzero;stroke:none;stroke-width:0.0457108"
         id="path4454-0" /><path
         d="m 2337.2306,-5660.0545 -0.5119,17.8957 c 0,0 0.8548,-15.6148 0.5119,-17.8957"
         style="fill:#45352d;fill-opacity:1;fill-rule:nonzero;stroke:none;stroke-width:0.0457108"
         id="path4456-1" /></g></g><style
     type="text/css"
     id="style13890">
	.st0{fill:none;stroke:#000000;stroke-width:2;stroke-linecap:round;stroke-linejoin:round;stroke-miterlimit:10;}
</style></svg>
