<?xml version="1.0" encoding="UTF-8" standalone="no"?>
<svg
   xmlns:dc="http://purl.org/dc/elements/1.1/"
   xmlns:cc="http://creativecommons.org/ns#"
   xmlns:rdf="http://www.w3.org/1999/02/22-rdf-syntax-ns#"
   xmlns:svg="http://www.w3.org/2000/svg"
   xmlns="http://www.w3.org/2000/svg"
   xmlns:sodipodi="http://sodipodi.sourceforge.net/DTD/sodipodi-0.dtd"
   xmlns:inkscape="http://www.inkscape.org/namespaces/inkscape"
   version="1.1"
   id="svg2"
   xml:space="preserve"
   width="466.66666"
   height="349.16"
   viewBox="0 0 466.66666 349.16"
   sodipodi:docname="tank_002.eps"><metadata
     id="metadata8"><rdf:RDF><cc:Work
         rdf:about=""><dc:format>image/svg+xml</dc:format><dc:type
           rdf:resource="http://purl.org/dc/dcmitype/StillImage" /></cc:Work></rdf:RDF></metadata><defs
     id="defs6" /><sodipodi:namedview
     pagecolor="#ffffff"
     bordercolor="#666666"
     borderopacity="1"
     objecttolerance="10"
     gridtolerance="10"
     guidetolerance="10"
     inkscape:pageopacity="0"
     inkscape:pageshadow="2"
     inkscape:window-width="640"
     inkscape:window-height="480"
     id="namedview4" /><g
     id="g10"
     inkscape:groupmode="layer"
     inkscape:label="ink_ext_XXXXXX"
     transform="matrix(1.3333333,0,0,-1.3333333,0,349.16)"><g
       id="g12"
       transform="scale(0.1)"><path
         d="m 564.246,2070.17 c 72.195,88.35 108.508,190.31 108.414,278.44 -0.101,69.93 -22.312,130.13 -65.851,171.3 l -10.438,9.2 c -36.609,29.77 -82.078,44.26 -132.664,44.44 -323.41,-99.27 -398.2187,-363.59 -415.3476,-490.69 8.3047,-56.02 32.7148,-103.44 72.8786,-136.24 36.793,-30 82.532,-44.52 133.426,-44.58 100.879,-0.25 220.832,59.18 309.582,168.13 z m -294.629,-91.08 h -0.281 c -37.219,0 -72.988,10.79 -101.625,34.23 -40.055,32.68 -58.379,83.12 -58.27,137.24 0.129,71.25 30.387,151.22 87.422,221.24 69.41,84.69 160.903,134.24 243.469,134.63 37.313,0.05 73.215,-10.75 101.91,-34.25 40.031,-32.67 58.36,-83.11 58.25,-137.24 -0.125,-71.25 -30.371,-151.23 -87.406,-221.26 -69.426,-84.65 -160.914,-134.21 -243.469,-134.59 z m 776.663,-156.38 -36.48,30.45 c -14.519,-27.65 -29.687,-51.58 -44.964,-72.39 l 37.114,-27.66 c 16.07,19.92 31.2,42.93 44.33,69.6 z m 36.08,108.34 c 0.22,1.12 0.69,2.13 1.26,3.03 l -30.07,21.39 c -10.93,-31.72 -22.82,-60.26 -35.33,-85.82 l 35.9,-29.96 c 11.72,26.95 21.48,57.19 28.24,91.36 z m 634.57,-498.25 c -0.03,0.1 -0.05,0.21 -0.09,0.34 -0.24,0.74 -0.78,2.06 -1.64,3.66 -1.72,3.2 -4.75,7.48 -8.39,11.79 -2.93,3.48 -6.24,6.95 -9.55,10.26 -1.76,-13.85 -4.86,-30.71 -10.17,-48.94 l 20.52,-17.14 c 3.56,12.39 6.73,25.63 9.32,40.03 z M 1111.29,968.555 c -4.71,-6.094 -9.55,-12.461 -14.53,-19.18 -26.25,-35.383 -55.9,-79.414 -84.21,-129.668 31.24,2.949 61.55,6.379 91.08,10.117 l 59.01,103.848 c 2.46,4.316 7.97,5.84 12.31,3.391 4.32,-2.473 5.84,-7.993 3.39,-12.317 l -52.3,-91.992 c 45.39,6.113 88.58,13.035 129.48,20.5 2.73,3.387 7.47,4.527 11.37,2.305 0.07,-0.039 0.11,-0.118 0.18,-0.161 40.69,7.598 79.1,15.676 114.89,23.989 l 31.42,55.261 c 2.46,4.336 7.98,5.848 12.3,3.387 4.34,-2.469 5.85,-7.969 3.39,-12.305 l -23.12,-40.664 c 131.62,31.848 226.25,65.598 275.4,84.875 l 93.71,119.739 z m 554.47,388.535 c -10.26,-19.34 -23.94,-38.39 -41.7,-55.37 l 23.31,-17.06 c 21.24,21.02 40.32,49.68 54.34,89.55 l -20.65,17.23 c -4.12,-11.28 -9.15,-22.85 -15.3,-34.35 z m 502.25,-181.95 c -115.95,-10.79 -201.96,-29.79 -259.14,-46.22 L 1733.71,926.238 h 32.66 l 77.49,104.352 c 2.98,3.99 8.62,4.83 12.62,1.86 4,-2.99 4.85,-8.63 1.88,-12.63 l -69.51,-93.582 h 60.19 l 128.44,172.972 c 2.97,3.98 8.63,4.83 12.62,1.86 4.01,-2.98 4.85,-8.63 1.87,-12.62 L 1871.52,926.238 h 180.2 c -0.83,2.864 -0.4,6.035 1.71,8.442 l 86.63,99.2 c 3.28,3.76 8.97,4.14 12.73,0.87 3.76,-3.27 4.14,-8.99 0.87,-12.73 l -83.65,-95.782 h 33.51 l 253.62,229.802 c -69.31,10.85 -132.64,16.56 -189.13,19.1 z m -340.27,457.18 c 75.01,0 166.37,-7.7 273.37,-30.2 4.87,-1.03 8,-5.8 6.98,-10.68 -1.04,-4.87 -5.82,-8 -10.71,-6.98 -105.79,22.22 -195.86,29.83 -269.64,29.83 -100.89,0 -171.22,-14.2 -209.71,-24.78 l 20.41,-18.1 c 1.32,0.47 2.68,0.86 4.11,1.08 54.28,8.62 112.59,11.65 168.7,11.65 145.78,-0.02 276.71,-20.57 277.38,-20.67 12.25,-1.91 20.67,-13.42 18.81,-25.67 l -48.03,-316.36 c 12.18,0.3 24.69,0.51 37.89,0.51 22.34,0.01 46.12,-0.45 71.24,-1.56 l 88.32,475.8 c -97.13,12.02 -187.6,18.55 -271.75,20.73 -272.22,-25.74 -388.81,-55.03 -432.56,-69.31 l 49.49,-43.92 c 36.79,11.11 112.76,28.63 225.7,28.63 z m -591.49,-426.77 -23.75,2.26 -41.2,-121.87 c 8.95,1.21 17.88,2.4 26.76,3.56 z m -112.85,576.33 c 3.81,-3.2 4.33,-8.9 1.14,-12.71 -1.78,-2.15 -4.35,-3.25 -6.93,-3.25 -2.04,0 -4.1,0.69 -5.79,2.11 l -51.35,42.85 c -13.17,-26.04 -28.17,-48.73 -44.07,-68.54 l 29.03,-21.64 c 7.25,10.88 14.29,22.62 20.99,35.49 2.29,4.42 7.72,6.15 12.16,3.85 4.42,-2.3 6.14,-7.72 3.85,-12.16 -7.16,-13.77 -14.7,-26.36 -22.49,-37.99 l 338.91,-252.59 c 3.09,2.97 7.86,3.52 11.46,0.91 l 198.91,-145.62 c 17.27,16.08 30.48,34.34 40.63,53.05 6.85,12.72 12.17,25.64 16.39,38.17 l -92.72,77.37 c -3.84,3.21 -4.34,8.89 -1.14,12.73 3.18,3.82 8.87,4.33 12.69,1.13 l 86.79,-72.43 c 5.3,20.23 7.76,38.33 8.86,51.34 -2.48,2.07 -3.91,3.17 -3.92,3.19 l -1.15,0.95 -198.09,175.77 -378.51,269.25 c -7.41,-35.65 -17.91,-67.31 -30.57,-95.41 z m -608.857,-939.36 56.562,4.875 109.036,146.171 c 2.984,4 8.625,4.825 12.617,1.832 4,-2.964 4.82,-8.621 1.851,-12.625 l -99.453,-133.32 69.946,6.016 54.621,73.222 c 2.968,3.973 8.629,4.793 12.621,1.829 3.996,-2.993 4.812,-8.625 1.828,-12.622 l -45.012,-60.359 96.547,8.313 77.953,104.519 c 2.965,3.984 8.625,4.805 12.617,1.836 3.996,-2.988 4.817,-8.633 1.848,-12.629 l -68.379,-91.656 72.445,6.219 155.479,211.349 -8.27,-0.88 c -2.79,-1.19 -5.73,-2.02 -8.8,-2.02 -1.64,0 -3.28,0.2 -4.91,0.57 L 863.773,1067.1 639.746,1013.48 Z M 717.262,685.957 c 2.601,4.238 8.148,5.586 12.402,3.008 4.246,-2.598 5.594,-8.137 3.012,-12.41 l -21.449,-35.176 141.378,9.266 c 0.086,0.128 0.114,0.285 0.204,0.402 l 56.402,82.586 -61.113,-5.188 -34.899,-57.222 c -1.691,-2.778 -4.664,-4.321 -7.711,-4.321 -1.593,0 -3.215,0.422 -4.675,1.321 -4.266,2.605 -5.614,8.144 -3.016,12.414 l 27.988,45.918 -137.347,-11.672 -37.622,-61.692 c -1.695,-2.793 -4.668,-4.324 -7.714,-4.324 -1.598,0 -3.215,0.43 -4.68,1.309 -4.266,2.605 -5.613,8.144 -3.012,12.414 l 30.735,50.398 -78.239,-6.633 -22.789,-37.39 c -1.703,-2.774 -4.679,-4.317 -7.719,-4.317 -1.597,0 -3.218,0.43 -4.687,1.329 -4.242,2.597 -5.598,8.132 -2.992,12.402 l 15.902,26.086 -47.105,-4.004 c -0.485,-1.313 -1.071,-2.609 -1.821,-3.859 l -42.441,-70.75 214.945,14.089 z m 1099.588,61.121 c 4.24,-2.598 5.58,-8.164 3.01,-12.41 l -18.89,-30.969 h 127 l 24.62,40.364 c 2.6,4.25 8.14,5.593 12.4,3 4.25,-2.598 5.6,-8.149 3,-12.407 l -18.88,-30.957 h 64.31 l 30.49,49.973 c 2.57,4.25 8.12,5.598 12.4,3.019 4.22,-2.597 5.58,-8.156 2.99,-12.406 l -24.74,-40.586 h 29.39 l 83.39,81.196 h -199.47 l -36.3,-59.536 c -1.69,-2.781 -4.68,-4.312 -7.72,-4.312 -1.6,0 -3.22,0.418 -4.69,1.297 -4.25,2.605 -5.6,8.164 -2.99,12.422 l 30.56,50.129 h -197.62 c -0.16,-0.286 -0.24,-0.586 -0.4,-0.872 l -47.03,-80.324 h 98.16 l 24.59,40.364 c 2.61,4.257 8.17,5.593 12.42,3.015 z m -758.83,385.912 20.65,2.18 c 6.94,2.67 15.02,1.9 21.45,-2.83 4.12,-3.03 6.84,-7.23 8.18,-11.79 l 43.15,-37 42.59,126.03 -97.04,9.27 z m -245.618,-728.256 -168.929,-3.816 8.507,-18.586 169.254,3.137 z m 28.504,-18.894 140.696,2.598 -10.805,19.882 -138.754,-3.132 z m -255.207,13.769 9.805,-18.32 36.781,0.684 -8.476,18.496 z m 1209.021,24.422 8.32,-15.633 45.06,-0.734 -6.9,16.367 z m 299.13,-20.398 71.15,-1.16 -9,21.558 h -70.75 z m -157.04,20.398 h -76.02 l 7.03,-16.687 76.54,-1.262 z m 27.26,-18.269 110.06,-1.809 -8.45,20.078 h -109.29 z m -50.87,-204.27 9.07,-17.027 114.86,-1.887 -7.97,18.914 z m 296.82,0 9.22,-21.89 39.05,-0.649 -9.4,22.539 z m -161.3,0 8.1,-19.234 96.73,-1.582 -8.78,20.816 z m 115.64,0 8.9,-21.14 26.26,-0.43 -9.08,21.57 z m -1121.33,0.891 7.56,-17.942 42.45,-0.957 -9.96,18.325 z m -354.538,5.176 8.113,-15.164 182.665,-4.102 -6.985,16.59 z m 203.481,-2.969 7.05,-16.746 131.817,-2.961 -7.5,17.793 z m 97.39,488.801 c -2.609,-0.344 -4.945,-0.664 -7.367,-0.989 l 31.054,-56.203 c 26.31,7.485 74.42,20.156 140.38,33.418 l -16.96,40.278 c -62.88,-6.016 -112.92,-12.012 -147.107,-16.504 z m 512.787,38.589 7.18,-17.058 c 41.31,2.394 84.45,3.887 129.16,4.258 l 8.62,14.718 c -0.58,0 -1.15,0.008 -1.72,0.008 -49.53,0 -97.36,-0.691 -143.24,-1.926 z m -346.84,-20.332 16.21,-38.484 c 83.38,16.082 192.02,32.344 318.72,40.598 l -7.43,17.664 c -127.59,-3.836 -239.08,-11.668 -327.5,-19.778"
         style="fill:#b2b2b2;fill-opacity:1;fill-rule:nonzero;stroke:none"
         id="path14" /><path
         d="m 1923.47,348.816 c -1.94,4.59 0.22,9.895 4.82,11.821 4.57,1.929 9.87,-0.227 11.8,-4.809 l 45.98,-109.219 h 87.75 l -33.77,80.188 c -1.94,4.59 0.22,9.894 4.81,11.808 4.58,1.942 9.89,-0.199 11.81,-4.796 l 36.72,-87.2 136.66,0.012 -65.05,155.852 -71.15,1.16 47.36,-112.488 c 1.93,-4.602 -0.23,-9.895 -4.82,-11.829 -1.14,-0.488 -2.32,-0.711 -3.49,-0.711 -3.51,0 -6.85,2.079 -8.31,5.516 l -50.46,119.832 -110.06,1.809 22.65,-53.809 c 1.93,-4.582 -0.23,-9.883 -4.82,-11.816 -1.13,-0.481 -2.32,-0.711 -3.48,-0.711 -3.53,0 -6.88,2.078 -8.32,5.523 l -25.74,61.133 -76.54,1.262 38.59,-91.66 c 1.93,-4.59 -0.22,-9.891 -4.83,-11.829 -1.13,-0.476 -2.32,-0.71 -3.48,-0.71 -3.52,0 -6.87,2.082 -8.31,5.527 l -41.69,98.992 -45.06,0.734 86.15,-161.796 h 77.3 z m 12.96,252.629 c -1.95,4.602 0.21,9.883 4.81,11.828 4.6,1.922 9.89,-0.238 11.81,-4.816 l 58.67,-139.316 h 125.45 l -79.08,189.445 h -68.88 l 36.38,-86.406 c 1.95,-4.59 -0.22,-9.875 -4.81,-11.809 -1.15,-0.476 -2.33,-0.715 -3.51,-0.715 -3.51,0 -6.85,2.082 -8.29,5.539 l -39.34,93.391 h -87.22 l 26.56,-63.066 c 1.93,-4.622 -0.22,-9.895 -4.81,-11.829 -1.15,-0.476 -2.32,-0.711 -3.49,-0.711 -3.52,0 -6.86,2.079 -8.32,5.528 l -29.52,70.078 h -30.98 l 55.44,-131.672 c 1.93,-4.598 -0.22,-9.883 -4.82,-11.816 -1.14,-0.481 -2.34,-0.711 -3.5,-0.711 -3.51,0 -6.86,2.078 -8.3,5.515 l -58.41,138.684 h -62.23 l 32,-76.027 c 1.94,-4.59 -0.22,-9.895 -4.81,-11.829 -1.16,-0.476 -2.34,-0.718 -3.51,-0.718 -3.51,0 -6.84,2.09 -8.3,5.535 l -34.97,83.039 h -60.62 L 1770.7,469.141 h 221.45 z m -318.82,82.078 20.88,35.657 c -44.71,-0.371 -87.85,-1.864 -129.16,-4.258 l 40.22,-95.52 c 1.94,-4.586 -0.21,-9.879 -4.82,-11.812 -1.14,-0.488 -2.33,-0.715 -3.5,-0.715 -3.51,0 -6.85,2.078 -8.31,5.527 l -42.68,101.36 c -126.7,-8.254 -235.34,-24.516 -318.72,-40.598 l 27.64,-65.625 c 1.93,-4.59 -0.23,-9.891 -4.82,-11.816 -1.15,-0.489 -2.33,-0.711 -3.5,-0.711 -3.52,0 -6.87,2.078 -8.32,5.515 l -29.09,69.09 c -65.96,-13.262 -114.07,-25.933 -140.38,-33.418 l 128.86,-233.164 61.7,0.871 -46.02,109.297 c -1.94,4.578 0.22,9.883 4.83,11.817 4.58,1.933 9.88,-0.223 11.81,-4.817 l 48.85,-116.023 193.44,2.722 -96.66,229.575 c -1.94,4.578 0.22,9.878 4.8,11.812 4.61,1.938 9.89,-0.223 11.82,-4.812 l 99.5,-236.297 33.66,0.476 -70.29,166.914 c -1.92,4.59 0.22,9.883 4.83,11.817 4.58,1.933 9.87,-0.227 11.81,-4.824 l 73.12,-173.633 77.01,1.074 -15.72,37.324 c -1.94,4.61 0.23,9.895 4.81,11.836 4.59,1.926 9.89,-0.234 11.83,-4.824 l 18.54,-44.063 72.58,1.028 -45.09,107.066 c -1.93,4.602 0.23,9.875 4.82,11.82 4.59,1.93 9.9,-0.238 11.81,-4.816 l 47.93,-113.801 72.6,1.028 -133.06,249.914 c -3.69,6.929 -3.53,15.254 0.44,22.007 z M 2681.2,424.27 c 38.9,41.55 63.16,99.199 63.16,163.25 0,64.035 -24.26,121.699 -63.16,163.253 -38.95,41.563 -92.03,66.844 -150.7,66.864 -58.66,-0.02 -111.74,-25.301 -150.7,-66.864 -38.88,-41.554 -63.16,-99.218 -63.16,-163.253 0,-64.051 24.28,-121.7 63.16,-163.25 38.96,-41.567 92.04,-66.848 150.7,-66.868 58.67,0.02 111.75,25.301 150.7,66.868 z m -311.79,163.242 c 0,95.086 72.13,172.168 161.1,172.168 88.96,0 161.09,-77.082 161.09,-172.168 0,-95.078 -72.13,-172.16 -161.09,-172.16 -88.97,0 -161.1,77.082 -161.1,172.16 z M 734.199,331.992 c -1.941,4.59 0.227,9.871 4.817,11.817 4.593,1.933 9.879,-0.227 11.82,-4.817 l 36.945,-87.769 22.84,-0.325 -29.781,70.735 c -1.938,4.59 0.223,9.871 4.82,11.812 4.57,1.938 9.883,-0.222 11.801,-4.82 l 32.867,-78.02 123.539,-1.796 -38.301,90.957 c -1.937,4.589 0.227,9.89 4.821,11.804 4.59,1.946 9.883,-0.203 11.82,-4.793 l 41.371,-98.254 84.772,-1.226 -76.748,141.141 -140.696,-2.598 39.52,-86.199 c 2.062,-4.536 0.07,-9.883 -4.446,-11.953 -1.218,-0.571 -2.5,-0.833 -3.757,-0.833 -3.418,0 -6.692,1.954 -8.2,5.274 l -42.789,93.34 -169.254,-3.137 36.711,-80.105 c 2.071,-4.524 0.094,-9.891 -4.437,-11.954 -1.227,-0.566 -2.508,-0.832 -3.766,-0.832 -3.418,0 -6.687,1.965 -8.199,5.266 l -40.004,87.266 -36.781,-0.684 69.793,-130.398 c 2.894,1.277 6.074,2.031 9.449,1.98 l 93.34,-1.355 z M 909.418,778.906 882.754,828.914 458.402,792.41 491.41,743.43 Z m 141.172,-594.465 18.93,-44.949 c 1.94,-4.582 -0.23,-9.875 -4.81,-11.816 -1.14,-0.488 -2.32,-0.703 -3.49,-0.703 -3.53,0 -6.87,2.07 -8.32,5.527 l -22.06,52.383 -131.817,2.961 28.004,-66.489 c 1.918,-4.597 -0.23,-9.902 -4.832,-11.812 -1.14,-0.488 -2.324,-0.727 -3.496,-0.727 -3.508,0 -6.859,2.082 -8.304,5.532 l -31.125,73.945 -182.665,4.102 75.735,-141.4966 67.34,-0.1562 -35.516,84.3358 c -1.945,4.59 0.207,9.895 4.813,11.817 4.582,1.945 9.867,-0.235 11.808,-4.817 l 38.488,-91.3866 116.172,-0.2617 -43,93.8003 c -2.074,4.532 -0.074,9.879 4.453,11.961 4.54,2.082 9.875,0.079 11.95,-4.441 L 995.313,50.3828 1165.62,50 1093.04,183.484 Z M 721.254,535 c -1.934,4.578 0.226,9.871 4.824,11.816 4.582,1.922 9.879,-0.214 11.813,-4.812 l 39.183,-92.934 169.485,3.84 -83.317,153.223 -81.758,-5.352 39.301,-93.359 c 1.934,-4.602 -0.222,-9.895 -4.816,-11.817 -1.145,-0.488 -2.336,-0.722 -3.508,-0.722 -3.508,0 -6.848,2.082 -8.305,5.515 l -41.453,98.469 c -0.09,0.215 -0.062,0.449 -0.137,0.672 l -103.527,-6.773 29.824,-69.114 c 1.989,-4.57 -0.133,-9.863 -4.707,-11.843 -1.168,-0.508 -2.379,-0.743 -3.57,-0.743 -3.492,0 -6.813,2.032 -8.277,5.45 l -31.485,72.898 c -0.297,0.691 -0.332,1.406 -0.449,2.117 l -30.148,-1.968 47.363,-103.372 c 2.078,-4.531 0.09,-9.882 -4.43,-11.961 -1.222,-0.57 -2.496,-0.832 -3.758,-0.832 -3.422,0 -6.687,1.961 -8.211,5.286 l -50.23,109.617 -102.645,-6.731 73.747,-137.8 c 1.378,0.3 2.792,0.5 4.253,0.527 l 191.372,4.336 z M 3182.21,498.77 c -55.28,-0.11 -102.15,-48.504 -102.26,-110.848 0.11,-62.309 46.98,-110.695 102.26,-110.813 55.26,0.118 102.14,48.504 102.23,110.813 -0.09,62.344 -46.97,110.738 -102.23,110.848 z m 0,-201.719 c -46.96,0 -85.03,40.683 -85.03,90.879 0,50.195 38.07,90.879 85.03,90.879 46.97,0 85.04,-40.684 85.04,-90.879 0,-50.196 -38.07,-90.879 -85.04,-90.879 z M 3047.1,513.113 c 27.36,0.078 51.62,24.348 51.74,56.86 -0.12,32.527 -24.38,56.804 -51.74,56.863 -27.39,-0.059 -51.64,-24.336 -51.75,-56.863 0.11,-32.512 24.36,-56.782 51.75,-56.86 z m 0,95.071 c 19.75,0 35.74,-17.11 35.74,-38.211 0,-21.106 -15.99,-38.215 -35.74,-38.215 -19.74,0 -35.74,17.109 -35.74,38.215 0,21.101 16,38.211 35.74,38.211 z M 2487.27,299.238 c -27.39,-0.066 -51.64,-24.343 -51.76,-56.875 h 0.03 c 0.09,-32.508 24.34,-56.765 51.73,-56.836 27.37,0.071 51.62,24.328 51.73,56.836 -0.11,32.532 -24.36,56.809 -51.73,56.875 z m 0,-95.078 c -19.74,0 -35.74,17.11 -35.74,38.203 0,21.114 16,38.223 35.74,38.223 19.74,0 35.75,-17.109 35.75,-38.223 0,-21.093 -16.01,-38.203 -35.75,-38.203 z m -348.01,625.852 -38.34,51.109 h -410.24 l 19.16,-51.109 z m 79.98,-650.41 13.61,-32.336 c 1.95,-4.59 -0.21,-9.883 -4.8,-11.817 -1.15,-0.488 -2.34,-0.715 -3.5,-0.715 -3.51,0 -6.86,2.082 -8.32,5.52 l -16.71,39.668 -26.26,0.43 25.92,-61.575 c 1.95,-4.597 -0.22,-9.871 -4.79,-11.824 -1.16,-0.476 -2.35,-0.715 -3.52,-0.715 -3.51,0 -6.85,2.082 -8.31,5.532 l -29.01,68.906 -96.73,1.582 24.51,-58.164 c 1.92,-4.602 -0.22,-9.883 -4.83,-11.828 -1.14,-0.481 -2.32,-0.711 -3.49,-0.711 -3.51,0 -6.86,2.078 -8.3,5.523 l -27.58,65.5 -114.86,1.887 74.19,-139.3166 H 2040 l -16.34,38.836 c -1.95,4.5898 0.21,9.8828 4.79,11.8086 4.61,1.9414 9.89,-0.2071 11.82,-4.7969 l 19.31,-45.8477 h 87.2 l -36.77,87.3316 c -1.94,4.59 0.22,9.895 4.81,11.817 4.59,1.941 9.88,-0.227 11.82,-4.817 l 39.71,-94.3316 h 147.8 l -55.86,133.8046 z m 554.8,140.625 c -13.51,0 -24.47,-11.711 -24.47,-26.164 0,-14.446 10.96,-26.141 24.47,-26.141 13.51,0 24.48,11.695 24.48,26.141 0,14.453 -10.97,26.164 -24.48,26.164 z m 233.23,-16.223 c -27.38,-0.066 -51.64,-24.336 -51.75,-56.863 h 0.02 c 0.09,-32.512 24.35,-56.782 51.73,-56.848 27.37,0.066 51.62,24.336 51.73,56.848 -0.11,32.527 -24.36,56.797 -51.73,56.863 z m 0,-95.078 c -19.74,0 -35.74,17.109 -35.74,38.203 0,21.113 16,38.223 35.74,38.223 19.75,0 35.75,-17.11 35.75,-38.223 0,-21.094 -16,-38.203 -35.75,-38.203 z m -233.23,195.976 c -55.28,-0.117 -102.15,-48.476 -102.26,-110.839 0.11,-62.313 46.98,-110.704 102.26,-110.801 55.26,0.097 102.13,48.488 102.23,110.801 -0.1,62.363 -46.97,110.722 -102.23,110.839 z m 0,-201.718 c -46.97,0 -85.04,40.695 -85.04,90.879 0,50.207 38.07,90.886 85.04,90.886 46.97,0 85.03,-40.679 85.03,-90.886 0,-50.184 -38.06,-90.879 -85.03,-90.879 z m -197.18,384.328 c 0,27.359 -20.75,49.551 -46.35,49.551 -25.6,0 -46.35,-22.192 -46.35,-49.551 0,-27.356 20.75,-49.543 46.35,-49.532 25.6,0 46.35,22.176 46.35,49.532 z M 1103.63,829.824 c -29.53,-3.738 -59.84,-7.168 -91.08,-10.117 -14.769,-26.223 -29.191,-54.031 -42.53,-83.406 21.179,2.879 50.38,6.621 86.51,10.664 z m 99.15,-68.769 51.79,91.113 c 0.25,0.437 0.64,0.715 0.95,1.086 -40.9,-7.465 -84.09,-14.387 -129.48,-20.5 l -47.4,-83.367 c 35.86,3.836 77.47,7.859 124.14,11.668 z m 67.49,82.199 -45.75,-80.481 c 29.8,2.305 61.48,4.493 94.85,6.485 l 62.59,110.129 c -35.79,-8.313 -74.2,-16.391 -114.89,-23.989 4.15,-2.507 5.62,-7.878 3.2,-12.144 z m 112.07,-70.598 48.77,85.801 c 2.44,4.336 7.96,5.852 12.29,3.379 4.32,-2.461 5.85,-7.957 3.39,-12.297 l -43.15,-75.906 c 45.18,2.004 92.78,3.547 142.47,4.465 l 47.37,83.355 c 2.48,4.336 7.97,5.852 12.31,3.391 4.34,-2.473 5.85,-7.969 3.38,-12.305 l -42.12,-74.101 c 25.63,0.371 51.72,0.593 78.34,0.593 9.24,-0.008 18.65,-0.054 28.06,-0.125 l 6.52,11.145 c -3.02,2.461 -5.45,5.672 -6.87,9.472 l -36.1,96.239 c -0.05,0.136 -0.05,0.273 -0.1,0.41 -0.56,1.582 -0.97,3.203 -1.17,4.844 -0.01,0.144 0,0.293 -0.01,0.437 -0.15,1.508 -0.13,3.02 0.02,4.516 0.05,0.496 0.17,1.004 0.25,1.504 0.2,1.14 0.47,2.261 0.84,3.367 0.18,0.547 0.39,1.094 0.62,1.621 0.43,1.023 0.97,2.012 1.56,2.98 0.22,0.348 0.34,0.743 0.58,1.082 0.11,0.168 0.27,0.286 0.39,0.45 0.15,0.195 0.24,0.41 0.39,0.605 l 40.98,52.363 c -49.15,-19.277 -143.78,-53.027 -275.4,-84.875 l -65.13,-114.558 c 13.57,0.754 27.43,1.465 41.52,2.148"
         style="fill:#595959;fill-opacity:1;fill-rule:nonzero;stroke:none"
         id="path16" /><path
         d="m 1811.25,1539.03 c -43,0 -86.99,-1.97 -128.71,-6.76 l 22.85,-20.28 c 5.19,-4.17 29.68,-23.55 45.36,-46.86 5.63,-8.92 11.07,-18.65 11.36,-32.38 0,-2.12 -0.18,-4.36 -0.58,-6.7 -18.01,-104.53 -65.18,-167.94 -118.33,-202.73 -53.05,-34.91 -109.74,-41.8 -147.72,-41.84 -23.99,0 -40.75,2.79 -45.19,3.61 l -120.94,11.56 -27.45,-94.2 c 15.97,1.89 31.79,3.7 47.45,5.46 l 16.84,57.81 c 1.39,4.81 6.4,7.53 11.19,6.14 4.78,-1.4 7.53,-6.4 6.14,-11.18 l -14.76,-50.64 c 132.47,14.57 253.34,24.72 356.38,31.77 l 55.8,154.56 c 1.7,4.68 6.86,7.11 11.55,5.42 4.69,-1.69 7.13,-6.87 5.44,-11.56 l -53.13,-147.12 c 26.54,1.75 51.82,3.31 75.73,4.66 l 36.36,46.46 c 3.14,4.05 7.69,6.94 12.69,8.09 1.06,0.23 53.13,12.11 143.92,17.26 l 45.91,302.45 c -14.18,1.88 -34.61,4.4 -59.6,6.92 -49.97,5.05 -117.77,10.08 -188.56,10.08 z m 210.61,-60.99 c 0,-11.55 -9.36,-20.9 -20.9,-20.9 -11.55,0 -20.9,9.35 -20.9,20.9 0,11.53 9.35,20.9 20.9,20.9 11.54,0 20.9,-9.37 20.9,-20.9 z m 323.78,73.26 c 1.17,6.34 5.04,11.92 10.57,15.24 5.52,3.32 12.26,4.12 18.41,2.17 0.76,-0.37 205.02,-64.67 350.75,-145.39 l 57.9,24.95 c -94.51,55.85 -292.25,154.08 -411.54,207.8 -29.06,13.15 -54.07,23.79 -70.84,30.29 l -80.11,-431.61 c 25,5.57 49.28,10.41 72.7,14.44 z m -1063.34,-350.16 -34.66,-105.3 c 11.68,1.46 23.24,2.86 34.78,4.26 l 28.64,98.3 z M 2699.94,859.816 c 70.33,-23.925 133.72,-48.73 190.74,-73.964 l 27.25,49.031 c -68.53,30.847 -136.54,57.226 -199.3,79.277 z M 3157.75,387.93 c 0,-14.446 10.94,-26.153 24.46,-26.153 13.51,0 24.47,11.707 24.47,26.153 0,14.441 -10.96,26.152 -24.47,26.152 -13.52,0 -24.46,-11.711 -24.46,-26.152 z m 160.19,186.648 c -40.77,41.965 -88.28,80.883 -139.93,116.645 l -29.86,-47.414 c 54.4,-37.903 97.23,-74.563 130.83,-108.211 z m -177.5,141.652 c -44,28.204 -90.37,54.266 -137.61,78.133 -14.57,7.383 -29.2,14.551 -43.85,21.528 l -27.14,-48.84 c 69.22,-32.61 128.39,-65.672 178.81,-98.125 z m 56.4,-578.718 26.61,-70.969 102.8,121.711 -38.46,44.219 z M 817.086,2286.98 c 3.641,-3.41 3.828,-9.12 0.437,-12.76 -1.781,-1.9 -4.187,-2.85 -6.593,-2.85 -2.207,0 -4.422,0.8 -6.157,2.43 l -87.136,81.37 c 0.035,-2.19 0.14,-4.37 0.136,-6.56 -0.003,-8.6 -0.418,-17.29 -1.015,-26.02 l 217.265,-186.24 c 24.594,21.21 38.86,40.42 46.782,53.6 L 707.66,2430.93 c 4.153,-16.11 7.067,-32.75 8.641,-49.82 z M 3392.61,375.449 l 54.82,-12.898 c -17.7,64.258 -52.44,123.875 -99.06,178.648 l -38.51,-38.511 c 52.04,-59.122 74.35,-105.461 82.75,-127.239 z m -73.48,-110.254 36.57,-42.07 80.82,95.664 -53.91,12.688 z M 3036.89,120.32 V 45.1484 h 146.38 L 3155.09,120.32 Z M 783.598,2098.69 c 3.09,3.9 8.781,4.56 12.675,1.48 l 33.965,-26.89 c 37.93,16.57 67.157,34.4 89.52,51.54 l -205.11,175.82 c -8.726,-70.89 -36.347,-144.8 -82.027,-213.51 l 76.012,-53.14 c 39.34,9.12 73.238,19.83 102.535,31.38 l -26.094,20.65 c -3.906,3.09 -4.566,8.75 -1.476,12.67 z M 2853.48,45.1484 H 2991.8 V 120.32 H 2853.48 Z M 599.195,2041.64 c -8.402,-10.26 -17.132,-20 -26.019,-29.47 40.972,4.14 77.957,9.82 111.394,16.63 l -62.164,43.46 c -7.351,-10.33 -15.027,-20.58 -23.211,-30.62 z M 2249.03,480.41 l -52.06,-37.422 75.13,-179.98 55.06,39.57 z m -71.28,162.238 -68.4,10.25 69.79,-167.175 51.35,36.894 z m 122.98,148.653 -35.96,44.961 -143.36,-139.563 64.73,-9.707 z m 33.43,30.418 101.07,91.98 -21.17,67.91 -116.83,-113.738 z m 11.54,-561.367 -55.76,-40.071 61.07,-146.2888 45.43,70.8628 z m 40.39,-215.2036 h 202.75 V 120.32 h -154.55 z m 247.87,0 h 174.42 V 120.32 H 2633.96 Z M 2478.84,925.352 c 63.69,-16.407 123.04,-33.594 178.29,-51.375 l 18.84,54.812 c -92.86,31.016 -170.49,51.824 -215.08,62.891 -1.05,0.254 -1.94,0.476 -2.95,0.722 z M 903.063,1646.93 c -13.297,-7.37 -25.614,-13.21 -36.379,-17.74 l 36.699,-24.67 c 10.172,3.64 22.285,8.81 35.601,16.11 z m -43.52,31.86 c -14.063,-9.06 -26.516,-15.5 -36.734,-20.09 l 25.738,-17.31 c 1.906,0.72 3.84,1.46 5.91,2.29 9.43,3.78 20.484,8.76 32.481,15.05 z m 588.047,-421.63 c 66.76,0.18 113.75,17.83 147.43,43.45 l -195.37,143.04 c -4.02,2.93 -4.9,8.58 -1.95,12.61 0.32,0.44 0.77,0.68 1.15,1.04 l -338.91,252.59 c -14.88,-22.23 -30.66,-40.81 -46.53,-56.23 l 440.97,-319.7 c 4.03,-2.91 4.92,-8.56 2.01,-12.58 -1.78,-2.43 -4.53,-3.72 -7.34,-3.72 -1.83,0 -3.67,0.54 -5.28,1.7 l -443.887,321.83 c -9.649,-8.36 -19.219,-15.58 -28.528,-21.9 l 122.915,-89.99 c 4.03,-2.95 4.9,-8.6 1.96,-12.62 -1.77,-2.4 -4.52,-3.69 -7.29,-3.69 -1.86,0 -3.73,0.58 -5.33,1.74 l -128.649,94.2 c -11.957,-7 -23.223,-12.48 -33.316,-16.68 l 496.595,-333.87 c 10.13,-0.73 20.01,-1.22 29.35,-1.22 z m -544.945,454.53 c -9.465,-8.41 -18.618,-15.67 -27.379,-22.05 l 28.98,-21.22 c 9.207,5.47 18.75,11.63 28.504,18.73 0.605,0.44 1.219,0.94 1.836,1.39 z m 13.418,12.55 33.312,-24.15 c 17.781,14.56 35.691,32.08 52.575,53.02 l -37.114,27.66 c -16.356,-22.29 -32.832,-41 -48.773,-56.53 z m 48.414,-35.1 34.097,-24.71 c 15.916,15.16 31.856,33.72 46.856,56.27 l -29.03,21.64 c -16.666,-20.79 -34.31,-38.4 -51.923,-53.2 z m 483.113,-450.03 c -0.23,0 -0.49,0.02 -0.73,0.02 l 15.3,-10.28 c 1.48,-0.22 3.33,-0.47 5.52,-0.72 6.55,-0.75 16.16,-1.55 27.8,-1.53 32.59,-0.05 80.36,6.22 122.88,34.38 5.16,3.45 10.29,7.2 15.33,11.32 l -23.6,17.29 c -37.11,-29.64 -89.19,-50.48 -161.51,-50.48 z m -462.754,412.99 -34.992,25.37 c -10.125,-7.7 -20.137,-14.59 -29.809,-20.61 l 35.824,-26.23 c 9.375,6.05 19.118,13.18 28.977,21.47 z m -719.199,205.24 324.715,-185.23 c 8.711,0.31 27.316,1.6 51.972,6.21 l -327.949,184.47 c -16.355,-2.95 -32.641,-4.87 -48.738,-5.45"
         style="fill:#737373;fill-opacity:1;fill-rule:nonzero;stroke:none"
         id="path18" /><path
         d="m 1783.43,1100.37 c -160.59,-9.91 -374.17,-27.74 -611.79,-59.87 -0.21,-0.23 -0.44,-0.49 -0.67,-0.73 -3.93,-4.23 -9.69,-10.58 -16.89,-18.86 -11.25,-12.93 -26.04,-30.637 -42.79,-52.355 l 663.77,121.125 z m 313.87,76.47 c -65.05,0.01 -117.37,-4.16 -154.41,-8.54 -21.93,-2.6 -38.51,-5.26 -49.18,-7.19 -2.48,-0.43 -4.61,-0.83 -6.41,-1.19 l -34.96,-44.65 c -1.19,-2.26 -2.78,-4.23 -4.64,-5.95 l -0.55,-0.71 -142.73,-182.372 h 29.29 l 175.16,202.682 c 57.18,16.43 143.19,35.43 259.14,46.22 -24.91,1.12 -48.62,1.68 -70.71,1.7 z m -112.19,540.08 c -21.31,0.55 -42.32,0.89 -62.8,0.89 -158.56,0 -292.87,-15.77 -404.95,-38.97 l 35.19,-31.23 c 43.75,14.28 160.34,43.57 432.56,69.31 z m -507.55,-63.06 -405.96,360.21 c -5.65,-20.66 -11.69,-40.16 -18.05,-58.6 l 30.07,-21.39 c 1.93,3.07 5.56,4.82 9.33,4.08 4.89,-0.96 8.07,-5.71 7.11,-10.6 -0.3,-1.53 -0.7,-2.94 -1.01,-4.45 z m -851.017,-611.85 -30.074,-38.9 -127.184,-164.489 45.258,3.899 125.203,170.96 224.027,53.62 -200.261,-21.18 z M 153.52,2405.42 C 81.3242,2317.08 45.0195,2215.13 45.1055,2127 c 0.0273,-15.21 1.1445,-29.94 3.2539,-44.14 17.1289,127.1 91.9376,391.42 415.3476,490.69 -0.199,0 -0.394,0.02 -0.598,0.02 -100.886,0.25 -220.839,-59.17 -309.589,-168.15"
         style="fill:#ffffff;fill-opacity:1;fill-rule:nonzero;stroke:none"
         id="path20" /><path
         d="m 2976.93,640.078 c 12.39,13.777 28.45,23.914 46.77,28.692 -38.43,21.843 -81.2,43.835 -128.9,65.656 -1.94,0.469 -3.84,1.172 -5.67,2.183 -0.57,0.317 -1.02,0.735 -1.55,1.086 -65.93,29.832 -141.05,59.278 -226.6,87.469 42.67,-26.543 77.41,-65.633 99.95,-112.391 z M 2538.69,862.52 c -23.16,6.535 -46.96,12.968 -71.46,19.296 l -53.5,-48.691 c 34.99,18.828 74.59,29.563 116.77,29.617 2.75,0 5.47,-0.137 8.19,-0.222 z m 526.26,-697.098 h 57.48 l -27.98,37.703 c -6.81,-14.895 -16.92,-27.844 -29.5,-37.703 z M 2407.13,583.77 c 0.01,-11.661 8.85,-21.114 19.76,-21.114 10.89,0 19.75,9.453 19.75,21.114 0,11.64 -8.86,21.093 -19.76,21.093 -10.9,0 -19.74,-9.453 -19.75,-21.093 z m 775.08,-39.883 c 8.36,-0.032 16.47,-0.957 24.42,-2.364 -19.25,16.758 -40.95,34.129 -65.42,51.922 1.72,-7.578 2.72,-15.418 2.74,-23.472 -0.02,-11.555 -1.98,-22.668 -5.4,-33.118 13.75,4.5 28.39,6.985 43.66,7.032 z m -592.39,133.105 c -7.71,-8.23 -7.71,-21.601 0,-29.836 7.71,-8.25 20.22,-8.25 27.93,-0.008 7.72,8.243 7.72,21.622 0,29.856 -7.71,8.238 -20.22,8.238 -27.93,-0.012 z M 3236.91,397.09 c -5.75,0 -10.41,-4.988 -10.41,-11.133 0,-6.152 4.66,-11.152 10.4,-11.152 5.78,0 10.44,5 10.44,11.152 0,6.145 -4.66,11.133 -10.43,11.133 z M 2910.93,236.816 c -10.86,-28.984 -29.59,-53.886 -53.7,-71.394 h 92.35 c -21.39,16.773 -35.82,42.449 -38.65,71.394 z M 937.715,679.246 c -1.168,2.109 -1.852,4.328 -2.289,6.567 -0.676,-0.051 -1.348,-0.161 -2.024,-0.161 -0.734,0 -1.445,0.176 -2.175,0.246 l -33.399,-48.918 92.137,-169.453 37.065,50.11 z m 113.305,-205.027 -37.29,-50.41 87.03,-160.071 35.26,56.684 z M 2653.89,583.77 c 0,11.652 -8.85,21.093 -19.76,21.093 -10.9,0 -19.73,-9.441 -19.73,-21.093 0,-11.653 8.84,-21.114 19.72,-21.114 10.93,0 19.77,9.461 19.77,21.114 z m -64.07,-63.399 c -7.7,-8.242 -7.71,-21.601 0,-29.836 7.71,-8.25 20.23,-8.25 27.93,-0.008 7.73,8.243 7.71,21.602 0,29.844 -7.72,8.242 -20.21,8.242 -27.93,0 z m -146.56,0 c -7.69,-8.254 -7.69,-21.601 0,-29.844 7.72,-8.242 20.24,-8.242 27.94,0 7.71,8.243 7.72,21.602 0,29.856 -7.69,8.23 -20.22,8.222 -27.94,-0.012 z m -30.27,626.019 c -0.87,-1.19 -1.88,-2.32 -3.02,-3.35 l -267.39,-242.278 45.06,-60.078 221.94,199.496 c 0.85,0.76 1.81,1.32 2.76,1.94 0.47,0.31 0.9,0.71 1.39,0.99 3.24,1.8 6.87,2.77 10.59,2.83 0.47,0 0.95,-0.11 1.44,-0.14 1.21,-0.06 2.42,-0.08 3.63,-0.34 0.02,-0.02 0.34,-0.09 0.77,-0.19 0.02,0 0.03,0 0.04,0 0.01,0 0.01,-0.02 0.03,-0.02 22.8,-5.31 551.35,-121.207 860.55,-383.52 35.98,-30.625 68.97,-63.449 97.88,-98.429 l 16.26,93.879 c -367.37,307.175 -718.96,437.7 -991.93,489.21 z m -192.42,-489.066 55.54,-126.406 c 0.46,-0.52 0.94,-0.996 1.37,-1.563 -3.84,18.77 -5.92,38.223 -5.95,58.165 0.1,59.816 18.2,115.371 48.95,160.734 z M 1018.32,915.773 c 40.27,61.231 78.39,107.957 102.01,135.057 l -31.99,27.42 -84.93,-115.445 z m 1934.15,-367.199 -43.34,1.074 23.85,-81.457 108.18,-35.425 c 3.61,12.691 8.8,24.644 15.18,35.789 -3.04,-0.301 -6.11,-0.52 -9.24,-0.528 -47.44,0.188 -85.33,35.254 -94.63,80.547 z m 229.74,-209.941 c -5.76,0 -10.41,-4.988 -10.41,-11.153 0,-6.152 4.65,-11.132 10.41,-11.132 5.76,0 10.43,4.98 10.43,11.132 0,6.165 -4.67,11.153 -10.43,11.153 z M 156.855,2181.74 c -1.519,-10.7 -2.328,-21.15 -2.304,-31.18 0.129,-44.65 14.48,-80.1 41.687,-102.31 19.707,-16.04 44.41,-23.98 73.379,-24.03 24.488,-0.15 51.727,5.98 79.504,17.83 z M 2324.2,421.426 2392.93,264.941 c 5.99,27.598 22.59,51.231 45.5,65.372 -45.82,18.535 -85.23,50.417 -114.23,91.113 z m 813.74,-35.469 c 0,6.145 -4.68,11.133 -10.43,11.133 -5.76,0 -10.43,-4.988 -10.43,-11.133 0,-6.152 4.67,-11.152 10.43,-11.152 5.75,0 10.43,5 10.43,11.152 z m 44.27,69.602 c -5.76,0 -10.41,-4.993 -10.41,-11.157 0,-6.14 4.65,-11.129 10.41,-11.129 5.76,0 10.43,4.989 10.43,11.129 0,6.164 -4.67,11.157 -10.43,11.157 z m -651.7,260.066 c -10.91,0 -19.74,-9.465 -19.74,-21.113 0,-11.66 8.83,-21.106 19.74,-21.106 10.92,0 19.76,9.446 19.76,21.106 0,11.648 -8.84,21.113 -19.76,21.113 z m -158.93,564.715 c 119.33,13.38 215.48,6.87 291.04,-7.96 32.78,-6.42 61.74,-14.4 86.94,-23.03 l -23.12,121.4 c -16.87,10.09 -35.16,20.01 -54.14,29.7 -96.76,49.39 -213.35,92.07 -272.49,112.32 -5.32,1.83 -10.17,3.48 -14.52,4.93 l -57.62,-311.73 c 8.94,-1.22 18.01,-2.54 27.17,-3.93 z m 319.99,79.26 c 11.54,0 20.9,-9.35 20.9,-20.89 0,-11.54 -9.36,-20.9 -20.9,-20.9 -11.53,0 -20.89,9.36 -20.89,20.9 0,11.54 9.36,20.89 20.89,20.89 z m -271.62,108.65 c 11.55,0 20.9,-9.35 20.9,-20.89 0,-11.55 -9.35,-20.91 -20.9,-20.91 -11.54,0 -20.9,9.36 -20.9,20.91 0,11.54 9.36,20.89 20.9,20.89 z m 716.2,-1115.77 c -4.06,-4.343 -4.06,-11.398 0,-15.75 4.08,-4.347 10.67,-4.347 14.75,0 4.07,4.352 4.08,11.415 0,15.758 -4.06,4.348 -10.67,4.348 -14.75,-0.008 z m 0,82.684 c -4.06,-4.351 -4.06,-11.402 0,-15.75 4.08,-4.363 10.69,-4.363 14.76,0 4.07,4.348 4.06,11.399 -0.01,15.75 -4.08,4.359 -10.67,4.359 -14.75,0 z m -692.89,241.84 c -7.69,-8.242 -7.69,-21.621 0,-29.848 7.72,-8.258 20.25,-8.258 27.95,0 7.71,8.227 7.7,21.606 -0.02,29.848 -7.69,8.238 -20.21,8.238 -27.93,0 z m 87.25,-182.883 c -10.91,0 -19.74,-9.465 -19.74,-21.113 0,-11.653 8.83,-21.106 19.74,-21.106 10.92,0 19.76,9.453 19.76,21.106 0,11.648 -8.84,21.113 -19.76,21.113 z m 338.15,-80.613 -29.77,137.871 -51.6,1.277 c -4.54,-37.605 -16.18,-72.929 -33.55,-104.328 6.64,0.981 13.37,1.66 20.3,1.684 36.34,-0.102 69.19,-13.879 94.62,-36.504 z M 541.313,2254.82 315.391,2419 c -19.629,-12.76 -38.922,-28.26 -57.11,-46.43 l 252.641,-183.55 c 12.961,21.82 23.094,44.03 30.391,65.8 z m -125.5,-173.38 -238.125,173.01 c -3.434,-8.05 -6.497,-16.09 -9.165,-24.07 l 225.778,-164.03 c 7.222,4.69 14.414,9.66 21.512,15.09 z M 2579.99,271.594 l 48.03,2.664 c -0.79,6.515 -1.35,13.097 -1.36,19.805 0.03,13.867 1.93,27.292 5.19,40.156 -23.53,-10.645 -48.87,-17.688 -75.47,-20.52 10.89,-11.719 19.04,-26.148 23.61,-42.105 z m 73.17,-66.406 -76.36,-1.497 c -5.78,-14.785 -14.8,-27.871 -26.17,-38.269 h 140.21 c -14.78,10.73 -27.49,24.258 -37.68,39.766 z m 560.36,131.55 c 4.07,-4.355 10.68,-4.355 14.75,-0.008 4.07,4.352 4.07,11.415 0,15.75 -4.08,4.356 -10.68,4.356 -14.75,0 -4.07,-4.335 -4.07,-11.398 0,-15.742 z m 14.74,82.664 c 4.08,4.368 4.08,11.418 0.01,15.762 -4.08,4.367 -10.68,4.359 -14.75,0 -4.07,-4.351 -4.07,-11.394 0,-15.75 4.07,-4.355 10.67,-4.355 14.74,-0.012 z m -454.22,-57.703 c -5.76,0 -10.41,-5 -10.41,-11.152 0,-6.152 4.65,-11.145 10.41,-11.145 5.76,0 10.43,4.993 10.43,11.145 0,6.152 -4.67,11.152 -10.43,11.152 z M 1367.43,215.723 c -3.75,-3.993 -3.75,-10.489 0,-14.493 3.75,-4.011 9.83,-4.011 13.58,-0.007 3.75,4.011 3.74,10.507 0,14.5 -3.76,4.011 -9.83,4.011 -13.58,0 z m 11.95,30.82 c 0,-5.652 4.3,-10.254 9.58,-10.254 5.31,0 9.61,4.602 9.61,10.254 0,5.664 -4.3,10.254 -9.61,10.254 -5.29,0 -9.58,-4.59 -9.58,-10.254 z m -40.79,25.898 c -12.44,0 -22.52,-10.769 -22.52,-24.074 0,-13.308 10.08,-24.082 22.52,-24.082 12.45,0 22.54,10.774 22.54,24.082 0,13.305 -10.09,24.074 -22.54,24.074 z M 1500.4,217.5 c 0.12,-32.512 24.37,-56.797 51.74,-56.848 27.39,0.051 51.63,24.336 51.75,56.848 -0.12,32.512 -24.36,56.797 -51.75,56.848 -27.37,-0.051 -51.62,-24.336 -51.74,-56.848 z m 87.49,-0.012 c 0,-21.101 -16,-38.211 -35.74,-38.211 -19.74,0 -35.74,17.11 -35.74,38.211 0,21.106 16,38.215 35.74,38.215 19.74,0 35.74,-17.109 35.74,-38.215 z M 1338.6,348.621 c -49.83,-0.086 -92.26,-43.746 -92.35,-100.242 0.09,-56.492 42.52,-100.156 92.35,-100.266 49.81,0.11 92.24,43.774 92.36,100.266 -0.12,56.496 -42.55,100.156 -92.36,100.242 z m -0.01,-183.933 c -43.24,0 -78.29,37.46 -78.29,83.679 0,46.211 35.05,83.676 78.29,83.676 43.26,0 78.3,-37.465 78.3,-83.676 0,-46.219 -35.04,-83.679 -78.3,-83.679 z m 0,38.292 c -5.3,0 -9.58,-4.601 -9.58,-10.277 0,-5.66 4.28,-10.254 9.58,-10.254 5.32,0 9.61,4.594 9.61,10.254 0,5.676 -4.29,10.277 -9.61,10.277 z m 134.8,73.59 c 17.36,25.649 45.72,42.754 78.75,42.883 0.52,0 1.02,-0.078 1.54,-0.09 l -27.75,43.989 -101.72,-1.438 c 25,-21.152 42.77,-51.184 49.18,-85.344 z m -92.39,0.774 c 3.76,4.011 3.76,10.515 0.01,14.519 -3.76,4.004 -9.83,4.004 -13.58,0 -3.75,-4.011 -3.75,-10.508 0,-14.508 3.75,-4.015 9.82,-4.015 13.57,-0.011 z m -84.81,14.519 c -3.74,-4.011 -3.74,-10.515 0,-14.508 3.75,-4.015 9.83,-4.015 13.58,0 3.75,3.993 3.75,10.497 0,14.508 -3.75,4.004 -9.83,4.004 -13.58,0 z m 42.4,-1.746 c 5.32,0 9.61,4.59 9.61,10.254 0,5.664 -4.29,10.266 -9.61,10.266 -5.3,0 -9.58,-4.602 -9.58,-10.266 0,-5.664 4.28,-10.254 9.58,-10.254 z m -98.51,-240.2928 181.99,-0.4219 v 46.8282 h -139.02 z m 57.76,196.7188 c 0,5.664 -4.32,10.254 -9.61,10.254 -5.3,0 -9.6,-4.59 -9.6,-10.254 0,-5.652 4.3,-10.254 9.6,-10.254 5.29,0 9.61,4.602 9.61,10.254 z m -1.65,-30.82 c -3.74,-4.004 -3.74,-10.489 0,-14.5 3.75,-4.004 9.83,-4.004 13.58,0 3.75,4.011 3.75,10.507 0,14.507 -3.75,4.004 -9.83,4.004 -13.58,-0.007 z m 164.98,-32.735 c -7.51,-15.722 -17.65,-29.785 -29.84,-41.633 h 56.6 c -12,11.25 -21.23,25.54 -26.76,41.633 z m 1344.18,75.637 c -4.07,-4.348 -4.07,-11.406 0,-15.742 4.08,-4.367 10.67,-4.367 14.75,-0.012 4.07,4.348 4.06,11.406 0,15.754 -4.08,4.344 -10.67,4.344 -14.75,0 z m -31.31,-13.852 c -5.76,0 -10.41,-5 -10.41,-11.16 0,-6.14 4.65,-11.133 10.41,-11.133 5.76,0 10.43,4.993 10.43,11.133 0,6.16 -4.67,11.16 -10.43,11.16 z m -46.06,96.528 c -4.06,-4.348 -4.06,-11.406 0,-15.754 4.08,-4.356 10.68,-4.356 14.75,0 4.08,4.348 4.07,11.406 0,15.754 -4.07,4.351 -10.67,4.351 -14.75,0 z m 0,-82.676 c -4.06,-4.355 -4.06,-11.406 0,-15.754 4.08,-4.355 10.68,-4.355 14.75,0 4.07,4.348 4.08,11.406 0,15.762 -4.07,4.336 -10.67,4.336 -14.75,-0.008 z m 100.76,44.598 c -5.75,0 -10.41,-4.981 -10.41,-11.133 0,-6.152 4.67,-11.145 10.4,-11.145 5.77,0 10.44,4.993 10.44,11.145 0,6.152 -4.67,11.133 -10.43,11.133 z m 378.37,-89.778 27.84,29.075 c -12.43,-5.047 -25.66,-8.457 -39.53,-9.778 z m -477.34,78.645 c 0,6.152 -4.68,11.133 -10.43,11.133 -5.77,0 -10.43,-4.981 -10.43,-11.133 0,-6.152 4.66,-11.145 10.43,-11.145 5.75,0 10.43,4.993 10.43,11.145 z M 1183,328.684 l 23.18,-41.946 c 7.45,28.633 22.85,53.938 43.87,72.727 l -83.41,-1.176 13.94,-25.23 c 0.99,-1.368 1.78,-2.844 2.42,-4.375 z m 433.36,-187.329 h 49.66 l -24.09,38.176 c -5.63,-14.695 -14.43,-27.722 -25.57,-38.176 z m -149.18,-92.0464 195.46,-0.4531 v 47.375 H 1467.18 Z M 2805.35,341.301 c -4.07,-4.348 -4.07,-11.399 0,-15.754 4.08,-4.348 10.67,-4.348 14.74,-0.012 4.08,4.367 4.08,11.43 0.01,15.766 -4.08,4.363 -10.67,4.351 -14.75,0 z M 1707.76,48.7617 1811.23,48.5156 V 96.2305 H 1707.76 Z M 3329.34,401.145 c -0.14,0.234 -0.31,0.496 -0.46,0.742 0.4,-4.614 0.68,-9.258 0.69,-13.965 -0.04,-20.324 -3.86,-39.777 -10.62,-57.695 l 30.39,31.726 c -0.12,0.274 -0.23,0.547 -0.34,0.828 -3.58,8.703 -9.7,21.77 -19.66,38.364 z m -2168.33,-125.95 -35.47,-57.043 77.29,-142.1442 42.75,46.1482 z m 1607.87,1113.835 60.15,-315.74 c 0.43,-2.28 0.4,-4.52 0.16,-6.72 8.27,-3.5 16.59,-7.12 24.92,-10.77 l -31.94,162.81 c 12.64,-6.6 23.14,-12.86 32.01,-18.55 l -52.29,236.92 c -5.62,3.52 -11.88,7.31 -18.62,11.29 l -57.9,-24.95 c 11.45,-6.35 22.59,-12.78 33.19,-19.3 5.4,-3.37 9.12,-8.74 10.32,-14.99 z M 841.965,1968.88 c -3.828,3.2 -4.309,8.89 -1.106,12.7 3.204,3.81 8.911,4.31 12.719,1.09 l 94.473,-79.53 c 6.637,12.26 12.957,25.25 18.957,38.89 l -155.84,123.34 c -29.297,-11.55 -63.195,-22.26 -102.535,-31.38 l 38.672,-27.03 c 4.082,-2.85 5.074,-8.48 2.222,-12.55 -1.761,-2.51 -4.566,-3.85 -7.414,-3.85 -1.781,0 -3.582,0.53 -5.156,1.63 l -52.387,36.61 c -33.437,-6.81 -70.422,-12.49 -111.394,-16.63 -27.508,-29.32 -57.113,-54.9 -88.047,-76.27 -4.899,-3.38 -9.852,-6.6 -14.813,-9.77 -8.351,-5.36 -16.761,-10.52 -25.261,-15.29 L 672.668,1751.7 c 4.07,-2.86 5.066,-8.49 2.211,-12.56 -1.754,-2.51 -4.551,-3.85 -7.402,-3.85 -1.786,0 -3.586,0.53 -5.157,1.61 l -235.132,164.4 c -17.918,-9.07 -36.043,-16.83 -54.258,-23.16 l 201.879,-125.16 c 4.246,-2.63 5.535,-8.18 2.921,-12.42 -1.71,-2.76 -4.656,-4.27 -7.675,-4.27 -1.625,0 -3.274,0.44 -4.758,1.36 L 350.25,1870.98 c -11.98,-3.4 -23.941,-6.03 -35.875,-8.19 l 327.949,-184.47 c 24.68,4.61 55.465,12.64 88.723,26.4 19.426,8.03 39.652,17.94 60.012,30.41 1.668,1.02 3.339,2.17 5.011,3.23 18.184,11.53 36.473,24.94 54.383,40.75 l -113.109,83.59 c -4,2.95 -4.867,8.62 -1.899,12.61 2.961,4.03 8.61,4.88 12.625,1.91 l 115.59,-85.42 c 0.113,-0.09 0.164,-0.21 0.266,-0.3 26.801,25.8 52.39,57.22 75.074,95.68 z m 179.045,185.6 -40.205,35.47 c -7.922,-13.18 -22.188,-32.39 -46.782,-53.6 L 953.098,2120 c 3.793,-3.24 4.23,-8.93 0.988,-12.71 -1.789,-2.08 -4.32,-3.16 -6.863,-3.16 -2.078,0 -4.16,0.71 -5.856,2.17 l -21.609,18.52 c -22.363,-17.14 -51.59,-34.97 -89.52,-51.54 l 144.032,-114 c 21.648,53.94 38.14,118.25 46.74,195.2"
         style="fill:#333333;fill-opacity:1;fill-rule:nonzero;stroke:none"
         id="path22" /><path
         d="m 2487.27,204.16 c 19.74,0 35.75,17.11 35.75,38.203 0,21.114 -16.01,38.223 -35.75,38.223 -19.74,0 -35.74,-17.109 -35.74,-38.223 0,-21.093 16,-38.203 35.74,-38.203 z m 286.77,180.789 c -46.97,0 -85.04,-40.679 -85.04,-90.886 0,-50.184 38.07,-90.879 85.04,-90.879 46.97,0 85.03,40.695 85.03,90.879 0,50.207 -38.06,90.886 -85.03,90.886 z m 31.31,-43.648 c 4.08,4.351 10.67,4.363 14.75,0 4.07,-4.336 4.07,-11.399 -0.01,-15.766 -4.07,-4.336 -10.66,-4.336 -14.74,0.012 -4.07,4.355 -4.07,11.406 0,15.754 z m -31.31,20.398 c 5.76,0 10.43,-5 10.43,-11.152 0,-6.152 -4.67,-11.145 -10.43,-11.145 -5.76,0 -10.41,4.993 -10.41,11.145 0,6.152 4.65,11.152 10.41,11.152 z m -65.13,-69.609 c 0,6.152 4.66,11.133 10.43,11.133 5.75,0 10.43,-4.981 10.43,-11.133 0,-6.152 -4.68,-11.145 -10.43,-11.145 -5.77,0 -10.43,4.993 -10.43,11.145 z m 33.82,-49.219 c -4.07,-4.355 -10.67,-4.355 -14.75,0 -4.06,4.348 -4.06,11.399 0,15.754 4.08,4.344 10.68,4.344 14.75,0.008 4.08,-4.356 4.07,-11.414 0,-15.762 z m 0,82.676 c -4.07,-4.356 -10.67,-4.356 -14.75,0 -4.06,4.348 -4.06,11.406 0,15.754 4.08,4.351 10.68,4.351 14.75,0 4.07,-4.348 4.08,-11.406 0,-15.754 z m 31.31,-103.067 c -5.76,0 -10.41,4.993 -10.41,11.133 0,6.16 4.65,11.16 10.41,11.16 5.76,0 10.43,-5 10.43,-11.16 0,-6.14 -4.67,-11.133 -10.43,-11.133 z m 0,45.442 c -13.51,0 -24.47,11.695 -24.47,26.141 0,14.453 10.96,26.164 24.47,26.164 13.51,0 24.48,-11.711 24.48,-26.164 0,-14.446 -10.97,-26.141 -24.48,-26.141 z m 46.06,-25.051 c -4.08,-4.355 -10.67,-4.355 -14.75,0.012 -4.07,4.336 -4.07,11.394 0,15.742 4.08,4.344 10.67,4.344 14.75,0 4.06,-4.348 4.07,-11.406 0,-15.754 z m 8.63,38.074 c -5.73,0 -10.4,4.993 -10.4,11.145 0,6.152 4.66,11.133 10.41,11.133 5.76,0 10.43,-4.981 10.43,-11.133 0,-6.152 -4.67,-11.145 -10.44,-11.145 z m 178.54,4.407 c -19.74,0 -35.74,-17.11 -35.74,-38.223 0,-21.094 16,-38.203 35.74,-38.203 19.75,0 35.75,17.109 35.75,38.203 0,21.113 -16,38.223 -35.75,38.223 z m 492.39,50.918 v 0.039 c -11.59,64.14 -37.57,123.164 -73.8,177.351 l 25.71,148.613 c 1.36,7.856 -1.57,15.918 -7.66,21.067 -172.84,145.976 -342.74,253.496 -503.27,332.31 -0.03,1.37 -0.17,2.75 -0.47,4.15 l -96.24,436.04 c -1.29,5.8 -4.77,10.84 -9.74,14.05 -57.73,37.38 -182.37,102.01 -298.73,158.82 -58.1,28.35 -113.92,54.58 -157.85,74.15 -21.97,9.78 -40.98,17.9 -56.01,23.84 -15.49,5.96 -24.98,9.7 -35.05,11.28 -132.99,17.51 -254.21,24.93 -364.24,24.93 -175.7,0 -322.9,-18.98 -443.87,-46.31 -0.92,-0.2 -1.78,-0.56 -2.64,-0.89 l -418.84,371.65 c 4.21,23.53 7.65,48.19 10.15,74.12 0.7,7.19 -2.1,14.32 -7.52,19.11 l -422.141,372.43 -10.711,9.45 -1.011,0.89 c -0.02,0.03 -0.047,0.04 -0.067,0.06 -0.211,0.17 -0.39,0.35 -0.597,0.52 -45.665,37.29 -102.465,54.79 -161.954,54.73 C 344.898,2618.42 214.871,2551.69 118.574,2433.94 40.4883,2338.18 0.0742188,2227.34 0,2127 c -0.113281,-85.23 29.8477,-164.03 92.7031,-215.33 13.8599,-11.32 28.8359,-20.6 44.5039,-28.33 1.91,-4.03 5,-7.54 9.164,-9.91 l 427.02,-243.57 c 3.429,-1.96 7.234,-2.97 11.187,-2.97 0,0 0.184,0 0.613,0 8.653,0.07 74.149,0.98 155.157,32.91 l 388.672,-261.32 -123.05,-271 -393.759,-41.64 c -6.078,-0.64 -11.723,-3.8 -15.465,-8.64 L 401.199,824.285 c -5.945,-7.683 -6.301,-18.289 -0.855,-26.375 l 61.047,-90.676 c 1.539,-2.285 3.535,-4.082 5.699,-5.632 l -43.195,-72 c -4.082,-6.789 -4.286,-15.286 -0.551,-22.239 L 738.926,17.7266 c 3.906,-7.3047 11.57,-11.87504 19.84,-11.90629 L 1971.67,3.06641 c 3.37,-1.9336 7.21,-3.0546912 11.23,-3.0546912 h 1232.84 c 0.03,0 0.08,-0.0117188 0.12,-0.0117188 1.5,0 3.03,0.203125 4.54,0.519531 0.38,0.078125 0.75,0.210938 1.12,0.308594 0.75,0.195315 1.5,0.332035 2.24,0.617185 0.33,0.125 0.62,0.32422 0.93,0.46875 0.54,0.22657 1.05,0.4961 1.56,0.76172 0.89,0.47656 1.77,0.97656 2.59,1.57422 0.46,0.32031 0.89,0.67188 1.34,1.02344 0.76,0.63281 1.48,1.32812 2.16,2.0625 0.23,0.24219 0.51,0.42969 0.72,0.68359 L 3494.7,317.773 c 0.16,0.196 0.26,0.43 0.42,0.645 0.73,0.906 1.38,1.887 1.94,2.898 0.21,0.375 0.42,0.747 0.61,1.125 0.52,1.075 0.94,2.2 1.29,3.332 0.09,0.321 0.23,0.633 0.32,0.965 0.03,0.149 0.1,0.266 0.12,0.41 0.26,1.094 0.35,2.176 0.44,3.262 0.04,0.352 0.12,0.715 0.14,1.055 0.06,1.594 -0.04,3.203 -0.32,4.805 z m -94.74,320.91 -16.26,-93.879 c -28.91,34.98 -61.9,67.804 -97.88,98.429 -309.2,262.313 -837.75,378.21 -860.55,383.52 -0.02,0 -0.02,0.02 -0.03,0.02 -0.01,0 -0.02,0 -0.04,0 -0.43,0.1 -0.75,0.17 -0.77,0.19 -1.21,0.26 -2.42,0.28 -3.63,0.34 -0.49,0.03 -0.97,0.14 -1.44,0.14 -3.72,-0.06 -7.35,-1.03 -10.59,-2.83 -0.49,-0.28 -0.92,-0.68 -1.39,-0.99 -0.95,-0.62 -1.91,-1.18 -2.76,-1.94 l -221.94,-199.496 -45.06,60.078 267.39,242.278 c 1.14,1.03 2.15,2.16 3.02,3.35 272.97,-51.51 624.56,-182.035 991.93,-489.21 z m -471.94,-188.989 -23.85,81.457 43.34,-1.074 c 9.3,-45.293 47.19,-80.359 94.63,-80.547 3.13,0.008 6.2,0.227 9.24,0.528 -6.38,-11.145 -11.57,-23.098 -15.18,-35.789 z m 16.6,-302.769 h -92.35 c 24.11,17.508 42.84,42.41 53.7,71.394 2.83,-28.945 17.26,-54.621 38.65,-71.394 z m -188.65,547.351 c -22.54,46.758 -57.28,85.848 -99.95,112.391 85.55,-28.191 160.67,-57.637 226.6,-87.469 0.53,-0.351 0.98,-0.769 1.55,-1.086 1.83,-1.011 3.73,-1.714 5.67,-2.183 47.7,-21.821 90.47,-43.813 128.9,-65.656 -18.32,-4.778 -34.38,-14.915 -46.77,-28.692 z m 107.73,-299.265 c -25.43,22.625 -58.28,36.402 -94.62,36.504 -6.93,-0.024 -13.66,-0.703 -20.3,-1.684 17.37,31.399 29.01,66.723 33.55,104.328 l 51.6,-1.277 z m -240.64,-139.25 -48.03,-2.664 c -4.57,15.957 -12.72,30.386 -23.61,42.105 26.6,2.832 51.94,9.875 75.47,20.52 -3.26,-12.864 -5.16,-26.289 -5.19,-40.156 0.01,-6.708 0.57,-13.29 1.36,-19.805 z m -51.22,-70.567 76.36,1.497 c 10.19,-15.508 22.9,-29.036 37.68,-39.766 h -140.21 c 11.37,10.398 20.39,23.484 26.17,38.269 z m -46.3,153.711 c -58.66,0.02 -111.74,25.301 -150.7,66.868 -38.88,41.55 -63.16,99.199 -63.16,163.25 0,64.035 24.28,121.699 63.16,163.253 38.96,41.563 92.04,66.844 150.7,66.864 58.67,-0.02 111.75,-25.301 150.7,-66.864 38.9,-41.554 63.16,-99.218 63.16,-163.253 0,-64.051 -24.26,-121.7 -63.16,-163.25 -38.95,-41.567 -92.03,-66.848 -150.7,-66.868 z m -594.07,244.043 55.72,-132.304 H 1770.7 l -100.87,189.445 h 60.62 l 34.97,-83.039 c 1.46,-3.445 4.79,-5.535 8.3,-5.535 1.17,0 2.35,0.242 3.51,0.718 4.59,1.934 6.75,7.239 4.81,11.829 l -32,76.027 h 62.23 l 58.41,-138.684 c 1.44,-3.437 4.79,-5.515 8.3,-5.515 1.16,0 2.36,0.23 3.5,0.711 4.6,1.933 6.75,7.218 4.82,11.816 l -55.44,131.672 h 30.98 l 29.52,-70.078 c 1.46,-3.449 4.8,-5.528 8.32,-5.528 1.17,0 2.34,0.235 3.49,0.711 4.59,1.934 6.74,7.207 4.81,11.829 l -26.56,63.066 h 87.22 l 39.34,-93.391 c 1.44,-3.457 4.78,-5.539 8.29,-5.539 1.18,0 2.36,0.239 3.51,0.715 4.59,1.934 6.76,7.219 4.81,11.809 l -36.38,86.406 h 68.88 l 79.08,-189.445 h -125.45 l -58.67,139.316 c -1.92,4.578 -7.21,6.738 -11.81,4.816 -4.6,-1.945 -6.76,-7.226 -4.81,-11.828 z m -330.64,263.399 c -4.34,2.461 -9.83,0.945 -12.31,-3.391 l -47.37,-83.355 c -49.69,-0.918 -97.29,-2.461 -142.47,-4.465 l 43.15,75.906 c 2.46,4.34 0.93,9.836 -3.39,12.297 -4.33,2.473 -9.85,0.957 -12.29,-3.379 l -48.77,-85.801 c -14.09,-0.683 -27.95,-1.394 -41.52,-2.148 l 65.13,114.558 23.12,40.664 c 2.46,4.336 0.95,9.836 -3.39,12.305 -4.32,2.461 -9.84,0.949 -12.3,-3.387 l -31.42,-55.261 -62.59,-110.129 c -33.37,-1.992 -65.05,-4.18 -94.85,-6.485 l 45.75,80.481 c 2.42,4.266 0.95,9.637 -3.2,12.144 -0.07,0.043 -0.11,0.122 -0.18,0.161 -3.9,2.222 -8.64,1.082 -11.37,-2.305 -0.31,-0.371 -0.7,-0.649 -0.95,-1.086 l -51.79,-91.113 c -46.67,-3.809 -88.28,-7.832 -124.14,-11.668 l 47.4,83.367 52.3,91.992 c 2.45,4.324 0.93,9.844 -3.39,12.317 -4.34,2.449 -9.85,0.925 -12.31,-3.391 l -59.01,-103.848 -47.1,-82.859 c -36.13,-4.043 -65.331,-7.785 -86.51,-10.664 13.339,29.375 27.761,57.183 42.53,83.406 28.31,50.254 57.96,94.285 84.21,129.668 4.98,6.719 9.82,13.086 14.53,19.18 16.75,21.718 31.54,39.425 42.79,52.355 7.2,8.28 12.96,14.63 16.89,18.86 0.23,0.24 0.46,0.5 0.67,0.73 237.62,32.13 451.2,49.96 611.79,59.87 l -8.37,-10.69 -93.71,-119.739 -40.98,-52.363 c -0.15,-0.195 -0.24,-0.41 -0.39,-0.605 -0.12,-0.164 -0.28,-0.282 -0.39,-0.45 -0.24,-0.339 -0.36,-0.734 -0.58,-1.082 -0.59,-0.968 -1.13,-1.957 -1.56,-2.98 -0.23,-0.527 -0.44,-1.074 -0.62,-1.621 -0.37,-1.106 -0.64,-2.227 -0.84,-3.367 -0.08,-0.5 -0.2,-1.008 -0.25,-1.504 -0.15,-1.496 -0.17,-3.008 -0.02,-4.516 0.01,-0.144 0,-0.293 0.01,-0.437 0.2,-1.641 0.61,-3.262 1.17,-4.844 0.05,-0.137 0.05,-0.274 0.1,-0.41 l 36.1,-96.239 c 1.42,-3.8 3.85,-7.011 6.87,-9.472 l -6.52,-11.145 c -9.41,0.071 -18.82,0.117 -28.06,0.125 -26.62,0 -52.71,-0.222 -78.34,-0.593 l 42.12,74.101 c 2.47,4.336 0.96,9.832 -3.38,12.305 z M 989.965,467.527 897.828,636.98 l 33.399,48.918 c 0.73,-0.07 1.441,-0.246 2.175,-0.246 0.676,0 1.348,0.11 2.024,0.161 0.437,-2.239 1.121,-4.458 2.289,-6.567 l 89.315,-161.609 z m 61.055,6.692 85,-153.797 -35.26,-56.684 -87.03,160.071 z m -47.61,488.586 84.93,115.445 31.99,-27.42 c -23.62,-27.1 -61.74,-73.826 -102.01,-135.057 z m 167.89,123.135 41.2,121.87 23.75,-2.26 -38.19,-116.05 c -8.88,-1.16 -17.81,-2.35 -26.76,-3.56 z m 530.41,288.27 c -14.02,-39.87 -33.1,-68.53 -54.34,-89.55 l -23.31,17.06 c 17.76,16.98 31.44,36.03 41.7,55.37 6.15,11.5 11.18,23.07 15.3,34.35 z m -14.62,35.7 c 5.31,18.23 8.41,35.09 10.17,48.94 3.31,-3.31 6.62,-6.78 9.55,-10.26 3.64,-4.31 6.67,-8.59 8.39,-11.79 0.86,-1.6 1.4,-2.92 1.64,-3.66 0.04,-0.13 0.06,-0.24 0.09,-0.34 -2.59,-14.4 -5.76,-27.64 -9.32,-40.03 z m -53.4,-137.61 c -5.04,-4.12 -10.17,-7.87 -15.33,-11.32 -42.52,-28.16 -90.29,-34.43 -122.88,-34.38 -11.64,-0.02 -21.25,0.78 -27.8,1.53 -2.19,0.25 -4.04,0.5 -5.52,0.72 l -15.3,10.28 c 0.24,0 0.5,-0.02 0.73,-0.02 h 0.99 c 72.32,0 124.4,20.84 161.51,50.48 z m -183.4,-87.21 c 4.44,-0.82 21.2,-3.61 45.19,-3.61 37.98,0.04 94.67,6.93 147.72,41.84 53.15,34.79 100.32,98.2 118.33,202.73 0.4,2.34 0.58,4.58 0.58,6.7 -0.29,13.73 -5.73,23.46 -11.36,32.38 -15.68,23.31 -40.17,42.69 -45.36,46.86 l -22.85,20.28 c 41.72,4.79 85.71,6.76 128.71,6.76 70.79,0 138.59,-5.03 188.56,-10.08 24.99,-2.52 45.42,-5.04 59.6,-6.92 l -45.91,-302.45 c -90.79,-5.15 -142.86,-17.03 -143.92,-17.26 -5,-1.15 -9.55,-4.04 -12.69,-8.09 l -36.36,-46.46 c -23.91,-1.35 -49.19,-2.91 -75.73,-4.66 l 53.13,147.12 c 1.69,4.69 -0.75,9.87 -5.44,11.56 -4.69,1.69 -9.85,-0.74 -11.55,-5.42 l -55.8,-154.56 c -103.04,-7.05 -223.91,-17.2 -356.38,-31.77 l 14.76,50.64 c 1.39,4.78 -1.36,9.78 -6.14,11.18 -4.79,1.39 -9.8,-1.33 -11.19,-6.14 l -16.84,-57.81 c -15.66,-1.76 -31.48,-3.57 -47.45,-5.46 l 27.45,94.2 z m 906.85,-29.05 -253.62,-229.802 h -33.51 l 83.65,95.782 c 3.27,3.74 2.89,9.46 -0.87,12.73 -3.76,3.27 -9.45,2.89 -12.73,-0.87 l -86.63,-99.2 c -2.11,-2.407 -2.54,-5.578 -1.71,-8.442 h -180.2 l 120.45,162.212 c 2.98,3.99 2.14,9.64 -1.87,12.62 -3.99,2.97 -9.65,2.12 -12.62,-1.86 L 1849.04,926.238 h -60.19 l 69.51,93.582 c 2.97,4 2.12,9.64 -1.88,12.63 -4,2.97 -9.64,2.13 -12.62,-1.86 l -77.49,-104.352 h -61.95 l 142.73,182.372 0.55,0.71 c 1.86,1.72 3.45,3.69 4.64,5.95 l 34.96,44.65 c 1.8,0.36 3.93,0.76 6.41,1.19 10.67,1.93 27.25,4.59 49.18,7.19 37.04,4.38 89.36,8.55 154.41,8.54 22.09,-0.02 45.8,-0.58 70.71,-1.7 56.49,-2.54 119.82,-8.25 189.13,-19.1 z m -29.47,49.93 57.62,311.73 c 4.35,-1.45 9.2,-3.1 14.52,-4.93 59.14,-20.25 175.73,-62.93 272.49,-112.32 18.98,-9.69 37.27,-19.61 54.14,-29.7 l 23.12,-121.4 c -25.2,8.63 -54.16,16.61 -86.94,23.03 -75.56,14.83 -171.71,21.34 -291.04,7.96 l -16.74,-78.3 c -9.16,1.39 -18.23,2.71 -27.17,3.93 z m 139.56,-324.154 c 24.5,-6.328 48.3,-12.761 71.46,-19.296 -2.72,0.085 -5.44,0.222 -8.19,0.222 -42.18,-0.054 -81.78,-10.789 -116.77,-29.617 z m -9.29,110.586 c 1.01,-0.246 1.9,-0.468 2.95,-0.722 44.59,-11.067 122.22,-31.875 215.08,-62.891 l -18.84,-54.812 c -55.25,17.781 -114.6,34.968 -178.29,51.375 z m -123.78,-170.683 -36.93,46.152 116.83,113.738 21.17,-67.91 z m -56.68,-292.364 c -0.43,0.567 -0.91,1.043 -1.37,1.563 l -55.54,126.406 99.91,90.93 c -30.75,-45.363 -48.85,-100.918 -48.95,-160.734 0.03,-19.942 2.11,-39.395 5.95,-58.165 z m 23.25,261.946 -114.59,-104.309 -64.73,9.707 143.36,139.563 z m -236.78,-87.602 h -29.39 l 24.74,40.586 c 2.59,4.25 1.23,9.809 -2.99,12.406 -4.28,2.579 -9.83,1.231 -12.4,-3.019 l -30.49,-49.973 h -64.31 l 18.88,30.957 c 2.6,4.258 1.25,9.809 -3,12.407 -4.26,2.593 -9.8,1.25 -12.4,-3 l -24.62,-40.364 h -127 l 18.89,30.969 c 2.57,4.246 1.23,9.812 -3.01,12.41 -4.25,2.578 -9.81,1.242 -12.42,-3.015 l -24.59,-40.364 h -98.16 l 47.03,80.324 c 0.16,0.286 0.24,0.586 0.4,0.872 h 197.62 l -30.56,-50.129 c -2.61,-4.258 -1.26,-9.817 2.99,-12.422 1.47,-0.879 3.09,-1.297 4.69,-1.297 3.04,0 6.03,1.531 7.72,4.312 l 36.3,59.536 h 199.47 z m -354.11,126.313 -19.16,51.109 h 410.24 l 38.34,-51.109 z M 1282.42,1100.1 c -11.54,-1.4 -23.1,-2.8 -34.78,-4.26 l 34.66,105.3 28.76,-2.74 z m 826.93,-447.202 68.4,-10.25 52.74,-120.031 -51.35,-36.894 z m 139.68,-172.488 78.13,-177.832 -55.06,-39.57 -75.13,179.98 z m 75.17,-58.984 c 29,-40.696 68.41,-72.578 114.23,-91.113 -22.91,-14.141 -39.51,-37.774 -45.5,-65.372 z m 163.07,-122.188 c 27.37,-0.066 51.62,-24.343 51.73,-56.875 -0.11,-32.508 -24.36,-56.765 -51.73,-56.836 -27.39,0.071 -51.64,24.328 -51.73,56.836 h -0.03 c 0.12,32.532 24.37,56.809 51.76,56.875 z m 212.67,560.578 18.69,54.344 c 62.76,-22.051 130.77,-48.43 199.3,-79.277 l -27.25,-49.031 c -57.02,25.234 -120.41,50.039 -190.74,73.964 z m 441.27,-266.371 c 24.47,-17.793 46.17,-35.164 65.42,-51.922 -7.95,1.407 -16.06,2.332 -24.42,2.364 -15.27,-0.047 -29.91,-2.532 -43.66,-7.032 3.42,10.45 5.38,21.563 5.4,33.118 -0.02,8.054 -1.02,15.894 -2.74,23.472 z m -30.56,75.481 c -50.42,32.453 -109.59,65.515 -178.81,98.125 l 27.14,48.84 c 14.65,-6.977 29.28,-14.145 43.85,-21.528 47.24,-23.867 93.61,-49.929 137.61,-78.133 z M 3047.1,513.113 c -27.39,0.078 -51.64,24.348 -51.75,56.86 0.11,32.527 24.36,56.804 51.75,56.863 27.36,-0.059 51.62,-24.336 51.74,-56.863 -0.12,-32.512 -24.38,-56.782 -51.74,-56.86 z m 47.35,-309.988 27.98,-37.703 h -57.48 c 12.58,9.859 22.69,22.808 29.5,37.703 z m -14.5,184.797 c 0.11,62.344 46.98,110.738 102.26,110.848 55.26,-0.11 102.14,-48.504 102.23,-110.848 -0.09,-62.309 -46.97,-110.695 -102.23,-110.813 -55.28,0.118 -102.15,48.504 -102.26,110.813 z m 199.03,147.676 c -33.6,33.648 -76.43,70.308 -130.83,108.211 l 29.86,47.414 c 51.65,-35.762 99.16,-74.68 139.93,-116.645 z M 2300.89,1686.36 c 16.77,-6.5 41.78,-17.14 70.84,-30.29 119.29,-53.72 317.03,-151.95 411.54,-207.8 6.74,-3.98 13,-7.77 18.62,-11.29 l 52.29,-236.92 c -8.87,5.69 -19.37,11.95 -32.01,18.55 l 31.94,-162.81 c -8.33,3.65 -16.65,7.27 -24.92,10.77 0.24,2.2 0.27,4.44 -0.16,6.72 l -60.15,315.74 c -1.2,6.25 -4.92,11.62 -10.32,14.99 -10.6,6.52 -21.74,12.95 -33.19,19.3 -145.73,80.72 -349.99,145.02 -350.75,145.39 -6.15,1.95 -12.89,1.15 -18.41,-2.17 -5.53,-3.32 -9.4,-8.9 -10.57,-15.24 l -52.16,-282.11 c -23.42,-4.03 -47.7,-8.87 -72.7,-14.44 z m -378.58,31.45 c 20.48,0 41.49,-0.34 62.8,-0.89 84.15,-2.18 174.62,-8.71 271.75,-20.73 l -88.32,-475.8 c -25.12,1.11 -48.9,1.57 -71.24,1.56 -13.2,0 -25.71,-0.21 -37.89,-0.51 l 48.03,316.36 c 1.86,12.25 -6.56,23.76 -18.81,25.67 -0.67,0.1 -131.6,20.65 -277.38,20.67 -56.11,0 -114.42,-3.03 -168.7,-11.65 -1.43,-0.22 -2.79,-0.61 -4.11,-1.08 l -20.41,18.1 c 38.49,10.58 108.82,24.78 209.71,24.78 73.78,0 163.85,-7.61 269.64,-29.83 4.89,-1.02 9.67,2.11 10.71,6.98 1.02,4.88 -2.11,9.65 -6.98,10.68 -107,22.5 -198.36,30.2 -273.37,30.2 -112.94,0 -188.91,-17.52 -225.7,-28.63 l -49.49,43.92 -35.19,31.23 c 112.08,23.2 246.39,38.97 404.95,38.97 z M 121.238,1946.62 c -40.1638,32.8 -64.5739,80.22 -72.8786,136.24 -2.1094,14.2 -3.2266,28.93 -3.2539,44.14 -0.086,88.13 36.2187,190.08 108.4145,278.42 88.75,108.98 208.703,168.4 309.589,168.15 0.204,0 0.399,-0.02 0.598,-0.02 50.586,-0.18 96.055,-14.67 132.664,-44.44 l 10.438,-9.2 c 43.539,-41.17 65.75,-101.37 65.851,-171.3 0.094,-88.13 -36.219,-190.09 -108.414,-278.44 -88.75,-108.95 -208.703,-168.38 -309.582,-168.13 -50.894,0.06 -96.633,14.58 -133.426,44.58 z m 669.821,-211.49 c -20.36,-12.47 -40.586,-22.38 -60.012,-30.41 -33.258,-13.76 -64.043,-21.79 -88.723,-26.4 -24.656,-4.61 -43.261,-5.9 -51.972,-6.21 l -324.715,185.23 c 16.097,0.58 32.383,2.5 48.738,5.45 11.934,2.16 23.895,4.79 35.875,8.19 l 215.047,-133.33 c 1.484,-0.92 3.133,-1.36 4.758,-1.36 3.019,0 5.965,1.51 7.675,4.27 2.614,4.24 1.325,9.79 -2.921,12.42 L 372.93,1878.14 c 18.215,6.33 36.34,14.09 54.258,23.16 L 662.32,1736.9 c 1.571,-1.08 3.371,-1.61 5.157,-1.61 2.851,0 5.648,1.34 7.402,3.85 2.855,4.07 1.859,9.7 -2.211,12.56 l -227.613,159.14 c 8.5,4.77 16.91,9.93 25.261,15.29 4.961,3.17 9.914,6.39 14.813,9.77 30.934,21.37 60.539,46.95 88.047,76.27 8.887,9.47 17.617,19.21 26.019,29.47 8.184,10.04 15.86,20.29 23.211,30.62 l 62.164,-43.46 52.387,-36.61 c 1.574,-1.1 3.375,-1.63 5.156,-1.63 2.848,0 5.653,1.34 7.414,3.85 2.852,4.07 1.86,9.7 -2.222,12.55 l -38.672,27.03 -76.012,53.14 c 45.68,68.71 73.301,142.62 82.027,213.51 l 205.11,-175.82 21.609,-18.52 c 1.696,-1.46 3.778,-2.17 5.856,-2.17 2.543,0 5.074,1.08 6.863,3.16 3.242,3.78 2.805,9.47 -0.988,12.71 l -19.075,16.35 -217.265,186.24 c 0.597,8.73 1.012,17.42 1.015,26.02 0.004,2.19 -0.101,4.37 -0.136,6.56 l 87.136,-81.37 c 1.735,-1.63 3.95,-2.43 6.157,-2.43 2.406,0 4.812,0.95 6.593,2.85 3.391,3.64 3.204,9.35 -0.437,12.76 l -100.785,94.13 c -1.574,17.07 -4.488,33.71 -8.641,49.82 l 273.145,-240.98 40.205,-35.47 c -8.6,-76.95 -25.092,-141.26 -46.74,-195.2 l -144.032,114 -33.965,26.89 c -3.894,3.08 -9.585,2.42 -12.675,-1.48 -3.09,-3.92 -2.43,-9.58 1.476,-12.67 l 26.094,-20.65 155.84,-123.34 c -6,-13.64 -12.32,-26.63 -18.957,-38.89 l -94.473,79.53 c -3.808,3.22 -9.515,2.72 -12.719,-1.09 -3.203,-3.81 -2.722,-9.5 1.106,-12.7 L 939,1887.18 c -22.684,-38.46 -48.273,-69.88 -75.074,-95.68 -0.102,0.09 -0.153,0.21 -0.266,0.3 l -115.59,85.42 c -4.015,2.97 -9.664,2.12 -12.625,-1.91 -2.968,-3.99 -2.101,-9.66 1.899,-12.61 l 113.109,-83.59 c -17.91,-15.81 -36.199,-29.22 -54.383,-40.75 -1.672,-1.06 -3.343,-2.21 -5.011,-3.23 z m 158.785,-57.66 34.992,-25.37 c -9.859,-8.29 -19.602,-15.42 -28.977,-21.47 l -35.824,26.23 c 9.672,6.02 19.684,12.91 29.809,20.61 z m -45.598,-9.05 -28.98,21.22 c 8.761,6.38 17.914,13.64 27.379,22.05 l 31.941,-23.15 c -0.617,-0.45 -1.231,-0.95 -1.836,-1.39 -9.754,-7.1 -19.297,-13.26 -28.504,-18.73 z m 45.129,31.67 -33.312,24.15 c 15.941,15.53 32.417,34.24 48.773,56.53 15.277,20.81 30.445,44.74 44.964,72.39 l 36.48,-30.45 c -13.13,-26.67 -28.26,-49.68 -44.33,-69.6 -16.884,-20.94 -34.794,-38.46 -52.575,-53.02 z m -100.828,-58.7 -25.738,17.31 c 10.218,4.59 22.671,11.03 36.734,20.09 l 27.395,-20.06 c -11.997,-6.29 -23.051,-11.27 -32.481,-15.05 -2.07,-0.83 -4.004,-1.57 -5.91,-2.29 z m 18.137,-12.2 c 10.765,4.53 23.082,10.37 36.379,17.74 l 35.921,-26.3 c -13.316,-7.3 -25.429,-12.47 -35.601,-16.11 z m 54.961,-36.94 c 10.093,4.2 21.359,9.68 33.316,16.68 l 128.649,-94.2 c 1.6,-1.16 3.47,-1.74 5.33,-1.74 2.77,0 5.52,1.29 7.29,3.69 2.94,4.02 2.07,9.67 -1.96,12.62 l -122.915,89.99 c 9.309,6.32 18.879,13.54 28.528,21.9 l 443.887,-321.83 c 1.61,-1.16 3.45,-1.7 5.28,-1.7 2.81,0 5.56,1.29 7.34,3.72 2.91,4.02 2.02,9.67 -2.01,12.58 l -440.97,319.7 c 15.87,15.42 31.65,34 46.53,56.23 7.79,11.63 15.33,24.22 22.49,37.99 2.29,4.44 0.57,9.86 -3.85,12.16 -4.44,2.3 -9.87,0.57 -12.16,-3.85 -6.7,-12.87 -13.74,-24.61 -20.99,-35.49 -15,-22.55 -30.94,-41.11 -46.856,-56.27 l -34.097,24.71 c 17.613,14.8 35.257,32.41 51.923,53.2 15.9,19.81 30.9,42.5 44.07,68.54 l 51.35,-42.85 c 1.69,-1.42 3.75,-2.11 5.79,-2.11 2.58,0 5.15,1.1 6.93,3.25 3.19,3.81 2.67,9.51 -1.14,12.71 l -54.92,45.82 c 12.66,28.1 23.16,59.76 30.57,95.41 0.31,1.51 0.71,2.92 1.01,4.45 0.96,4.89 -2.22,9.64 -7.11,10.6 -3.77,0.74 -7.4,-1.01 -9.33,-4.08 -0.57,-0.9 -1.04,-1.91 -1.26,-3.03 -6.76,-34.17 -16.52,-64.41 -28.24,-91.36 l -35.9,29.96 c 12.51,25.56 24.4,54.1 35.33,85.82 6.36,18.44 12.4,37.94 18.05,58.6 l 405.96,-360.21 198.09,-175.77 1.15,-0.95 c 0.01,-0.02 1.44,-1.12 3.92,-3.19 -1.1,-13.01 -3.56,-31.11 -8.86,-51.34 l -86.79,72.43 c -3.82,3.2 -9.51,2.69 -12.69,-1.13 -3.2,-3.84 -2.7,-9.52 1.14,-12.73 l 92.72,-77.37 c -4.22,-12.53 -9.54,-25.45 -16.39,-38.17 -10.15,-18.71 -23.36,-36.97 -40.63,-53.05 l -198.91,145.62 c -3.6,2.61 -8.37,2.06 -11.46,-0.91 -0.38,-0.36 -0.83,-0.6 -1.15,-1.04 -2.95,-4.03 -2.07,-9.68 1.95,-12.61 l 195.37,-143.04 c -33.68,-25.62 -80.67,-43.27 -147.43,-43.45 -9.34,0 -19.22,0.49 -29.35,1.22 z m 175.355,-373.4 97.04,-9.27 -42.59,-126.03 -43.15,37 c -1.34,4.56 -4.06,8.76 -8.18,11.79 -6.43,4.73 -14.51,5.5 -21.45,2.83 l -20.65,-2.18 z m -500.531,-215.74 30.074,38.9 36.969,3.91 200.261,21.18 151.917,16.06 c 1.63,-0.37 3.27,-0.57 4.91,-0.57 3.07,0 6.01,0.83 8.8,2.02 l 8.27,0.88 -155.479,-211.349 -72.445,-6.219 68.379,91.656 c 2.969,3.996 2.148,9.641 -1.848,12.629 -3.992,2.969 -9.652,2.148 -12.617,-1.836 l -77.953,-104.519 -96.547,-8.313 45.012,60.359 c 2.984,3.997 2.168,9.629 -1.828,12.622 -3.992,2.964 -9.653,2.144 -12.621,-1.829 l -54.621,-73.222 -69.946,-6.016 99.453,133.32 c 2.969,4.004 2.149,9.661 -1.851,12.625 -3.992,2.993 -9.633,2.168 -12.617,-1.832 L 571.105,847.395 514.543,842.52 469.285,838.621 Z M 458.402,792.41 882.754,828.914 909.418,778.906 491.41,743.43 Z m 58.293,-95.808 c 0.75,1.25 1.336,2.546 1.821,3.859 l 47.105,4.004 -15.902,-26.086 c -2.606,-4.27 -1.25,-9.805 2.992,-12.402 1.469,-0.899 3.09,-1.329 4.687,-1.329 3.04,0 6.016,1.543 7.719,4.317 l 22.789,37.39 78.239,6.633 -30.735,-50.398 c -2.601,-4.27 -1.254,-9.809 3.012,-12.414 1.465,-0.879 3.082,-1.309 4.68,-1.309 3.046,0 6.019,1.531 7.714,4.324 l 37.622,61.692 137.347,11.672 -27.988,-45.918 c -2.598,-4.27 -1.25,-9.809 3.016,-12.414 1.46,-0.899 3.082,-1.321 4.675,-1.321 3.047,0 6.02,1.543 7.711,4.321 l 34.899,57.222 61.113,5.188 -56.402,-82.586 c -0.09,-0.117 -0.118,-0.274 -0.204,-0.402 l -141.378,-9.266 21.449,35.176 c 2.582,4.273 1.234,9.812 -3.012,12.41 -4.254,2.578 -9.801,1.23 -12.402,-3.008 L 689.199,639.941 474.254,625.852 Z m 45.368,-252.832 -73.747,137.8 102.645,6.731 50.23,-109.617 c 1.524,-3.325 4.789,-5.286 8.211,-5.286 1.262,0 2.536,0.262 3.758,0.832 4.52,2.079 6.508,7.43 4.43,11.961 l -47.363,103.372 30.148,1.968 c 0.117,-0.711 0.152,-1.426 0.449,-2.117 l 31.485,-72.898 c 1.464,-3.418 4.785,-5.45 8.277,-5.45 1.191,0 2.402,0.235 3.57,0.743 4.574,1.98 6.696,7.273 4.707,11.843 l -29.824,69.114 103.527,6.773 c 0.075,-0.223 0.047,-0.457 0.137,-0.672 l 41.453,-98.469 c 1.457,-3.433 4.797,-5.515 8.305,-5.515 1.172,0 2.363,0.234 3.508,0.722 4.594,1.922 6.75,7.215 4.816,11.817 l -39.301,93.359 81.758,5.352 83.317,-153.223 -169.485,-3.84 -39.183,92.934 c -1.934,4.598 -7.231,6.734 -11.813,4.812 -4.598,-1.945 -6.758,-7.238 -4.824,-11.816 l 36.434,-86.367 -191.372,-4.336 c -1.461,-0.027 -2.875,-0.227 -4.253,-0.527 z m 103.234,-192.879 -69.793,130.398 -9.805,18.32 38.11,0.86 8.476,-18.496 40.004,-87.266 c 1.512,-3.301 4.781,-5.266 8.199,-5.266 1.258,0 2.539,0.266 3.766,0.832 4.531,2.063 6.508,7.43 4.437,11.954 l -36.711,80.105 -8.507,18.586 168.929,3.816 8.832,-19.265 42.789,-93.34 c 1.508,-3.32 4.782,-5.274 8.2,-5.274 1.257,0 2.539,0.262 3.757,0.833 4.516,2.07 6.508,7.417 4.446,11.953 l -39.52,86.199 -8.863,19.348 138.754,3.132 10.805,-19.882 76.748,-141.141 -84.772,1.226 -41.371,98.254 c -1.937,4.59 -7.23,6.739 -11.82,4.793 -4.594,-1.914 -6.758,-7.215 -4.821,-11.804 l 38.301,-90.957 -123.539,1.796 -32.867,78.02 c -1.918,4.598 -7.231,6.758 -11.801,4.82 -4.597,-1.941 -6.758,-7.222 -4.82,-11.812 l 29.781,-70.735 -22.84,0.325 -36.945,87.769 c -1.941,4.59 -7.227,6.75 -11.82,4.817 -4.59,-1.946 -6.758,-7.227 -4.817,-11.817 l 33.887,-80.476 -93.34,1.355 c -3.375,0.051 -6.555,-0.703 -9.449,-1.98 z M 995.313,50.3828 948.848,151.75 c -2.075,4.52 -7.41,6.523 -11.95,4.441 -4.527,-2.082 -6.527,-7.429 -4.453,-11.961 l 43,-93.8003 -116.172,0.2617 -38.488,91.3866 c -1.941,4.582 -7.226,6.762 -11.808,4.817 -4.606,-1.922 -6.758,-7.227 -4.813,-11.817 l 35.516,-84.3358 -67.34,0.1562 -75.735,141.4966 -8.113,15.164 183.793,-2.676 6.985,-16.59 31.125,-73.945 c 1.445,-3.45 4.796,-5.532 8.304,-5.532 1.172,0 2.356,0.239 3.496,0.727 4.602,1.91 6.75,7.215 4.832,11.812 l -28.004,66.489 -7.05,16.746 131.367,-1.914 7.5,-17.793 22.06,-52.383 c 1.45,-3.457 4.79,-5.527 8.32,-5.527 1.17,0 2.35,0.215 3.49,0.703 4.58,1.941 6.75,7.234 4.81,11.816 l -18.93,44.949 -7.56,17.942 40.05,-0.574 9.96,-18.325 L 1165.62,50 Z m 130.227,167.7692 35.47,57.043 84.57,-153.039 -42.75,-46.1482 z m 41.1,140.137 83.41,1.176 c -21.02,-18.789 -36.42,-44.094 -43.87,-72.727 L 1183,328.684 c -0.64,1.531 -1.43,3.007 -2.42,4.375 z m 255.43,-308.8867 -181.99,0.4219 42.97,46.4063 h 139.02 z m -83.47,98.7107 c -49.83,0.11 -92.26,43.774 -92.35,100.266 0.09,56.496 42.52,100.156 92.35,100.242 49.81,-0.086 92.24,-43.746 92.36,-100.242 -0.12,-56.492 -42.55,-100.156 -92.36,-100.266 z m 213.54,171.34 c -33.03,-0.129 -61.39,-17.234 -78.75,-42.883 -6.41,34.16 -24.18,64.192 -49.18,85.344 l 101.72,1.438 27.75,-43.989 c -0.52,0.012 -1.02,0.09 -1.54,0.09 z M 1603.89,217.5 c -0.12,-32.512 -24.36,-56.797 -51.75,-56.848 -27.37,0.051 -51.62,24.336 -51.74,56.848 0.12,32.512 24.37,56.797 51.74,56.848 27.39,-0.051 51.63,-24.336 51.75,-56.848 z m -142.72,-34.512 c 5.53,-16.093 14.76,-30.383 26.76,-41.633 h -56.6 c 12.19,11.848 22.33,25.911 29.84,41.633 z m 201.47,-134.1325 -195.46,0.4531 v 46.9219 h 195.46 z m -46.28,92.4995 c 11.14,10.454 19.94,23.481 25.57,38.176 l 24.09,-38.176 z m 13.34,383.02 c -1.91,4.578 -7.22,6.746 -11.81,4.816 -4.59,-1.945 -6.75,-7.218 -4.82,-11.82 l 45.09,-107.066 -72.58,-1.028 -18.54,44.063 c -1.94,4.59 -7.24,6.75 -11.83,4.824 -4.58,-1.941 -6.75,-7.226 -4.81,-11.836 l 15.72,-37.324 -77.01,-1.074 -73.12,173.633 c -1.94,4.597 -7.23,6.757 -11.81,4.824 -4.61,-1.934 -6.75,-7.227 -4.83,-11.817 l 70.29,-166.914 -33.66,-0.476 -99.5,236.297 c -1.93,4.589 -7.21,6.75 -11.82,4.812 -4.58,-1.934 -6.74,-7.234 -4.8,-11.812 l 96.66,-229.575 -193.44,-2.722 -48.85,116.023 c -1.93,4.594 -7.23,6.75 -11.81,4.817 -4.61,-1.934 -6.77,-7.239 -4.83,-11.817 l 46.02,-109.297 -61.7,-0.871 -128.86,233.164 -31.054,56.203 c 2.422,0.325 4.758,0.645 7.367,0.989 34.187,4.492 84.227,10.488 147.107,16.504 l 16.96,-40.278 29.09,-69.09 c 1.45,-3.437 4.8,-5.515 8.32,-5.515 1.17,0 2.35,0.222 3.5,0.711 4.59,1.925 6.75,7.226 4.82,11.816 l -27.64,65.625 -16.21,38.484 c 88.42,8.11 199.91,15.942 327.5,19.778 l 7.43,-17.664 42.68,-101.36 c 1.46,-3.449 4.8,-5.527 8.31,-5.527 1.17,0 2.36,0.227 3.5,0.715 4.61,1.933 6.76,7.226 4.82,11.812 l -40.22,95.52 -7.18,17.058 c 45.88,1.235 93.71,1.926 143.24,1.926 0.57,0 1.14,-0.008 1.72,-0.008 l -8.62,-14.718 -20.88,-35.657 c -3.97,-6.753 -4.13,-15.078 -0.44,-22.007 l 133.06,-249.914 -72.6,-1.028 z m 181.53,-475.8594 -103.47,0.2461 v 47.4688 h 103.47 z m -8.19,359.8824 -8.32,15.633 h 46.48 l 6.9,-16.367 41.69,-98.992 c 1.44,-3.445 4.79,-5.527 8.31,-5.527 1.16,0 2.35,0.234 3.48,0.71 4.61,1.938 6.76,7.239 4.83,11.829 l -38.59,91.66 -7.03,16.687 h 76.02 l 7.55,-17.949 25.74,-61.133 c 1.44,-3.445 4.79,-5.523 8.32,-5.523 1.16,0 2.35,0.23 3.48,0.711 4.59,1.933 6.75,7.234 4.82,11.816 l -22.65,53.809 -7.68,18.269 h 109.29 l 8.45,-20.078 50.46,-119.832 c 1.46,-3.437 4.8,-5.516 8.31,-5.516 1.17,0 2.35,0.223 3.49,0.711 4.59,1.934 6.75,7.227 4.82,11.829 l -47.36,112.488 -8.6,20.398 H 2156 l 9,-21.558 65.05,-155.852 -136.66,-0.012 -36.72,87.2 c -1.92,4.597 -7.23,6.738 -11.81,4.796 -4.59,-1.914 -6.75,-7.218 -4.81,-11.808 l 33.77,-80.188 h -87.75 l -45.98,109.219 c -1.93,4.582 -7.23,6.738 -11.8,4.809 -4.6,-1.926 -6.76,-7.231 -4.82,-11.821 l 43.02,-102.214 h -77.3 z M 2166.35,45.1484 2126.64,139.48 c -1.94,4.59 -7.23,6.758 -11.82,4.817 -4.59,-1.922 -6.75,-7.227 -4.81,-11.817 l 36.77,-87.3316 h -87.2 l -19.31,45.8477 c -1.93,4.5898 -7.21,6.7383 -11.82,4.7969 -4.58,-1.9258 -6.74,-7.2188 -4.79,-11.8086 L 2040,45.1484 h -43.54 l -74.19,139.3166 -9.07,17.027 h 115.96 l 7.97,-18.914 27.58,-65.5 c 1.44,-3.445 4.79,-5.523 8.3,-5.523 1.17,0 2.35,0.23 3.49,0.711 4.61,1.945 6.75,7.226 4.83,11.828 l -24.51,58.164 -8.1,19.234 h 96.05 l 8.78,-20.816 29.01,-68.906 c 1.46,-3.45 4.8,-5.532 8.31,-5.532 1.17,0 2.36,0.239 3.52,0.715 4.57,1.953 6.74,7.227 4.79,11.824 l -25.92,61.575 -8.9,21.14 h 26.08 l 9.08,-21.57 16.71,-39.668 c 1.46,-3.438 4.81,-5.52 8.32,-5.52 1.16,0 2.35,0.227 3.5,0.715 4.59,1.934 6.75,7.227 4.8,11.817 l -13.61,32.336 -9.22,21.89 h 38.87 l 9.4,-22.539 55.86,-133.8046 z m 123.59,175.1326 55.76,40.071 50.74,-115.497 -45.43,-70.8628 z m 298.9,-175.1326 h -202.75 l 48.2,75.1716 h 154.55 z m 219.54,0 H 2633.96 V 120.32 h 174.42 z m -34.34,138.1136 c -55.28,0.097 -102.15,48.488 -102.26,110.801 0.11,62.363 46.98,110.722 102.26,110.839 55.26,-0.117 102.13,-48.476 102.23,-110.839 -0.1,-62.313 -46.97,-110.704 -102.23,-110.801 z M 2991.8,45.1484 H 2853.48 V 120.32 h 138.32 z m -36.26,201.9926 h -0.02 c 0.11,32.527 24.37,56.797 51.75,56.863 27.37,-0.066 51.62,-24.336 51.73,-56.863 -0.11,-32.512 -24.36,-56.782 -51.73,-56.848 -27.38,0.066 -51.64,24.336 -51.73,56.848 z M 3036.89,45.1484 V 120.32 h 118.2 l 28.18,-75.1716 z m 198.06,197.3716 -27.84,-29.075 -11.69,19.297 c 13.87,1.321 27.1,4.731 39.53,9.778 z m -11.5,-175.977 -26.61,70.969 90.95,94.961 38.46,-44.219 z m 105.43,335.344 c 0.15,-0.246 0.32,-0.508 0.46,-0.742 9.96,-16.594 16.08,-29.661 19.66,-38.364 0.11,-0.281 0.22,-0.554 0.34,-0.828 l -30.39,-31.726 c 6.76,17.918 10.58,37.371 10.62,57.695 -0.01,4.707 -0.29,9.351 -0.69,13.965 z m 26.82,-178.762 -36.57,42.07 63.48,66.282 53.91,-12.688 z m 36.91,152.324 c -8.4,21.778 -30.71,68.117 -82.75,127.239 l 38.51,38.511 c 46.62,-54.773 81.36,-114.39 99.06,-178.648 z m -862.1,384.231 c -88.97,0 -161.1,-77.082 -161.1,-172.168 0,-95.078 72.13,-172.16 161.1,-172.16 88.96,0 161.09,77.082 161.09,172.16 0,95.086 -72.13,172.168 -161.09,172.168 z m 0,-44.055 c 10.92,0 19.76,-9.465 19.76,-21.113 0,-11.66 -8.84,-21.106 -19.76,-21.106 -10.91,0 -19.74,9.446 -19.74,21.106 0,11.648 8.83,21.113 19.74,21.113 z M 2407.13,583.77 c 0.01,11.64 8.85,21.093 19.75,21.093 10.9,0 19.76,-9.453 19.76,-21.093 0,-11.661 -8.86,-21.114 -19.75,-21.114 -10.91,0 -19.75,9.453 -19.76,21.114 z m 64.07,-93.243 c -7.7,-8.242 -20.22,-8.242 -27.94,0 -7.69,8.243 -7.69,21.59 0,29.844 7.72,8.234 20.25,8.242 27.94,0.012 7.72,-8.254 7.71,-21.613 0,-29.856 z m 0.01,156.629 c -7.7,-8.258 -20.23,-8.258 -27.95,0 -7.69,8.227 -7.69,21.606 0,29.848 7.72,8.238 20.24,8.238 27.93,0 7.72,-8.242 7.73,-21.621 0.02,-29.848 z m 59.3,-195.254 c -10.91,0 -19.74,9.453 -19.74,21.106 0,11.648 8.83,21.113 19.74,21.113 10.92,0 19.76,-9.465 19.76,-21.113 0,-11.653 -8.84,-21.106 -19.76,-21.106 z m 0,86.078 c -25.6,-0.011 -46.35,22.176 -46.35,49.532 0,27.359 20.75,49.551 46.35,49.551 25.6,0 46.35,-22.192 46.35,-49.551 0,-27.356 -20.75,-49.532 -46.35,-49.532 z m 59.31,139.012 c 7.71,8.25 20.22,8.25 27.93,0.012 7.72,-8.234 7.72,-21.613 0,-29.856 -7.71,-8.242 -20.22,-8.242 -27.93,0.008 -7.71,8.235 -7.71,21.606 0,29.836 z m 27.93,-186.465 c -7.7,-8.242 -20.22,-8.242 -27.93,0.008 -7.71,8.235 -7.7,21.594 0,29.836 7.72,8.242 20.21,8.242 27.93,0 7.71,-8.242 7.73,-21.601 0,-29.844 z m 16.37,72.129 c -10.88,0 -19.72,9.461 -19.72,21.114 0,11.652 8.83,21.093 19.73,21.093 10.91,0 19.76,-9.441 19.76,-21.093 0,-11.653 -8.84,-21.114 -19.77,-21.114 z m -633.16,894.484 c 11.54,0 20.9,9.35 20.9,20.9 0,11.53 -9.36,20.9 -20.9,20.9 -11.55,0 -20.9,-9.37 -20.9,-20.9 0,-11.55 9.35,-20.9 20.9,-20.9 z M 542.242,2472.18 c -28.695,23.5 -64.597,34.3 -101.91,34.25 -82.566,-0.39 -174.059,-49.94 -243.469,-134.63 -57.035,-70.02 -87.293,-149.99 -87.422,-221.24 -0.109,-54.12 18.215,-104.56 58.27,-137.24 28.637,-23.44 64.406,-34.23 101.625,-34.23 h 0.281 c 82.555,0.38 174.043,49.94 243.469,134.59 57.035,70.03 87.281,150.01 87.406,221.26 0.11,54.13 -18.219,104.57 -58.25,137.24 z M 269.617,2024.22 c -28.969,0.05 -53.672,7.99 -73.379,24.03 -27.207,22.21 -41.558,57.66 -41.687,102.31 -0.024,10.03 0.785,20.48 2.304,31.18 l 192.266,-139.69 c -27.777,-11.85 -55.016,-17.98 -79.504,-17.83 z m 124.684,42.13 -225.778,164.03 c 2.668,7.98 5.731,16.02 9.165,24.07 l 238.125,-173.01 c -7.098,-5.43 -14.29,-10.4 -21.512,-15.09 z m 116.621,122.67 -252.641,183.55 c 18.188,18.17 37.481,33.67 57.11,46.43 l 225.922,-164.18 c -7.297,-21.77 -17.43,-43.98 -30.391,-65.8 z M 3267.25,387.93 c 0,50.195 -38.07,90.879 -85.04,90.879 -46.96,0 -85.03,-40.684 -85.03,-90.879 0,-50.196 38.07,-90.879 85.03,-90.879 46.97,0 85.04,40.683 85.04,90.879 z m -19.91,-1.973 c 0,-6.152 -4.66,-11.152 -10.44,-11.152 -5.74,0 -10.4,5 -10.4,11.152 0,6.145 4.66,11.133 10.41,11.133 5.77,0 10.43,-4.988 10.43,-11.133 z m -33.82,49.207 c 4.07,4.359 10.67,4.367 14.75,0 4.07,-4.344 4.07,-11.394 -0.01,-15.762 -4.07,-4.343 -10.67,-4.343 -14.74,0.012 -4.07,4.356 -4.07,11.399 0,15.75 z m 0,-82.684 c 4.07,4.356 10.67,4.356 14.75,0 4.07,-4.335 4.07,-11.398 0,-15.75 -4.07,-4.347 -10.68,-4.347 -14.75,0.008 -4.07,4.344 -4.07,11.407 0,15.742 z m -31.31,103.079 c 5.76,0 10.43,-4.993 10.43,-11.157 0,-6.14 -4.67,-11.129 -10.43,-11.129 -5.76,0 -10.41,4.989 -10.41,11.129 0,6.164 4.65,11.157 10.41,11.157 z m -65.13,-69.602 c 0,6.145 4.67,11.133 10.43,11.133 5.75,0 10.43,-4.988 10.43,-11.133 0,-6.152 -4.68,-11.152 -10.43,-11.152 -5.76,0 -10.43,5 -10.43,11.152 z m 33.82,-49.227 c -4.08,-4.347 -10.67,-4.347 -14.75,0 -4.06,4.352 -4.06,11.407 0,15.75 4.08,4.356 10.69,4.356 14.75,0.008 4.08,-4.343 4.07,-11.406 0,-15.758 z m 0.01,82.684 c -4.07,-4.363 -10.68,-4.363 -14.76,0 -4.06,4.348 -4.06,11.399 0,15.75 4.08,4.359 10.67,4.359 14.75,0 4.07,-4.351 4.08,-11.402 0.01,-15.75 z m 6.84,-31.484 c 0,14.441 10.94,26.152 24.46,26.152 13.51,0 24.47,-11.711 24.47,-26.152 0,-14.446 -10.96,-26.153 -24.47,-26.153 -13.52,0 -24.46,11.707 -24.46,26.153 z m 14.05,-60.45 c 0,6.165 4.65,11.153 10.41,11.153 5.76,0 10.43,-4.988 10.43,-11.153 0,-6.152 -4.67,-11.132 -10.43,-11.132 -5.76,0 -10.41,4.98 -10.41,11.132 z M 1516.41,217.488 c 0,-21.101 16,-38.211 35.74,-38.211 19.74,0 35.74,17.11 35.74,38.211 0,21.106 -16,38.215 -35.74,38.215 -19.74,0 -35.74,-17.109 -35.74,-38.215 z m 903.54,1208.962 c 11.55,0 20.9,9.36 20.9,20.91 0,11.54 -9.35,20.89 -20.9,20.89 -11.54,0 -20.9,-9.35 -20.9,-20.89 0,-11.55 9.36,-20.91 20.9,-20.91 z M 1338.59,332.043 c -43.24,0 -78.29,-37.465 -78.29,-83.676 0,-46.219 35.05,-83.679 78.29,-83.679 43.26,0 78.3,37.46 78.3,83.679 0,46.211 -35.04,83.676 -78.3,83.676 z m 28.84,-40.18 c 3.75,4.004 9.82,4.004 13.58,0 3.75,-4.004 3.75,-10.508 -0.01,-14.519 -3.75,-4.004 -9.82,-4.004 -13.57,0.011 -3.75,4 -3.75,10.497 0,14.508 z m -28.84,18.774 c 5.32,0 9.61,-4.602 9.61,-10.266 0,-5.664 -4.29,-10.254 -9.61,-10.254 -5.3,0 -9.58,4.59 -9.58,10.254 0,5.664 4.28,10.266 9.58,10.266 z m -59.96,-64.094 c 0,5.664 4.3,10.254 9.6,10.254 5.29,0 9.61,-4.59 9.61,-10.254 0,-5.652 -4.32,-10.254 -9.61,-10.254 -5.3,0 -9.6,4.602 -9.6,10.254 z m 31.14,-45.32 c -3.75,-4.004 -9.83,-4.004 -13.58,0 -3.74,4.011 -3.74,10.496 0,14.5 3.75,4.011 9.83,4.011 13.58,0.007 3.75,-4 3.75,-10.496 0,-14.507 z m 0,76.132 c -3.75,-4.015 -9.83,-4.015 -13.58,0 -3.74,3.993 -3.74,10.497 0,14.508 3.75,4.004 9.83,4.004 13.58,0 3.75,-4.011 3.75,-10.515 0,-14.508 z m 28.82,-94.906 c -5.3,0 -9.58,4.594 -9.58,10.254 0,5.676 4.28,10.277 9.58,10.277 5.32,0 9.61,-4.601 9.61,-10.277 0,-5.66 -4.29,-10.254 -9.61,-10.254 z m 0,41.836 c -12.44,0 -22.52,10.774 -22.52,24.082 0,13.305 10.08,24.074 22.52,24.074 12.45,0 22.54,-10.769 22.54,-24.074 0,-13.308 -10.09,-24.082 -22.54,-24.082 z m 42.42,-23.062 c -3.75,-4.004 -9.83,-4.004 -13.58,0.007 -3.75,4.004 -3.75,10.5 0,14.493 3.75,4.011 9.82,4.011 13.58,0 3.74,-3.993 3.75,-10.489 0,-14.5 z m 17.56,45.32 c 0,-5.652 -4.3,-10.254 -9.61,-10.254 -5.28,0 -9.58,4.602 -9.58,10.254 0,5.664 4.29,10.254 9.58,10.254 5.31,0 9.61,-4.59 9.61,-10.254 z M 3047.1,608.184 c -19.74,0 -35.74,-17.11 -35.74,-38.211 0,-21.106 16,-38.215 35.74,-38.215 19.75,0 35.74,17.109 35.74,38.215 0,21.101 -15.99,38.211 -35.74,38.211 z m -355.53,709.626 c 11.54,0 20.9,9.36 20.9,20.9 0,11.54 -9.36,20.89 -20.9,20.89 -11.53,0 -20.89,-9.35 -20.89,-20.89 0,-11.54 9.36,-20.9 20.89,-20.9"
         style="fill:#100f0d;fill-opacity:1;fill-rule:nonzero;stroke:none"
         id="path24" /></g></g></svg>
