<?xml version="1.0" encoding="UTF-8" standalone="no"?>
<!-- Created with Inkscape (http://www.inkscape.org/) -->

<svg
   width="1163.1499mm"
   height="698.17462mm"
   viewBox="0 0 1163.1499 698.17462"
   version="1.1"
   id="svg20458"
   xml:space="preserve"
   xmlns="http://www.w3.org/2000/svg"
   xmlns:svg="http://www.w3.org/2000/svg"><defs
     id="defs20455" /><g
     id="layer1"
     transform="translate(-3178.7447,1132.6703)"><g
       id="g6196"><path
         d="m 4341.8948,-434.49564 -1163.1501,-74.8295 63.1833,-608.28686 1065.834,-15.0583 34.1328,698.17466"
         style="fill:#5a5448;fill-opacity:1;fill-rule:nonzero;stroke:none;stroke-width:0.139121"
         id="path3492-5-4-3" /><path
         d="m 4273.6285,-491.04606 -1050.7671,-38.26088 55.5865,-565.65636 990.3689,-13.9914 4.8117,617.90864"
         style="fill:#97877a;fill-opacity:1;fill-rule:nonzero;stroke:none;stroke-width:0.139121"
         id="path3494-51-0-5" /><path
         d="m 4273.6285,-491.04606 68.2663,56.55042 -1163.1501,-74.8295 44.1167,-19.9818 1050.7671,38.26088"
         style="fill:#443f35;fill-opacity:1;fill-rule:nonzero;stroke:none;stroke-width:0.139121"
         id="path3496-7-5-7" /><path
         d="m 4268.8168,-1108.9547 38.9452,-23.7156 -1065.834,15.0583 36.5199,22.6487 990.3689,-13.9914"
         style="fill:#6d675d;fill-opacity:1;fill-rule:nonzero;stroke:none;stroke-width:0.139121"
         id="path3498-4-2-4" /><path
         d="m 4289.1323,-905.69856 -18.9821,-31.9934 -54.098,-8.9856 54.1735,17.9711 18.9071,23.0079"
         style="fill:#443f35;fill-opacity:1;fill-rule:nonzero;stroke:none;stroke-width:0.139121"
         id="path3500-06-6-2" /><path
         d="m 3255.5866,-625.86198 -23.0952,-8.29849 -37.9823,12.95542 38.0203,-6.48295 23.0572,1.82602"
         style="fill:#443f35;fill-opacity:1;fill-rule:nonzero;stroke:none;stroke-width:0.139121"
         id="path3502-5-9-2" /><path
         d="m 3278.4479,-1094.9633 -4.313,43.9026 8.3057,-42.0871 52.6925,-2.6157 -56.6852,0.8002"
         style="fill:#c6a38d;fill-opacity:1;fill-rule:nonzero;stroke:none;stroke-width:0.139121"
         id="path3504-9-6-6" /><path
         d="m 3240.0448,-704.16847 22.58,-229.78109 c 0,0 -9.6039,188.36073 -22.58,229.78109"
         style="fill:#c6a38d;fill-opacity:1;fill-rule:nonzero;stroke:none;stroke-width:0.139121"
         id="path3506-35-2-3" /><path
         d="m 4272.8594,-670.14959 v 160.66511 c 0,0 -10.3586,-136.48812 0,-160.66511"
         style="fill:#c6a38d;fill-opacity:1;fill-rule:nonzero;stroke:none;stroke-width:0.139121"
         id="path3508-3-7-8" /><path
         d="m 3240.0448,-1024.9859 28.3991,31.83964 40.9337,-2.4823 -41.477,8.0113 -27.8558,-37.36864"
         style="fill:#443f35;fill-opacity:1;fill-rule:nonzero;stroke:none;stroke-width:0.139121"
         id="path3510-1-4-6" /><path
         d="m 4273.6285,-491.04606 34.1335,35.71725 34.1328,20.83317 z"
         style="fill:#26231e;fill-opacity:1;fill-rule:nonzero;stroke:none;stroke-width:0.139121"
         id="path3514-4-2-6" /><path
         d="m 3725.5111,-491.93348 473.8498,10.03205 c 0,0 -435.3898,-6.68794 -473.8498,-10.03205"
         style="fill:#26231e;fill-opacity:1;fill-rule:nonzero;stroke:none;stroke-width:0.139121"
         id="path3516-2-7-5" /><path
         d="m 3323.408,-515.3257 223.8172,19.84835 c 0,0 -189.2029,-18.59688 -223.8172,-19.84835"
         style="fill:#26231e;fill-opacity:1;fill-rule:nonzero;stroke:none;stroke-width:0.139121"
         id="path3518-3-4-8" /><path
         d="m 3844.7493,-1086.3258 6.2413,-14.0836 41.539,-15.0172 -49.2355,12.4835 1.4548,16.6173"
         style="fill:#443f35;fill-opacity:1;fill-rule:nonzero;stroke:none;stroke-width:0.139121"
         id="path3520-4-4-0" /><path
         d="m 3320.9155,-1113.8167 41.2092,18.8534 -20.6048,19.8791 30.1653,-20.6793 -50.7697,-18.0532"
         style="fill:#443f35;fill-opacity:1;fill-rule:nonzero;stroke:none;stroke-width:0.139121"
         id="path3522-1-7-6" /><path
         d="m 3867.9119,-701.62697 331.449,144.68601 c 0,0 -280.4666,-128.07577 -331.449,-144.68601"
         style="fill:#443f35;fill-opacity:0.699317;fill-rule:nonzero;stroke:none;stroke-width:0.188749"
         id="path3526-2-2-7" /><path
         d="m 4312.4602,-485.4453 -38.8317,-17.98162 h -51.9261 l 51.794,-4.59529 38.9638,22.57691"
         style="fill:#443f35;fill-opacity:1;fill-rule:nonzero;stroke:none;stroke-width:0.139121"
         id="path3528-3-6-2" /><path
         d="m 3658.2701,-704.16847 -302.0825,191.91314 c 0,0 223.9725,-156.5439 302.0825,-191.91313"
         style="fill:#443f35;fill-opacity:0.699317;fill-rule:nonzero;stroke:none;stroke-width:0.354761"
         id="path3530-4-6-6" /><path
         d="m 3606.7419,-515.3257 443.5567,16.14543 c 0,0 -273.5016,-16.5557 -443.5567,-16.14543"
         style="fill:#c6a38d;fill-opacity:1;fill-rule:nonzero;stroke:none;stroke-width:0.139121"
         id="path3532-1-3-9" /><path
         d="m 3472.5249,-1097.9486 227.3718,-2.7251 c 0,0 -213.0975,4.5889 -227.3718,2.7251"
         style="fill:#c6a38d;fill-opacity:1;fill-rule:nonzero;stroke:none;stroke-width:0.139121"
         id="path3608-1-7-8" /><path
         d="m 3699.8967,-964.86006 425.9706,-107.21134 c 0,0 -298.5659,57.9192 -425.9706,107.21134"
         style="fill:#443f35;fill-opacity:0.699317;fill-rule:nonzero;stroke:none;stroke-width:0.584413"
         id="path3648-1-9-7" /><path
         d="m 4308.544,-698.11906 -17.6043,-148.03798 c 0,0 21.3776,91.15957 17.6043,148.03798"
         style="fill:#443f35;fill-opacity:1;fill-rule:nonzero;stroke:none;stroke-width:0.139121"
         id="path3726-6-9-4" /><path
         d="m 3820.3352,-800.00036 -595.7315,-140.433 c 0,0 373.9098,93.95806 595.7315,140.433"
         style="fill:#443f35;fill-opacity:0.699317;fill-rule:nonzero;stroke:none;stroke-width:0.293467"
         id="path3730-9-2-5" /><path
         d="m 4181.5952,-1123.3768 99.7127,-2.2979 c 0,0 -70.1549,9.3961 -99.7127,2.2979"
         style="fill:#443f35;fill-opacity:1;fill-rule:nonzero;stroke:none;stroke-width:0.139121"
         id="path3734-4-2-2" /><path
         d="m 3966.1284,-607.08247 251.0691,-28.31548 c 0,0 -157.075,30.02488 -251.0691,28.31548"
         style="fill:#443f35;fill-opacity:0.699317;fill-rule:nonzero;stroke:none;stroke-width:0.386354"
         id="path3736-1-5-8" /></g></g><style
     type="text/css"
     id="style13890">
	.st0{fill:none;stroke:#000000;stroke-width:2;stroke-linecap:round;stroke-linejoin:round;stroke-miterlimit:10;}
</style></svg>
