<?xml version="1.0" encoding="UTF-8" standalone="no"?>
<!-- Created with Inkscape (http://www.inkscape.org/) -->

<svg
   width="389.45312mm"
   height="109.45361mm"
   viewBox="0 0 389.45312 109.45361"
   version="1.1"
   id="svg20458"
   xml:space="preserve"
   inkscape:version="1.2.2 (732a01da63, 2022-12-09)"
   sodipodi:docname="stage.svg"
   inkscape:export-filename="panel2.svg"
   inkscape:export-xdpi="23.161549"
   inkscape:export-ydpi="23.161549"
   xmlns:inkscape="http://www.inkscape.org/namespaces/inkscape"
   xmlns:sodipodi="http://sodipodi.sourceforge.net/DTD/sodipodi-0.dtd"
   xmlns:xlink="http://www.w3.org/1999/xlink"
   xmlns="http://www.w3.org/2000/svg"
   xmlns:svg="http://www.w3.org/2000/svg"><sodipodi:namedview
     id="namedview20460"
     pagecolor="#ffffff"
     bordercolor="#000000"
     borderopacity="0.25"
     inkscape:showpageshadow="2"
     inkscape:pageopacity="0.0"
     inkscape:pagecheckerboard="0"
     inkscape:deskcolor="#d1d1d1"
     inkscape:document-units="mm"
     showgrid="false"
     inkscape:zoom="0.45254834"
     inkscape:cx="11945.685"
     inkscape:cy="-19791.256"
     inkscape:window-width="1920"
     inkscape:window-height="991"
     inkscape:window-x="-9"
     inkscape:window-y="-9"
     inkscape:window-maximized="1"
     inkscape:current-layer="layer1" /><defs
     id="defs20455"><linearGradient
       inkscape:collect="always"
       id="linearGradient17535"><stop
         style="stop-color:#7d7d7d;stop-opacity:1;"
         offset="0"
         id="stop17531" /><stop
         style="stop-color:#b7b7b7;stop-opacity:0.74931127;"
         offset="0.49806949"
         id="stop17539" /><stop
         style="stop-color:#7d7d7d;stop-opacity:1;"
         offset="1"
         id="stop17533" /></linearGradient><linearGradient
       inkscape:collect="always"
       xlink:href="#linearGradient17535"
       id="linearGradient17537"
       x1="2855.2947"
       y1="-5203.082"
       x2="3234.7803"
       y2="-5103.5967"
       gradientUnits="userSpaceOnUse"
       gradientTransform="translate(-83.646257,59.883858)" /></defs><g
     inkscape:label="Vrstva 1"
     inkscape:groupmode="layer"
     id="layer1"
     transform="translate(-2526.2962,5094.2284)"><g
       id="g37165"
       transform="translate(-240.36834,53.954234)"><rect
         style="fill:#515151;fill-opacity:0.904328;stroke:none;stroke-width:0.546666;stroke-linecap:round;stroke-linejoin:bevel;stroke-miterlimit:7.9;stroke-dasharray:none;stroke-dashoffset:0;stroke-opacity:1"
         id="rect6446-7"
         width="389.45331"
         height="109.45333"
         x="2766.6646"
         y="-5148.1826"
         ry="15.380503"
         rx="14.009441" /><rect
         style="fill:url(#linearGradient17537);fill-opacity:1;stroke:#a8a8a8;stroke-width:0.514467;stroke-linecap:round;stroke-linejoin:bevel;stroke-miterlimit:7.9;stroke-dasharray:none;stroke-dashoffset:0;stroke-opacity:1"
         id="rect6446"
         width="379.48553"
         height="99.485535"
         x="2771.6484"
         y="-5143.1987"
         ry="13.979817"
         rx="13.650879" /><g
         id="g1182-1-8"
         transform="matrix(0.05974204,0.05974204,0.05974204,-0.05974204,3049.5233,-5066.7737)"><path
           d="m 951.06,657.41005 -54.85,-95 h -54.85 v 190 h 54.85 l 54.85,-95"
           style="fill:#827f7f;fill-opacity:1;fill-rule:nonzero;stroke:none;stroke-width:0.1"
           id="path74-6-6" /><path
           d="m 731.66,655.57005 54.85,-95 h 54.85 v 190 h -54.85 l -54.85,-95"
           style="fill:#c6c6c7;fill-opacity:1;fill-rule:nonzero;stroke:none;stroke-width:0.1"
           id="path76-4-3" /><path
           d="m 764.73,655.57205 54.85,-95 h -33.07 l -54.85,95 54.85,95 h 33.07 l -54.85,-95"
           style="fill:#e8e7e6;fill-opacity:1;fill-rule:nonzero;stroke:none;stroke-width:0.1"
           id="path78-6-2" /><path
           d="m 790.84,569.90805 h 101.039 l 50.52,87.502 -50.52,87.502 H 790.84 l -50.519,-87.502 z m 109.7,-15 H 782.18 l -59.18,102.502 59.18,102.502 h 118.36 l 59.179,-102.502 -59.179,-102.502"
           style="fill:#474748;fill-opacity:1;fill-rule:nonzero;stroke:none;stroke-width:0.1"
           id="path80-8-2" /><path
           d="m 790.84,569.91005 h 101.039 l 50.521,87.5 -50.521,87.5 H 790.84 l -50.52,-87.5 z m 109.7,-15 H 782.18 l -59.18,102.5 59.18,102.5 h 118.36 l 59.18,-102.5 -59.18,-102.5"
           style="fill:#474748;fill-opacity:1;fill-rule:nonzero;stroke:none;stroke-width:0.1"
           id="path82-70-5" /><path
           d="m 866.09,752.41005 v -190 h -24.73 v 190 h 24.73"
           style="fill:#827f7f;fill-opacity:1;fill-rule:nonzero;stroke:none;stroke-width:0.1"
           id="path84-4-9" /><path
           d="m 841.36,752.41005 v -190 h -24.73 v 190 h 24.73"
           style="fill:#605f61;fill-opacity:1;fill-rule:nonzero;stroke:none;stroke-width:0.1"
           id="path86-8-6" /><path
           d="M 889.252,560.57205 H 866.09 v 191.838 h 23.162 v -191.838"
           style="fill:#c6c6c7;fill-opacity:1;fill-rule:nonzero;stroke:none;stroke-width:0.1"
           id="path88-1-9" /><path
           d="m 790.84,569.91005 h 101.039 l 50.521,87.5 -50.521,87.5 H 790.84 l -50.52,-87.5 z m 109.7,-15 H 782.18 l -59.18,102.5 59.18,102.5 h 118.36 l 59.18,-102.5 -59.18,-102.5"
           style="fill:#474748;fill-opacity:1;fill-rule:nonzero;stroke:none;stroke-width:0.1"
           id="path90-8-0" /><path
           d="m 824.13,569.91005 h 34.46 v 175 h -34.46 z m 49.46,-15 h -64.46 v 205 h 64.46 v -205"
           style="fill:#474748;fill-opacity:1;fill-rule:nonzero;stroke:none;stroke-width:0.1"
           id="path92-4-5" /></g><g
         id="g1182-1-8-5"
         transform="matrix(-0.05974204,0.05974204,0.05974204,0.05974204,2794.709,-5145.3238)"><path
           d="m 951.06,657.41005 -54.85,-95 h -54.85 v 190 h 54.85 l 54.85,-95"
           style="fill:#827f7f;fill-opacity:1;fill-rule:nonzero;stroke:none;stroke-width:0.1"
           id="path74-6-6-1" /><path
           d="m 731.66,655.57005 54.85,-95 h 54.85 v 190 h -54.85 l -54.85,-95"
           style="fill:#c6c6c7;fill-opacity:1;fill-rule:nonzero;stroke:none;stroke-width:0.1"
           id="path76-4-3-8" /><path
           d="m 764.73,655.57205 54.85,-95 h -33.07 l -54.85,95 54.85,95 h 33.07 l -54.85,-95"
           style="fill:#e8e7e6;fill-opacity:1;fill-rule:nonzero;stroke:none;stroke-width:0.1"
           id="path78-6-2-3" /><path
           d="m 790.84,569.90805 h 101.039 l 50.52,87.502 -50.52,87.502 H 790.84 l -50.519,-87.502 z m 109.7,-15 H 782.18 l -59.18,102.502 59.18,102.502 h 118.36 l 59.179,-102.502 -59.179,-102.502"
           style="fill:#474748;fill-opacity:1;fill-rule:nonzero;stroke:none;stroke-width:0.1"
           id="path80-8-2-8" /><path
           d="m 790.84,569.91005 h 101.039 l 50.521,87.5 -50.521,87.5 H 790.84 l -50.52,-87.5 z m 109.7,-15 H 782.18 l -59.18,102.5 59.18,102.5 h 118.36 l 59.18,-102.5 -59.18,-102.5"
           style="fill:#474748;fill-opacity:1;fill-rule:nonzero;stroke:none;stroke-width:0.1"
           id="path82-70-5-0" /><path
           d="m 866.09,752.41005 v -190 h -24.73 v 190 h 24.73"
           style="fill:#827f7f;fill-opacity:1;fill-rule:nonzero;stroke:none;stroke-width:0.1"
           id="path84-4-9-3" /><path
           d="m 841.36,752.41005 v -190 h -24.73 v 190 h 24.73"
           style="fill:#605f61;fill-opacity:1;fill-rule:nonzero;stroke:none;stroke-width:0.1"
           id="path86-8-6-9" /><path
           d="M 889.252,560.57205 H 866.09 v 191.838 h 23.162 v -191.838"
           style="fill:#c6c6c7;fill-opacity:1;fill-rule:nonzero;stroke:none;stroke-width:0.1"
           id="path88-1-9-1" /><path
           d="m 790.84,569.91005 h 101.039 l 50.521,87.5 -50.521,87.5 H 790.84 l -50.52,-87.5 z m 109.7,-15 H 782.18 l -59.18,102.5 59.18,102.5 h 118.36 l 59.18,-102.5 -59.18,-102.5"
           style="fill:#474748;fill-opacity:1;fill-rule:nonzero;stroke:none;stroke-width:0.1"
           id="path90-8-0-1" /><path
           d="m 824.13,569.91005 h 34.46 v 175 h -34.46 z m 49.46,-15 h -64.46 v 205 h 64.46 v -205"
           style="fill:#474748;fill-opacity:1;fill-rule:nonzero;stroke:none;stroke-width:0.1"
           id="path92-4-5-8" /></g><g
         id="g1182-1-8-5-7"
         transform="matrix(-0.05974204,-0.05974204,-0.05974204,0.05974204,2873.259,-5120.1378)"><path
           d="m 951.06,657.41005 -54.85,-95 h -54.85 v 190 h 54.85 l 54.85,-95"
           style="fill:#827f7f;fill-opacity:1;fill-rule:nonzero;stroke:none;stroke-width:0.1"
           id="path74-6-6-1-1" /><path
           d="m 731.66,655.57005 54.85,-95 h 54.85 v 190 h -54.85 l -54.85,-95"
           style="fill:#c6c6c7;fill-opacity:1;fill-rule:nonzero;stroke:none;stroke-width:0.1"
           id="path76-4-3-8-1" /><path
           d="m 764.73,655.57205 54.85,-95 h -33.07 l -54.85,95 54.85,95 h 33.07 l -54.85,-95"
           style="fill:#e8e7e6;fill-opacity:1;fill-rule:nonzero;stroke:none;stroke-width:0.1"
           id="path78-6-2-3-8" /><path
           d="m 790.84,569.90805 h 101.039 l 50.52,87.502 -50.52,87.502 H 790.84 l -50.519,-87.502 z m 109.7,-15 H 782.18 l -59.18,102.502 59.18,102.502 h 118.36 l 59.179,-102.502 -59.179,-102.502"
           style="fill:#474748;fill-opacity:1;fill-rule:nonzero;stroke:none;stroke-width:0.1"
           id="path80-8-2-8-1" /><path
           d="m 790.84,569.91005 h 101.039 l 50.521,87.5 -50.521,87.5 H 790.84 l -50.52,-87.5 z m 109.7,-15 H 782.18 l -59.18,102.5 59.18,102.5 h 118.36 l 59.18,-102.5 -59.18,-102.5"
           style="fill:#474748;fill-opacity:1;fill-rule:nonzero;stroke:none;stroke-width:0.1"
           id="path82-70-5-0-9" /><path
           d="m 866.09,752.41005 v -190 h -24.73 v 190 h 24.73"
           style="fill:#827f7f;fill-opacity:1;fill-rule:nonzero;stroke:none;stroke-width:0.1"
           id="path84-4-9-3-3" /><path
           d="m 841.36,752.41005 v -190 h -24.73 v 190 h 24.73"
           style="fill:#605f61;fill-opacity:1;fill-rule:nonzero;stroke:none;stroke-width:0.1"
           id="path86-8-6-9-5" /><path
           d="M 889.252,560.57205 H 866.09 v 191.838 h 23.162 v -191.838"
           style="fill:#c6c6c7;fill-opacity:1;fill-rule:nonzero;stroke:none;stroke-width:0.1"
           id="path88-1-9-1-1" /><path
           d="m 790.84,569.91005 h 101.039 l 50.521,87.5 -50.521,87.5 H 790.84 l -50.52,-87.5 z m 109.7,-15 H 782.18 l -59.18,102.5 59.18,102.5 h 118.36 l 59.18,-102.5 -59.18,-102.5"
           style="fill:#474748;fill-opacity:1;fill-rule:nonzero;stroke:none;stroke-width:0.1"
           id="path90-8-0-1-1" /><path
           d="m 824.13,569.91005 h 34.46 v 175 h -34.46 z m 49.46,-15 h -64.46 v 205 h 64.46 v -205"
           style="fill:#474748;fill-opacity:1;fill-rule:nonzero;stroke:none;stroke-width:0.1"
           id="path92-4-5-8-3" /></g><g
         id="g1182-1-8-5-1"
         transform="matrix(0.05974204,-0.05974204,-0.05974204,-0.05974204,3128.0734,-5041.5878)"><path
           d="m 951.06,657.41005 -54.85,-95 h -54.85 v 190 h 54.85 l 54.85,-95"
           style="fill:#827f7f;fill-opacity:1;fill-rule:nonzero;stroke:none;stroke-width:0.1"
           id="path74-6-6-1-8" /><path
           d="m 731.66,655.57005 54.85,-95 h 54.85 v 190 h -54.85 l -54.85,-95"
           style="fill:#c6c6c7;fill-opacity:1;fill-rule:nonzero;stroke:none;stroke-width:0.1"
           id="path76-4-3-8-5" /><path
           d="m 764.73,655.57205 54.85,-95 h -33.07 l -54.85,95 54.85,95 h 33.07 l -54.85,-95"
           style="fill:#e8e7e6;fill-opacity:1;fill-rule:nonzero;stroke:none;stroke-width:0.1"
           id="path78-6-2-3-9" /><path
           d="m 790.84,569.90805 h 101.039 l 50.52,87.502 -50.52,87.502 H 790.84 l -50.519,-87.502 z m 109.7,-15 H 782.18 l -59.18,102.502 59.18,102.502 h 118.36 l 59.179,-102.502 -59.179,-102.502"
           style="fill:#474748;fill-opacity:1;fill-rule:nonzero;stroke:none;stroke-width:0.1"
           id="path80-8-2-8-4" /><path
           d="m 790.84,569.91005 h 101.039 l 50.521,87.5 -50.521,87.5 H 790.84 l -50.52,-87.5 z m 109.7,-15 H 782.18 l -59.18,102.5 59.18,102.5 h 118.36 l 59.18,-102.5 -59.18,-102.5"
           style="fill:#474748;fill-opacity:1;fill-rule:nonzero;stroke:none;stroke-width:0.1"
           id="path82-70-5-0-4" /><path
           d="m 866.09,752.41005 v -190 h -24.73 v 190 h 24.73"
           style="fill:#827f7f;fill-opacity:1;fill-rule:nonzero;stroke:none;stroke-width:0.1"
           id="path84-4-9-3-8" /><path
           d="m 841.36,752.41005 v -190 h -24.73 v 190 h 24.73"
           style="fill:#605f61;fill-opacity:1;fill-rule:nonzero;stroke:none;stroke-width:0.1"
           id="path86-8-6-9-0" /><path
           d="M 889.252,560.57205 H 866.09 v 191.838 h 23.162 v -191.838"
           style="fill:#c6c6c7;fill-opacity:1;fill-rule:nonzero;stroke:none;stroke-width:0.1"
           id="path88-1-9-1-18" /><path
           d="m 790.84,569.91005 h 101.039 l 50.521,87.5 -50.521,87.5 H 790.84 l -50.52,-87.5 z m 109.7,-15 H 782.18 l -59.18,102.5 59.18,102.5 h 118.36 l 59.18,-102.5 -59.18,-102.5"
           style="fill:#474748;fill-opacity:1;fill-rule:nonzero;stroke:none;stroke-width:0.1"
           id="path90-8-0-1-3" /><path
           d="m 824.13,569.91005 h 34.46 v 175 h -34.46 z m 49.46,-15 h -64.46 v 205 h 64.46 v -205"
           style="fill:#474748;fill-opacity:1;fill-rule:nonzero;stroke:none;stroke-width:0.1"
           id="path92-4-5-8-8" /></g></g></g></svg>
