<?xml version="1.0" encoding="UTF-8" standalone="no"?>
<!-- Created with Inkscape (http://www.inkscape.org/) -->

<svg
   width="217.4696mm"
   height="240.11475mm"
   viewBox="0 0 217.4696 240.11475"
   version="1.1"
   id="svg20458"
   xml:space="preserve"
   inkscape:version="1.2.2 (732a01da63, 2022-12-09)"
   sodipodi:docname="stage.svg"
   inkscape:export-filename="upgrade-S.svg"
   inkscape:export-xdpi="1536"
   inkscape:export-ydpi="1536"
   xmlns:inkscape="http://www.inkscape.org/namespaces/inkscape"
   xmlns:sodipodi="http://sodipodi.sourceforge.net/DTD/sodipodi-0.dtd"
   xmlns="http://www.w3.org/2000/svg"
   xmlns:svg="http://www.w3.org/2000/svg"><sodipodi:namedview
     id="namedview20460"
     pagecolor="#ffffff"
     bordercolor="#000000"
     borderopacity="0.25"
     inkscape:showpageshadow="2"
     inkscape:pageopacity="0.0"
     inkscape:pagecheckerboard="0"
     inkscape:deskcolor="#d1d1d1"
     inkscape:document-units="mm"
     showgrid="false"
     inkscape:zoom="0.22627417"
     inkscape:cx="4209.4951"
     inkscape:cy="-1310.3573"
     inkscape:window-width="1920"
     inkscape:window-height="991"
     inkscape:window-x="-9"
     inkscape:window-y="-9"
     inkscape:window-maximized="1"
     inkscape:current-layer="layer1"
     showguides="false" /><defs
     id="defs20455" /><g
     inkscape:label="Vrstva 1"
     inkscape:groupmode="layer"
     id="layer1"
     transform="translate(-1822.1806,2183.4868)"><g
       id="g64232"><path
         d="m 2039.6502,-1943.372 -217.4695,-25.7352 11.8131,-209.2007 199.2747,-5.1788 6.3817,240.1147"
         style="fill:#5a5448;fill-opacity:1;fill-rule:nonzero;stroke:none;stroke-width:0.0352778"
         id="path3492-5-4" /><path
         d="m 2026.8867,-1962.8207 -196.4577,-13.1586 10.3928,-194.5393 185.1653,-4.8119 0.8996,212.5098"
         style="fill:#97877a;fill-opacity:1;fill-rule:nonzero;stroke:none;stroke-width:0.0352778"
         id="path3494-51-0" /><path
         d="m 2026.8867,-1962.8207 12.7635,19.4487 -217.4695,-25.7352 8.2483,-6.8721 196.4577,13.1586"
         style="fill:#443f35;fill-opacity:1;fill-rule:nonzero;stroke:none;stroke-width:0.0352778"
         id="path3496-7-5" /><path
         d="m 2025.9871,-2175.3305 7.2814,-8.1562 -199.2747,5.1788 6.828,7.7893 185.1653,-4.8119"
         style="fill:#6d675d;fill-opacity:1;fill-rule:nonzero;stroke:none;stroke-width:0.0352778"
         id="path3498-4-2" /><path
         d="m 2029.7854,-2105.4271 -3.549,-11.0031 -10.1145,-3.0903 10.1286,6.1806 3.535,7.9128"
         style="fill:#443f35;fill-opacity:1;fill-rule:nonzero;stroke:none;stroke-width:0.0352778"
         id="path3500-06-6" /><path
         d="m 1836.5475,-2009.1863 -4.318,-2.854 -7.1014,4.4556 7.1085,-2.2296 4.3109,0.628"
         style="fill:#443f35;fill-opacity:1;fill-rule:nonzero;stroke:none;stroke-width:0.0352778"
         id="path3502-5-9" /><path
         d="m 1840.8218,-2170.5186 -0.8064,15.0989 1.5529,-14.4745 9.8517,-0.8996 -10.5982,0.2752"
         style="fill:#c6a38d;fill-opacity:1;fill-rule:nonzero;stroke:none;stroke-width:0.0352778"
         id="path3504-9-6" /><path
         d="m 1833.6417,-2036.1173 4.2217,-79.0258 c 0,0 -1.7956,64.7806 -4.2217,79.0258"
         style="fill:#c6a38d;fill-opacity:1;fill-rule:nonzero;stroke:none;stroke-width:0.0352778"
         id="path3506-35-2" /><path
         d="m 2026.7429,-2024.4176 v 55.2556 c 0,0 -1.9367,-46.9407 0,-55.2556"
         style="fill:#c6a38d;fill-opacity:1;fill-rule:nonzero;stroke:none;stroke-width:0.0352778"
         id="path3508-3-7" /><path
         d="m 1833.6417,-2146.4521 5.3097,10.9502 7.6532,-0.8537 -7.7548,2.7552 -5.2081,-12.8517"
         style="fill:#443f35;fill-opacity:1;fill-rule:nonzero;stroke:none;stroke-width:0.0352778"
         id="path3510-1-4" /><path
         d="m 2026.8867,-1962.8207 6.3818,12.2838 6.3817,7.1649 z"
         style="fill:#26231e;fill-opacity:1;fill-rule:nonzero;stroke:none;stroke-width:0.0352778"
         id="path3514-4-2" /><path
         d="m 1924.4074,-1963.1259 88.5938,3.4502 c 0,0 -81.4031,-2.3001 -88.5938,-3.4502"
         style="fill:#26231e;fill-opacity:1;fill-rule:nonzero;stroke:none;stroke-width:0.0352778"
         id="path3516-2-7" /><path
         d="m 1849.2278,-1971.1709 41.8462,6.8262 c 0,0 -35.3745,-6.3958 -41.8462,-6.8262"
         style="fill:#26231e;fill-opacity:1;fill-rule:nonzero;stroke:none;stroke-width:0.0352778"
         id="path3518-3-4" /><path
         d="m 1946.7009,-2167.548 1.1669,-4.8436 7.7664,-5.1647 -9.2054,4.2933 0.272,5.715"
         style="fill:#443f35;fill-opacity:1;fill-rule:nonzero;stroke:none;stroke-width:0.0352778"
         id="path3520-4-4" /><path
         d="m 1848.7618,-2177.0026 7.7047,6.484 -3.8524,6.8368 5.6399,-7.112 -9.4922,-6.2088"
         style="fill:#443f35;fill-opacity:1;fill-rule:nonzero;stroke:none;stroke-width:0.0352778"
         id="path3522-1-7" /><path
         d="m 1878.3116,-2112.9835 74.042,59.3901 c 0,0 -62.6531,-52.572 -74.042,-59.3901"
         style="fill:#443f35;fill-opacity:0.699317;fill-rule:nonzero;stroke:none;stroke-width:0.0571556"
         id="path3526-2-2" /><path
         d="m 2034.1469,-1960.8945 -7.2602,-6.1842 h -9.7084 l 9.6837,-1.5804 7.2849,7.7646"
         style="fill:#443f35;fill-opacity:1;fill-rule:nonzero;stroke:none;stroke-width:0.0352778"
         id="path3528-3-6" /><path
         d="m 1978.7305,-2034.5616 25.4351,44.411 c 0,0 -18.8583,-36.2261 -25.4351,-44.411"
         style="fill:#443f35;fill-opacity:0.699317;fill-rule:nonzero;stroke:none;stroke-width:0.0495201"
         id="path3530-4-6" /><path
         d="m 1902.2016,-1971.1709 82.93,5.5527 c 0,0 -51.1355,-5.6938 -82.93,-5.5527"
         style="fill:#c6a38d;fill-opacity:1;fill-rule:nonzero;stroke:none;stroke-width:0.0352778"
         id="path3532-1-3" /><path
         d="m 1877.1076,-2171.5453 42.5108,-0.9372 c 0,0 -39.842,1.5782 -42.5108,0.9372"
         style="fill:#c6a38d;fill-opacity:1;fill-rule:nonzero;stroke:none;stroke-width:0.0352778"
         id="path3608-1-7" /><path
         d="m 1879.9779,-2081.767 85.9575,-23.9641 c 0,0 -59.4685,18.6451 -85.9575,23.9641"
         style="fill:#443f35;fill-opacity:0.699317;fill-rule:nonzero;stroke:none;stroke-width:0.090914"
         id="path3648-1-9" /><path
         d="m 2033.4147,-2034.0368 -3.2914,-50.9129 c 0,0 3.9969,31.3514 3.2914,50.9129"
         style="fill:#443f35;fill-opacity:1;fill-rule:nonzero;stroke:none;stroke-width:0.0352778"
         id="path3726-6-9" /><path
         d="m 1924.4074,-2017.9932 -72.3757,19.2671 c 0,0 45.5837,-9.3776 72.3757,-19.2671"
         style="fill:#443f35;fill-opacity:0.699317;fill-rule:nonzero;stroke:none;stroke-width:0.0704309"
         id="path3730-9-2" /><path
         d="m 2009.6796,-2180.2905 18.6429,-0.7903 c 0,0 -13.1166,3.2315 -18.6429,0.7903"
         style="fill:#443f35;fill-opacity:1;fill-rule:nonzero;stroke:none;stroke-width:0.0352778"
         id="path3734-4-2" /><path
         d="m 1951.9525,-2139.8176 46.9414,-9.7382 c 0,0 -29.3677,10.3261 -46.9414,9.7382"
         style="fill:#443f35;fill-opacity:0.699317;fill-rule:nonzero;stroke:none;stroke-width:0.0979701"
         id="path3736-1-5" /></g></g><style
     type="text/css"
     id="style13890">
	.st0{fill:none;stroke:#000000;stroke-width:2;stroke-linecap:round;stroke-linejoin:round;stroke-miterlimit:10;}
</style></svg>
