<?xml version="1.0" encoding="UTF-8" standalone="no"?>
<!-- Created with Inkscape (http://www.inkscape.org/) -->

<svg
   width="62.763184mm"
   height="147.78809mm"
   viewBox="0 0 62.763184 147.78809"
   version="1.1"
   id="svg20458"
   xml:space="preserve"
   inkscape:version="1.2.2 (732a01da63, 2022-12-09)"
   sodipodi:docname="stage.svg"
   inkscape:export-filename="panel2.svg"
   inkscape:export-xdpi="23.161549"
   inkscape:export-ydpi="23.161549"
   xmlns:inkscape="http://www.inkscape.org/namespaces/inkscape"
   xmlns:sodipodi="http://sodipodi.sourceforge.net/DTD/sodipodi-0.dtd"
   xmlns:xlink="http://www.w3.org/1999/xlink"
   xmlns="http://www.w3.org/2000/svg"
   xmlns:svg="http://www.w3.org/2000/svg"><sodipodi:namedview
     id="namedview20460"
     pagecolor="#ffffff"
     bordercolor="#000000"
     borderopacity="0.25"
     inkscape:showpageshadow="2"
     inkscape:pageopacity="0.0"
     inkscape:pagecheckerboard="0"
     inkscape:deskcolor="#d1d1d1"
     inkscape:document-units="mm"
     showgrid="false"
     inkscape:zoom="1.8101934"
     inkscape:cx="-2540.3364"
     inkscape:cy="-6023.9421"
     inkscape:window-width="1920"
     inkscape:window-height="991"
     inkscape:window-x="-9"
     inkscape:window-y="-9"
     inkscape:window-maximized="1"
     inkscape:current-layer="layer1"
     showguides="false" /><defs
     id="defs20455"><linearGradient
       inkscape:collect="always"
       id="linearGradient73996"><stop
         style="stop-color:#eaeaea;stop-opacity:0.70588231;"
         offset="0"
         id="stop73992" /><stop
         style="stop-color:#bcbcbc;stop-opacity:0.49803922;"
         offset="0.5"
         id="stop74000" /><stop
         style="stop-color:#e9e9e9;stop-opacity:0.70588231;"
         offset="1"
         id="stop73994" /></linearGradient><linearGradient
       inkscape:collect="always"
       xlink:href="#linearGradient73996"
       id="linearGradient73998"
       x1="413.02225"
       y1="-4608.3091"
       x2="466.72125"
       y2="-4591.2153"
       gradientUnits="userSpaceOnUse"
       gradientTransform="translate(3511.9409,-637.99017)" /></defs><g
     inkscape:label="Vrstva 1"
     inkscape:groupmode="layer"
     id="layer1"
     transform="translate(-3920.4686,5317.2811)"><g
       id="g98689"><path
         d="m 3920.4789,-5169.4931 -0.01,-133.4218 62.763,-14.3662 v 140.1875 l -62.763,7.6005"
         style="fill:#606060;fill-opacity:1;fill-rule:nonzero;stroke:none;stroke-width:0.0484465"
         id="path3656-6-2"
         sodipodi:nodetypes="ccccc" /><path
         style="fill:url(#linearGradient73998);fill-opacity:1;stroke:none;stroke-width:0.143534;stroke-linecap:round;stroke-linejoin:bevel;stroke-miterlimit:7.9"
         d="m 3925.1254,-5174.7845 53.45,-6.4347 c 10e-5,-41.2176 0,-92.6997 0,-130.7705 l -53.45,12.2344 z"
         id="path68887"
         sodipodi:nodetypes="ccccc" /><path
         d="m 3951.8547,-5185.686 24.5077,-24.5077 c 0,0 -23.2716,20.862 -24.5077,24.5077"
         style="fill:#444444;fill-opacity:0.89951;fill-rule:nonzero;stroke:none;stroke-width:0.0352778"
         id="path3686-8-9" /><path
         d="m 3949.7691,-5292.3415 -12.2538,54.516 c 0,0 6.982,-37.0918 12.2538,-54.516"
         style="fill:#444444;fill-opacity:0.89951;fill-rule:nonzero;stroke:none;stroke-width:0.0472917"
         id="path3682-9-3" /><path
         d="m 3973.0198,-5234.8556 c 0,0 -14.672,-7.7247 -17.6951,-18.8436 4.9515,7.2558 17.6951,18.8436 17.6951,18.8436"
         style="fill:#444444;fill-opacity:0.89951;fill-rule:nonzero;stroke:none;stroke-width:0.0505454"
         id="path3908-7-6" /><path
         d="m 3943.3581,-5307.1603 -3.2288,3.5994 2.2178,4.6712 -0.6821,-4.6514 1.6931,-3.6192"
         style="fill:#444444;fill-opacity:0.89951;fill-rule:nonzero;stroke:none;stroke-width:0.0661652"
         id="path3564-6-4" /><path
         d="m 3948.6181,-5202.3602 26.2378,26.2379 c 0,0 -22.1696,-23.1873 -26.2378,-26.2379"
         style="fill:#444444;fill-opacity:0.89951;fill-rule:nonzero;stroke:none;stroke-width:0.0352778"
         id="path3646-1-73" /><g
         id="g1202-1-0"
         transform="matrix(0.03092481,0.03092481,0.03092481,-0.03092481,3926.8327,-5328.9604)"><path
           d="m 1229.23,323.51905 -54.85,-95 h -54.85 v 190 h 54.85 l 54.85,-95"
           style="fill:#827f7f;fill-opacity:1;fill-rule:nonzero;stroke:none;stroke-width:0.1"
           id="path94-9-8" /><path
           d="m 1009.83,321.67805 54.85,-95 h 54.85 v 190 h -54.85 l -54.85,-95"
           style="fill:#c6c6c7;fill-opacity:1;fill-rule:nonzero;stroke:none;stroke-width:0.1"
           id="path96-6-2" /><path
           d="m 1042.9,321.68005 54.85,-95 h -33.07 l -54.85,95 54.85,95 h 33.07 l -54.85,-95"
           style="fill:#e8e7e6;fill-opacity:1;fill-rule:nonzero;stroke:none;stroke-width:0.1"
           id="path98-5-5" /><path
           d="m 1069.01,236.01605 h 101.04 l 50.52,87.502 -50.52,87.503 h -101.04 l -50.52,-87.503 z m 109.7,-15 h -118.36 l -59.18,102.502 59.18,102.503 h 118.36 l 59.18,-102.503 -59.18,-102.502"
           style="fill:#474748;fill-opacity:1;fill-rule:nonzero;stroke:none;stroke-width:0.1"
           id="path100-4-7" /><path
           d="m 1069.01,236.01805 h 101.04 l 50.52,87.5 -50.52,87.5 h -101.04 l -50.52,-87.5 z m 109.7,-15 h -118.36 l -59.18,102.5 59.18,102.5 h 118.36 l 59.18,-102.5 -59.18,-102.5"
           style="fill:#474748;fill-opacity:1;fill-rule:nonzero;stroke:none;stroke-width:0.1"
           id="path102-9-5" /><path
           d="m 1069.01,236.01805 h 101.04 l 50.52,87.5 -50.52,87.5 h -101.04 l -50.52,-87.5 z m 109.7,-15 h -118.36 l -59.18,102.5 59.18,102.5 h 118.36 l 59.18,-102.5 -59.18,-102.5"
           style="fill:#474748;fill-opacity:1;fill-rule:nonzero;stroke:none;stroke-width:0.1"
           id="path104-5-8" /></g><g
         id="g1202-1-0-6"
         transform="matrix(-0.03092481,-0.03092481,-0.03092481,0.03092481,3976.8681,-5157.8138)"><path
           d="m 1229.23,323.51905 -54.85,-95 h -54.85 v 190 h 54.85 l 54.85,-95"
           style="fill:#827f7f;fill-opacity:1;fill-rule:nonzero;stroke:none;stroke-width:0.1"
           id="path94-9-8-5" /><path
           d="m 1009.83,321.67805 54.85,-95 h 54.85 v 190 h -54.85 l -54.85,-95"
           style="fill:#c6c6c7;fill-opacity:1;fill-rule:nonzero;stroke:none;stroke-width:0.1"
           id="path96-6-2-0" /><path
           d="m 1042.9,321.68005 54.85,-95 h -33.07 l -54.85,95 54.85,95 h 33.07 l -54.85,-95"
           style="fill:#e8e7e6;fill-opacity:1;fill-rule:nonzero;stroke:none;stroke-width:0.1"
           id="path98-5-5-8" /><path
           d="m 1069.01,236.01605 h 101.04 l 50.52,87.502 -50.52,87.503 h -101.04 l -50.52,-87.503 z m 109.7,-15 h -118.36 l -59.18,102.502 59.18,102.503 h 118.36 l 59.18,-102.503 -59.18,-102.502"
           style="fill:#474748;fill-opacity:1;fill-rule:nonzero;stroke:none;stroke-width:0.1"
           id="path100-4-7-2" /><path
           d="m 1069.01,236.01805 h 101.04 l 50.52,87.5 -50.52,87.5 h -101.04 l -50.52,-87.5 z m 109.7,-15 h -118.36 l -59.18,102.5 59.18,102.5 h 118.36 l 59.18,-102.5 -59.18,-102.5"
           style="fill:#474748;fill-opacity:1;fill-rule:nonzero;stroke:none;stroke-width:0.1"
           id="path102-9-5-74" /><path
           d="m 1069.01,236.01805 h 101.04 l 50.52,87.5 -50.52,87.5 h -101.04 l -50.52,-87.5 z m 109.7,-15 h -118.36 l -59.18,102.5 59.18,102.5 h 118.36 l 59.18,-102.5 -59.18,-102.5"
           style="fill:#474748;fill-opacity:1;fill-rule:nonzero;stroke:none;stroke-width:0.1"
           id="path104-5-8-6" /></g><path
         style="fill:#838383;fill-opacity:1;stroke:none;stroke-width:0.132292;stroke-linecap:round;stroke-linejoin:bevel;stroke-miterlimit:7.9;stroke-opacity:1"
         d="m 3920.4688,-5302.9148 4.6567,3.1596 v 124.9707 l -4.6467,5.2914 -0.01,-133.4217"
         id="path98468" /><path
         style="fill:#4c4c4c;fill-opacity:1;stroke:none;stroke-width:0.132292;stroke-linecap:round;stroke-linejoin:bevel;stroke-miterlimit:7.9;stroke-opacity:1"
         d="m 3978.5753,-5311.9378 4.6566,-5.2914 v 140.1873 l -4.6566,-4.1256 z"
         id="path98524" /><path
         d="m 3933.2962,-5221.1118 -8.1707,0.4375 -4.3952,5.2381 3.0151,-6.6448 9.5508,0.9692"
         style="fill:#444444;fill-opacity:0.89951;fill-rule:nonzero;stroke:none;stroke-width:0.0781434"
         id="path3684-4-5" /><path
         d="m 3978.5355,-5286.4434 -9.1094,8.0823 9.1493,-7.0299 1.8302,2.1859 -1.8698,-3.2385"
         style="fill:#444444;fill-opacity:0.89951;fill-rule:nonzero;stroke:none;stroke-width:0.0352778"
         id="path3680-5-8-3" /></g></g></svg>
