<?xml version="1.0" encoding="UTF-8" standalone="no"?>
<!-- Created with Inkscape (http://www.inkscape.org/) -->

<svg
   width="475.22168mm"
   height="441.80835mm"
   viewBox="0 0 475.22168 441.80835"
   version="1.1"
   id="svg20458"
   xml:space="preserve"
   inkscape:version="1.2.2 (732a01da63, 2022-12-09)"
   sodipodi:docname="stage.svg"
   inkscape:export-filename="upgrade-S.svg"
   inkscape:export-xdpi="192"
   inkscape:export-ydpi="192"
   xmlns:inkscape="http://www.inkscape.org/namespaces/inkscape"
   xmlns:sodipodi="http://sodipodi.sourceforge.net/DTD/sodipodi-0.dtd"
   xmlns="http://www.w3.org/2000/svg"
   xmlns:svg="http://www.w3.org/2000/svg"><sodipodi:namedview
     id="namedview20460"
     pagecolor="#ffffff"
     bordercolor="#000000"
     borderopacity="0.25"
     inkscape:showpageshadow="2"
     inkscape:pageopacity="0.0"
     inkscape:pagecheckerboard="0"
     inkscape:deskcolor="#d1d1d1"
     inkscape:document-units="mm"
     showgrid="false"
     inkscape:zoom="0.04"
     inkscape:cx="8475"
     inkscape:cy="-13912.5"
     inkscape:window-width="1920"
     inkscape:window-height="991"
     inkscape:window-x="-9"
     inkscape:window-y="-9"
     inkscape:window-maximized="1"
     inkscape:current-layer="layer1"
     showguides="false" /><defs
     id="defs20455" /><g
     inkscape:label="Vrstva 1"
     inkscape:groupmode="layer"
     id="layer1"
     transform="translate(-4234.4366,2356.1867)"><g
       id="g74580"><rect
         style="fill:#5a5448;fill-opacity:1;stroke-width:0.958909;stroke-linecap:round;stroke-miterlimit:7.9"
         id="rect47504"
         width="475.22101"
         height="441.80841"
         x="4234.437"
         y="-2356.1868"
         inkscape:export-filename=".\rect47504.svg"
         inkscape:export-xdpi="192"
         inkscape:export-ydpi="192" /><rect
         style="fill:#97877a;fill-opacity:1;stroke:#b49682;stroke-width:0.917904;stroke-linecap:round;stroke-miterlimit:7.9;stroke-opacity:1"
         id="rect47504-4"
         width="455.39288"
         height="422.4566"
         x="4244.3511"
         y="-2346.511" /><path
         d="m 4338.1034,-2346.6038 137.7102,-0.3661 c 0,0 -120.1976,4.7533 -137.7102,0.3661"
         style="fill:#b49682;fill-opacity:1;fill-rule:nonzero;stroke:none;stroke-width:0.10174"
         id="path3804-7-1" /><path
         style="fill:#6d675d;fill-opacity:1;stroke-width:2.11667;stroke-linecap:round;stroke-miterlimit:7.9"
         d="m 4234.4366,-2356.1868 9.914,9.2169 h 455.3931 l 9.914,-9.2169 h -475.2211"
         id="path48219" /><path
         style="fill:#443f35;fill-opacity:1;stroke-width:2.11667;stroke-linecap:round;stroke-miterlimit:7.9"
         d="m 4234.4366,-1914.3784 9.914,-9.217 h 455.3931 l 9.914,9.217 h -475.2211"
         id="path48551" /><path
         d="m 4236.3196,-2125.1407 107.79,-128.4591 c 0,0 -101.2388,123.9264 -107.79,128.4591"
         style="fill:#4d453e;fill-opacity:0.596811;fill-rule:nonzero;stroke:none;stroke-width:0.0747535"
         id="path3830-2-9" /><path
         d="m 4236.3097,-2333.8859 7.5673,7.4111 24.163,3.6098 h -24.4298 l -7.3005,-11.0209"
         style="fill:#4d453e;fill-opacity:1;fill-rule:nonzero;stroke:none;stroke-width:0.147337"
         id="path3390-7-5" /><path
         d="m 4243.8919,-2101.1563 0.5571,166.7518 c 0,0 7.965,-124.9828 -0.5571,-166.7518"
         style="fill:#b49682;fill-opacity:1;fill-rule:nonzero;stroke:none;stroke-width:0.206089"
         id="path3370-3-7" /><path
         d="m 4698.7517,-2013.3603 -4.3809,15.553 5.848,-11.7897 8.3466,-1.4689 -9.8137,-2.2944"
         style="fill:#4d453e;fill-opacity:1;fill-rule:nonzero;stroke:none;stroke-width:0.0793931"
         id="path4220-7-9" /><path
         d="m 4280.7335,-1981.7337 284.2356,41.2719 c 0,0 -151.5559,-15.7051 -284.2356,-41.2719"
         style="fill:#4d453e;fill-opacity:0.596811;fill-rule:nonzero;stroke:none;stroke-width:0.387276"
         id="path3910-0-2" /><path
         d="m 4521.212,-1923.5954 h 137.6683 c 0,0 -118.9922,-7.2308 -137.6683,0"
         style="fill:#b49682;fill-opacity:1;fill-rule:nonzero;stroke:none;stroke-width:0.2154"
         id="path3646-1-5" /><path
         d="m 4445.98,-2352.9973 -8.1296,2.4859 -2.3122,0.7047 -11.0333,30.9319 15.6238,-28.0951 5.8513,-6.026"
         style="fill:#4d453e;fill-opacity:1;fill-rule:nonzero;stroke:none;stroke-width:0.142124"
         id="path3902-9-4" /><path
         d="m 4497.7053,-2318.4158 207.0926,173.9958 c 0,0 -178.28,-152.2017 -207.0926,-173.9958"
         style="fill:#4d453e;fill-opacity:0.596811;fill-rule:nonzero;stroke:none;stroke-width:0.152642"
         id="path3646-1-8" /><path
         d="m 4618.6003,-2320.4269 -158.6747,82.073 c 0,0 108.3644,-51.1813 158.6747,-82.073"
         style="fill:#4d453e;fill-opacity:0.596811;fill-rule:nonzero;stroke:none;stroke-width:0.128085"
         id="path3716-4-3" /><path
         d="m 4358.469,-2011.6333 c 0,0 -44.5121,48.7167 -89.8394,65.9096 41.2104,-23.9086 89.8394,-65.9096 89.8394,-65.9096"
         style="fill:#4d453e;fill-opacity:0.596811;fill-rule:nonzero;stroke:none;stroke-width:0.216874"
         id="path4150-7-3" /><path
         d="m 4400.5646,-2318.7043 22.2867,295.662 c 0,0 -14.6087,-239.1604 -22.2867,-295.662"
         style="fill:#4d453e;fill-opacity:0.596811;fill-rule:nonzero;stroke:none;stroke-width:0.231172"
         id="path3724-6-5" /><path
         d="m 4237.7474,-2181.0794 6.1126,-10.2195 16.1644,16.5156 -16.1644,-12.447 -6.1126,6.1509"
         style="fill:#4d453e;fill-opacity:1;fill-rule:nonzero;stroke:none;stroke-width:0.0836754"
         id="path3592-5-8" /><path
         d="m 4704.3657,-2092.3403 -123.6111,80.707 c 0,0 115.3855,-65.7745 123.6111,-80.707"
         style="fill:#4d453e;fill-opacity:0.596811;fill-rule:nonzero;stroke:none;stroke-width:0.277028"
         id="path3374-7-0" /><path
         d="m 4700.2117,-2278.6522 -46.8417,4.262 46.8417,-6.8697 6.6488,9.6212 -6.6488,-7.0135"
         style="fill:#4d453e;fill-opacity:1;fill-rule:nonzero;stroke:none;stroke-width:0.0823431"
         id="path3566-2-1" /><path
         d="m 4349.7753,-1930.1646 -10.0104,6.533 6.8761,8.4786 -2.1148,-8.4424 5.2491,-6.5692"
         style="fill:#4d453e;fill-opacity:1;fill-rule:nonzero;stroke:none;stroke-width:0.156957"
         id="path3564-6-6" /><path
         d="m 4647.7447,-2355.5138 24.1933,8.5439 v 5.4598 l 3.6448,-5.4598 -27.8381,-8.5439"
         style="fill:#4d453e;fill-opacity:1;fill-rule:nonzero;stroke:none;stroke-width:0.104035"
         id="path3340-3-1" /><path
         d="m 4425.2159,-1918.2857 h 85.165 c 0,0 -73.6115,-3.1552 -85.165,0"
         style="fill:#4d453e;fill-opacity:1;fill-rule:nonzero;stroke:none;stroke-width:0.111912"
         id="path3646-1-1" /><path
         d="m 4701.5053,-2255.8113 6.5852,140.6277 c 0,0 -4.3903,-129.2138 -6.5852,-140.6277"
         style="fill:#7e7166;fill-opacity:1;fill-rule:nonzero;stroke:none;stroke-width:0.0614043"
         id="path3516-1-7" /></g></g><style
     type="text/css"
     id="style13890">
	.st0{fill:none;stroke:#000000;stroke-width:2;stroke-linecap:round;stroke-linejoin:round;stroke-miterlimit:10;}
</style></svg>
