<?xml version="1.0" encoding="UTF-8" standalone="no"?>
<!-- Created with Inkscape (http://www.inkscape.org/) -->

<svg
   width="80mm"
   height="79.997559mm"
   viewBox="0 0 80 79.997559"
   version="1.1"
   id="svg20458"
   xml:space="preserve"
   inkscape:version="1.2.2 (732a01da63, 2022-12-09)"
   sodipodi:docname="stage.svg"
   inkscape:export-filename="panel2.svg"
   inkscape:export-xdpi="23.161549"
   inkscape:export-ydpi="23.161549"
   xmlns:inkscape="http://www.inkscape.org/namespaces/inkscape"
   xmlns:sodipodi="http://sodipodi.sourceforge.net/DTD/sodipodi-0.dtd"
   xmlns="http://www.w3.org/2000/svg"
   xmlns:svg="http://www.w3.org/2000/svg"><sodipodi:namedview
     id="namedview20460"
     pagecolor="#ffffff"
     bordercolor="#000000"
     borderopacity="0.25"
     inkscape:showpageshadow="2"
     inkscape:pageopacity="0.0"
     inkscape:pagecheckerboard="0"
     inkscape:deskcolor="#d1d1d1"
     inkscape:document-units="mm"
     showgrid="false"
     inkscape:zoom="0.45254834"
     inkscape:cx="11945.685"
     inkscape:cy="-19791.256"
     inkscape:window-width="1920"
     inkscape:window-height="991"
     inkscape:window-x="-9"
     inkscape:window-y="-9"
     inkscape:window-maximized="1"
     inkscape:current-layer="layer1" /><defs
     id="defs20455" /><g
     inkscape:label="Vrstva 1"
     inkscape:groupmode="layer"
     id="layer1"
     transform="translate(-1595.3665,4265.4242)"><g
       id="g30323"
       transform="matrix(1.6,0,0,1.6,-1014.4357,5341.9078)"
       inkscape:export-filename=".\g30323.svg"
       inkscape:export-xdpi="49.125134"
       inkscape:export-ydpi="49.125134"><path
         d="m 1681.1264,-5979.5822 c 0,13.8055 -11.193,24.9982 -25.0001,24.9982 -13.807,0 -24.9999,-11.1927 -24.9999,-24.9982 0,-13.8077 11.1929,-25.0004 24.9999,-25.0004 13.8071,0 25.0001,11.1927 25.0001,25.0004"
         style="fill:#6d675d;fill-opacity:1;fill-rule:nonzero;stroke:none;stroke-width:0.0223318"
         id="path3898-3" /><path
         d="m 1677.1497,-5979.5822 c 0,11.6103 -9.4126,21.0232 -21.0234,21.0232 -11.6109,0 -21.0233,-9.4129 -21.0233,-21.0232 0,-11.6125 9.4124,-21.0232 21.0233,-21.0232 11.6108,0 21.0234,9.4107 21.0234,21.0232"
         style="fill:#e5e4e3;fill-opacity:1;fill-rule:nonzero;stroke:none;stroke-width:0.0223318"
         id="path3900-9" /><path
         d="m 1662.4878,-6000.6054 -2.2566,0.2211 -0.6419,0.062 -3.0625,2.7513 4.3368,-2.4989 1.6242,-0.536"
         style="fill:#443f35;fill-opacity:1;fill-rule:nonzero;stroke:none;stroke-width:0.0223318"
         id="path3902-5" /><path
         d="m 1636.3352,-5972.4762 -1.2322,4.3748 1.6449,-3.3163 2.348,-0.4131 -2.7607,-0.6454"
         style="fill:#443f35;fill-opacity:1;fill-rule:nonzero;stroke:none;stroke-width:0.0223318"
         id="path3904-1" /><path
         d="m 1642.889,-5961.5359 c 0,0 4.8772,4.7143 9.8445,6.378 -4.5157,-2.3136 -9.8445,-6.378 -9.8445,-6.378"
         style="fill:#443f35;fill-opacity:1;fill-rule:nonzero;stroke:none;stroke-width:0.0223318"
         id="path3906-5" /><path
         d="m 1680.28,-5975.7143 c 0,0 -2.2354,6.9764 -6.8414,9.1448 2.7772,-2.711 6.8414,-9.1448 6.8414,-9.1448"
         style="fill:#443f35;fill-opacity:1;fill-rule:nonzero;stroke:none;stroke-width:0.0223318"
         id="path3908-0" /><path
         d="m 1665.3244,-5990.4042 9.0926,4.2899 c 0,0 -4.8482,-1.6324 -9.0926,-4.2899"
         style="fill:#97877a;fill-opacity:1;fill-rule:nonzero;stroke:none;stroke-width:0.0223318"
         id="path3910-57" /><path
         d="m 1640.124,-5996.3444 c 0,0 5.2036,-6.1949 18.0285,-6.4651 -8.1285,1.264 -12.665,1.6414 -18.0285,6.4651"
         style="fill:#bababa;fill-opacity:1;fill-rule:nonzero;stroke:none;stroke-width:0.0223318"
         id="path3914-2" /></g></g></svg>
